<?xml version="1.0" encoding="UTF-8" standalone="no"?>
<!-- Created with Inkscape (http://www.inkscape.org/) -->

<svg
   xmlns:dc="http://purl.org/dc/elements/1.1/"
   xmlns:cc="http://creativecommons.org/ns#"
   xmlns:rdf="http://www.w3.org/1999/02/22-rdf-syntax-ns#"
   xmlns:svg="http://www.w3.org/2000/svg"
   xmlns="http://www.w3.org/2000/svg"
   xmlns:sodipodi="http://sodipodi.sourceforge.net/DTD/sodipodi-0.dtd"
   xmlns:inkscape="http://www.inkscape.org/namespaces/inkscape"
   version="1.1"
   id="svg2"
   width="28.295609"
   height="200.41985"
   viewBox="0 0 28.295609 200.41985"
   sodipodi:docname="Figure-Angle-Forces-pattern-0.svg"
   inkscape:version="0.92.3 (2405546, 2018-03-11)">
  <metadata
     id="metadata8">
    <rdf:RDF>
      <cc:Work
         rdf:about="">
        <dc:format>image/svg+xml</dc:format>
        <dc:type
           rdf:resource="http://purl.org/dc/dcmitype/StillImage" />
        <dc:title></dc:title>
      </cc:Work>
    </rdf:RDF>
  </metadata>
  <defs
     id="defs6" />
  <sodipodi:namedview
     pagecolor="#ffffff"
     bordercolor="#666666"
     borderopacity="1"
     objecttolerance="10"
     gridtolerance="10"
     guidetolerance="10"
     inkscape:pageopacity="0"
     inkscape:pageshadow="2"
     inkscape:window-width="1920"
     inkscape:window-height="1012"
     id="namedview4"
     showgrid="false"
     fit-margin-top="5"
     fit-margin-left="5"
     fit-margin-right="5"
     fit-margin-bottom="5"
     inkscape:zoom="3.0158531"
     inkscape:cx="-68.602264"
     inkscape:cy="115.21605"
     inkscape:window-x="0"
     inkscape:window-y="32"
     inkscape:window-maximized="1"
     inkscape:current-layer="svg2" />
  <path
     style="fill:none;stroke:#000000;stroke-width:5.09945202;stroke-linecap:butt;stroke-linejoin:miter;stroke-miterlimit:4;stroke-dasharray:none;stroke-opacity:1"
     d="M 18.484154,195.41984 V 131.03467"
     id="path817"
     inkscape:connector-curvature="0" />
  <path
     style="fill:none;stroke:#000000;stroke-width:1px;stroke-linecap:butt;stroke-linejoin:miter;stroke-opacity:1"
     d="m 18.484154,131.03467 c -0.22965,-0.85391 -0.50421,-1.69699 -0.68895,-2.56173 -0.0656,-0.30722 0,-1.32958 0,-1.65791 0,-1.2158 0,-2.43159 0,-3.64739 0,-1.32633 0,-2.65265 0,-3.97897 0,-0.29888 -0.0696,-1.44921 0,-1.65791 0.0781,-0.23446 0.25342,-0.4287 0.33158,-0.66316 0.0699,-0.20971 -0.0989,-0.46545 0,-0.66316 0.0699,-0.13981 0.26167,-0.19178 0.33158,-0.33159 0.0989,-0.19771 -0.0699,-0.45345 0,-0.66316 0.0781,-0.23446 0.25342,-0.4287 0.33158,-0.66316 0.0981,-0.29426 -0.10856,-1.44078 0,-1.65791 0.0699,-0.1398 0.26168,-0.19177 0.33158,-0.33158 0.1042,-0.2084 -0.1042,-1.11792 0,-1.32632 0.0699,-0.13981 0.26168,-0.19178 0.33158,-0.33158 0.0494,-0.0989 0,-0.22106 0,-0.33158 0,-0.11053 0,-0.22106 0,-0.33159 0,-0.55263 0,-1.10527 0,-1.6579 0,-0.11053 -0.0494,-0.23272 0,-0.33158 0.0699,-0.13981 0.26168,-0.19178 0.33158,-0.33158 0.10421,-0.20841 -0.1042,-1.11792 0,-1.32633 0.0699,-0.1398 0.26168,-0.19177 0.33158,-0.33158 0.0505,-0.10091 0,-0.84541 0,-0.99474 0,-0.88422 0,-1.76844 0,-2.65265 0,-0.55264 0,-1.10527 0,-1.65791 0,-0.11052 0,-0.22105 0,-0.33158 0,-0.11053 0.0494,-0.23272 0,-0.33158 -0.0699,-0.13981 -0.26167,-0.19177 -0.33158,-0.33158 -0.0505,-0.10091 0,-0.84541 0,-0.99474 0,-0.66317 0,-1.32633 0,-1.98949 0,-1.43685 0,-2.8737 0,-4.31056 0,-1.10527 0,-2.21054 0,-3.31581 0,-0.17339 -0.0436,-1.23914 0,-1.32632 0.13981,-0.27962 0.52336,-0.38355 0.66316,-0.66316 0.0989,-0.19772 -0.0988,-0.46545 0,-0.66317 0.13981,-0.27961 0.52336,-0.38354 0.66317,-0.663158 0.0989,-0.197717 -0.0989,-0.465446 0,-0.663163 0.0699,-0.139807 0.26167,-0.191774 0.33158,-0.331581 0.0989,-0.197717 -0.0989,-0.465445 0,-0.663162 0.0699,-0.139807 0.26168,-0.191774 0.33158,-0.331581 0.0494,-0.09886 -0.0494,-0.232723 0,-0.331581 0.0699,-0.139807 0.26168,-0.191775 0.33158,-0.331582 0.0989,-0.197716 -0.0989,-0.465445 0,-0.663162 0.0699,-0.139807 0.26168,-0.191774 0.33158,-0.331581 0.0494,-0.09886 -0.0494,-0.232723 0,-0.331581 0.0699,-0.139807 0.26168,-0.191774 0.33158,-0.331581 0.06,-0.119911 0,-1.427278 0,-1.657906 0,-1.215797 0,-2.431595 0,-3.647393 0,-0.773689 0,-1.547378 0,-2.321067 0,-0.149331 0.0505,-0.893832 0,-0.994744 -0.0699,-0.139807 -0.26168,-0.191774 -0.33158,-0.331581 -0.0494,-0.09886 0.0494,-0.232723 0,-0.331581 -0.0699,-0.139807 -0.26168,-0.191774 -0.33158,-0.331581 -0.0494,-0.09886 0.0494,-0.232723 0,-0.331581 -0.0699,-0.139807 -0.26168,-0.191775 -0.33158,-0.331582 -0.0989,-0.197716 0.0989,-0.465445 0,-0.663162 -0.13981,-0.279614 -0.52336,-0.383548 -0.66316,-0.663162 -0.0494,-0.09886 0.035,-0.226726 0,-0.331581 -0.0782,-0.234464 -0.22106,-0.442108 -0.33158,-0.663163 -0.11053,-0.221054 -0.19449,-0.457524 -0.33159,-0.663162 -0.0867,-0.130057 -0.26167,-0.191774 -0.33158,-0.331581 -0.0989,-0.197717 0.0989,-0.465445 0,-0.663162 -0.75876,-1.517517 0.13743,1.407037 -0.66316,-0.994744 -0.0699,-0.20971 0.0989,-0.465445 0,-0.663162 -0.0699,-0.139807 -0.28215,-0.183293 -0.33158,-0.331581 -0.0699,-0.20971 0,-0.442108 0,-0.663162 0,-0.110527 0.0494,-0.232723 0,-0.331581 -0.0699,-0.139807 -0.26168,-0.191775 -0.33158,-0.331582 -0.0989,-0.197716 0.0989,-0.465445 0,-0.663162 -0.0699,-0.139807 -0.26168,-0.191774 -0.33158,-0.331581 -0.10421,-0.208406 0.1042,-1.117918 0,-1.326325 -0.0699,-0.139806 -0.28215,-0.183293 -0.33158,-0.331581 -0.0611,-0.18337 0,-1.655567 0,-1.989487 0,-0.221054 0.0699,-0.453452 0,-0.663162 -0.0494,-0.148287 -0.26168,-0.191774 -0.33158,-0.331581 -0.0738,-0.147546 0.0506,-1.174664 0,-1.326325 -0.0494,-0.148287 -0.26168,-0.191774 -0.33159,-0.331581 -0.0987,-0.197412 0.0931,-1.378737 0,-1.657905 -0.0781,-0.234464 -0.25342,-0.428699 -0.33158,-0.663163 -0.0699,-0.20971 0.0989,-0.465445 0,-0.663162 -0.1398,-0.279614 -0.5643,-0.366587 -0.66316,-0.663162 -0.0506,-0.151661 0.0738,-1.178779 0,-1.326325 -0.0699,-0.139807 -0.28215,-0.183293 -0.33158,-0.331581 -0.0699,-0.20971 0,-0.442108 0,-0.663162 0,-0.110527 0.0494,-0.232723 0,-0.331581 -0.13981,-0.279614 -0.5643,-0.366587 -0.66316,-0.663163 -0.0699,-0.20971 0,-0.442108 0,-0.663162 0,-0.110527 0.0494,-0.232723 0,-0.331581 -0.0699,-0.139807 -0.26168,-0.191774 -0.33158,-0.331581 -0.0494,-0.09886 0.035,-0.226726 0,-0.331581 -0.0782,-0.234464 -0.25343,-0.428699 -0.33158,-0.663163 -0.0699,-0.20971 0.12261,-0.479234 0,-0.663162 -0.17341,-0.260113 -0.52336,-0.383548 -0.66317,-0.663162 -0.13263,-0.265265 0.13264,-0.729479 0,-0.994744 -0.0699,-0.139806 -0.22105,-0.221054 -0.33158,-0.331581 0,-0.221054 0.0699,-0.453452 0,-0.663162 -0.0494,-0.148288 -0.26168,-0.191774 -0.33158,-0.331581 -0.0989,-0.197717 0.0989,-0.465446 0,-0.663162 -0.0699,-0.139807 -0.26168,-0.191775 -0.33158,-0.331582 -0.0989,-0.197716 0.0989,-0.465445 0,-0.663162 -0.0699,-0.139807 -0.26168,-0.191774 -0.33158,-0.331581 -0.0494,-0.09886 0.0494,-0.232723 0,-0.331581 -0.0699,-0.139807 -0.26168,-0.191774 -0.33158,-0.331581 -0.0989,-0.197717 0.0989,-0.465446 0,-0.663162 -0.40974,-0.819472 -0.33158,0.114454 -0.33158,-0.663163 0,-0.777617 0.0781,0.156309 -0.33159,-0.663162 -0.0988,-0.197717 0.0989,-0.465446 0,-0.663162 -0.0699,-0.139807 -0.26167,-0.191775 -0.33158,-0.331581 -0.0988,-0.197717 0.0989,-0.465446 0,-0.663163 -0.0699,-0.139807 -0.26167,-0.191774 -0.33158,-0.331581 -0.0989,-0.197717 0.0989,-0.465445 0,-0.663162 -0.0699,-0.139807 -0.26168,-0.191774 -0.33158,-0.331581 -0.0989,-0.197717 0.0989,-0.465446 0,-0.663163 -0.0699,-0.139806 -0.26168,-0.191774 -0.33158,-0.331581 -0.13263,-0.265265 0.13263,-0.729478 0,-0.994743 -0.0699,-0.139807 -0.26168,-0.191774 -0.33158,-0.331581 -0.10856,-0.217125 0.0981,-1.36365 0,-1.657906 -0.0782,-0.234463 -0.2534298,-0.428699 -0.3315798,-0.663162 -0.0696,-0.208697 0,-1.35903 0,-1.657906 0,-1.215797 0,-2.431595 0,-3.647392 0,-0.663163 0,-1.326325 0,-1.989487 0,-0.110527 0,-0.221054 0,-0.331581 0,-0.110527 -0.0494,-0.232723 0,-0.331582 0.0699,-0.139806 0.2616798,-0.191774 0.3315798,-0.331581 0.0494,-0.09886 -0.0494,-0.232722 0,-0.331581 0.0699,-0.139807 0.26168,-0.191774 0.33158,-0.331581 0.0494,-0.09886 -0.0494,-0.232723 0,-0.331581 0.0699,-0.139807 0.22105,-0.221054 0.33158,-0.331581 0.11053,-0.110527 0.19178,-0.261678 0.33158,-0.331581 0.0989,-0.04943 0.25343,0.07815 0.33158,0 0.0782,-0.07816 -0.0781,-0.253427 0,-0.331582 0.0782,-0.07815 0.23273,0.04943 0.33158,0 0.13981,-0.0699 0.19178,-0.261677 0.33159,-0.331581 0.0988,-0.04943 0.23272,0.04943 0.33158,0 1.37996,-0.68998 -0.35447,0.02289 0.33158,-0.663162 0.0781,-0.07815 0.23272,0.04943 0.33158,0 0.3979,-0.198949 0.59685,-0.795795 0.99474,-0.994743 0.0989,-0.04943 0.22106,0 0.33158,0"
     id="path821"
     inkscape:connector-curvature="0" />
  <path
     style="fill:none;stroke:#000000;stroke-width:1px;stroke-linecap:butt;stroke-linejoin:miter;stroke-opacity:1"
     d="m 13.153064,6.1194968 c -1.903,0.112592 -0.39698,1.125537 -0.66316,1.657906 -0.0699,0.139807 -0.26168,0.191774 -0.33158,0.331581 -0.0989,0.197717 0.0988,0.465445 0,0.663162 -0.13981,0.279614 -0.56431,0.366587 -0.66317,0.663162 -0.0699,0.209711 0.0699,0.453452 0,0.6631632 -0.0494,0.148287 -0.26167,0.191774 -0.33158,0.331581 -0.0494,0.09886 0.0494,0.232723 0,0.331581 -0.0699,0.139807 -0.26168,0.191774 -0.33158,0.331581 -0.0989,0.197717 0.0699,0.453452 0,0.663162 -0.0781,0.234464 -0.25343,0.428699 -0.33158,0.663163 -0.0699,0.20971 0.0989,0.465445 0,0.663162 -0.0699,0.139807 -0.26168,0.191774 -0.33158,0.331581 -0.0494,0.09886 0.0494,0.232723 0,0.331581 -0.0699,0.139807 -0.2616798,0.191775 -0.3315798,0.331581 -0.0494,0.09886 0.0494,0.232723 0,0.331582 -0.13981,0.279613 -0.52336,0.383548 -0.66316,0.663162 -0.0494,0.09886 0.0494,0.232723 0,0.331581 -0.0699,0.139807 -0.26168,0.191774 -0.33159,0.331581 -0.0988,0.197717 0.0989,0.465446 0,0.663162 -0.0699,0.139807 -0.26167,0.191775 -0.33158,0.331582 -0.0494,0.09886 0.0782,0.253426 0,0.331581 -0.0781,0.07815 -0.25342,-0.07815 -0.33158,0 -0.15631,0.156309 0.0989,0.465445 0,0.663162 -0.0699,0.139807 -0.26168,0.191774 -0.33158,0.331581 -0.10459,0.209184 0.10459,1.448721 0,1.657906 -0.0699,0.139807 -0.26168,0.191774 -0.33158,0.331581 -0.0494,0.09886 0,0.221054 0,0.331581 0,0.110527 0,0.221054 0,0.331581 0,0.663162 0,1.326325 0,1.989487 0,1.10527 0,2.210541 0,3.315811 0,0.173391 -0.0436,1.239139 0,1.326325 0.0699,0.139807 0.26168,0.191774 0.33158,0.331581 0.10749,0.214979 -0.10413,1.6771 0,1.989487 0.0782,0.234463 0.27164,0.423395 0.33158,0.663162 0.0731,0.292527 -0.0947,1.042273 0,1.326325 0.0782,0.234463 0.25343,0.428699 0.33158,0.663162 0.0981,0.294256 -0.10856,1.440781 0,1.657906 0.0699,0.139807 0.26168,0.191774 0.33158,0.331581 0.06,0.119911 0,1.427278 0,1.657906 0,0.110527 0.0782,0.253426 0,0.331581 -0.0781,0.07815 -0.25342,-0.07816 -0.33158,0 -0.0781,0.07815 0.0494,0.232722 0,0.331581 -0.1398,0.279614 -0.52335,0.383548 -0.66316,0.663162 -0.0989,0.197717 0.15631,0.506854 0,0.663162 -0.0781,0.07815 -0.25343,-0.07815 -0.33158,0 -0.15631,0.156309 0.0989,0.465446 0,0.663163 -0.0699,0.139807 -0.26168,0.191774 -0.33158,0.331581 -0.0494,0.09886 0.0494,0.232723 0,0.331581 -0.0699,0.139807 -0.26168,0.191774 -0.33158,0.331581 -0.0494,0.09886 0.0494,0.232723 0,0.331581 -0.0699,0.139807 -0.26168,0.191774 -0.33158,0.331581 -0.0494,0.09886 0.0494,0.232723 0,0.331582 -0.0699,0.139806 -0.26168,0.191774 -0.33158,0.331581 -0.10421,0.208406 0.1042,1.117918 0,1.326324 -0.0699,0.139807 -0.26168,0.191774 -0.33159,0.331581 -0.0494,0.09886 0.0494,0.232723 0,0.331581 -0.0699,0.139807 -0.26167,0.191775 -0.33158,0.331582 -0.06,0.11991 0,1.427277 0,1.657905 0,1.326325 0,2.652649 0,3.978974 0,0.884216 0,1.768433 0,2.652649 0,0.173391 -0.0436,1.239138 0,1.326325 0.0699,0.139807 0.22106,0.221054 0.33158,0.331581 0,0.221054 -0.0699,0.453452 0,0.663162 0.0989,0.296575 0.52336,0.383549 0.66317,0.663162 0.0988,0.197717 -0.0989,0.465446 0,0.663163 0.0699,0.139807 0.26167,0.191774 0.33158,0.331581 0.0494,0.09886 0,0.221054 0,0.331581 0.11052,0.221054 0.19449,0.457524 0.33158,0.663162 0.17341,0.260114 0.52335,0.383549 0.66316,0.663162 0.0494,0.09886 -0.0494,0.232723 0,0.331582 0.0699,0.139806 0.26168,0.191774 0.33158,0.331581 0.0494,0.09886 -0.0494,0.232722 0,0.331581 0.0699,0.139807 0.26168,0.191774 0.33158,0.331581 0.0494,0.09886 -0.0494,0.232723 0,0.331581 0.0699,0.139807 0.26168,0.191774 0.33158,0.331581 0.0494,0.09886 -0.0494,0.232723 0,0.331581 0.13981,0.279614 0.52336,0.383549 0.66317,0.663163 0.0494,0.09886 -0.0494,0.232722 0,0.331581 0.0699,0.139807 0.26167,0.191774 0.33158,0.331581 0.0989,0.197717 -0.0989,0.465445 0,0.663162 0.0699,0.139807 0.2616798,0.191775 0.3315798,0.331581 0.0494,0.09886 -0.0494,0.232723 0,0.331582 0.0699,0.139806 0.26168,0.191774 0.33158,0.331581 0.0494,0.09886 -0.0494,0.232722 0,0.331581 0.0699,0.139807 0.26168,0.191774 0.33158,0.331581 0.0494,0.09886 -0.0494,0.232723 0,0.331581 0.0699,0.139807 0.26168,0.191774 0.33158,0.331581 0.0989,0.197717 -0.0989,0.465446 0,0.663163 0.0699,0.139806 0.26168,0.191774 0.33158,0.331581 0.0989,0.197716 -0.0988,0.465445 0,0.663162 0.0699,0.139807 0.26168,0.191774 0.33158,0.331581 0.0494,0.09886 -0.0494,0.232723 0,0.331581 0.13981,0.279614 0.52336,0.383549 0.66317,0.663162 0.13263,0.265265 -0.13264,0.729479 0,0.994744 0.0699,0.139807 0.26167,0.191774 0.33158,0.331581 0.0494,0.09886 -0.0494,0.232723 0,0.331581 0.0699,0.139807 0.26168,0.191774 0.33158,0.331581 0.0989,0.197717 -0.0989,0.465446 0,0.663163 0.13981,0.279613 0.52335,0.383548 0.66316,0.663162 0.13263,0.265265 -0.13263,0.729478 0,0.994743 0.0699,0.139807 0.26168,0.191775 0.33158,0.331581 0.0429,0.08573 0,1.754462 0,1.989487 0,0.884217 0,1.768433 0,2.652649 0,0.110527 0,0.221054 0,0.331581 0,0.110528 0.0782,0.253427 0,0.331582 -0.0781,0.07815 -0.25342,-0.07815 -0.33158,0 -0.0781,0.07815 0,0.221054 0,0.331581 0,0.884216 0,1.768433 0,2.652649 0,0.15634 -0.015,1.642878 0,1.657906 0.0782,0.07815 0.25343,-0.07816 0.33158,0 0.0782,0.07815 -0.0781,0.253426 0,0.331581 0.15631,0.156309 0.50686,-0.156309 0.66317,0 0.0781,0.07815 -0.0494,0.232722 0,0.331581 0.0699,0.139807 0.22105,0.221054 0.33158,0.331581 0.11052,0.110527 0.19177,0.261678 0.33158,0.331581 0.0989,0.04943 0.25342,-0.07815 0.33158,0 0.16579,0.165791 -0.16579,0.828953 0,0.994744 0.0781,0.07815 0.25343,-0.07816 0.33158,0 0.16579,0.16579 -0.16579,0.828952 0,0.994743 0.0781,0.07815 0.25343,-0.07815 0.33158,0 0.0107,0.01066 0,0.914326 0,0.994743 0,2.32107 0,4.64214 0,6.9632 0,0.32126 -0.0659,1.79178 0,1.98949 0.0782,0.23446 0.25343,0.4287 0.33158,0.66316 0.0699,0.20971 -0.0989,0.46545 0,0.66317 0.13981,0.27961 0.52336,0.38354 0.66316,0.66316 0.0657,0.13147 -0.0678,0.92695 0,0.99474 0.0782,0.0782 0.25343,-0.0782 0.33159,0 0.1563,0.15631 -0.0989,0.46545 0,0.66316 0.0699,0.13981 0.26167,0.19178 0.33158,0.33158 0.0505,0.10092 0,0.84542 0,0.99475 0,0.88421 0,1.76843 0,2.65265 0,0.77369 0,1.54738 0,2.32107 0,0.14933 0.0505,0.89383 0,0.99474 -0.0699,0.13981 -0.26168,0.19177 -0.33158,0.33158 -0.0989,0.19772 0.0988,0.46545 0,0.66316 -0.40974,0.81947 -0.33159,-0.11445 -0.33159,0.66316 0,0.88422 0.11053,-0.11052 -0.33158,0.33159 -0.15631,0.1563 0.0989,0.46544 0,0.66316 -0.0699,0.1398 -0.26167,0.19177 -0.33158,0.33158 -0.0989,0.19772 0.0989,0.46544 0,0.66316 -0.0699,0.13981 -0.26168,0.19178 -0.33158,0.33158 -0.1042,0.20841 0.1042,1.11792 0,1.32633 -0.0699,0.1398 -0.26168,0.19177 -0.33158,0.33158 -0.0989,0.19771 0.0989,0.46544 0,0.66316 -0.0699,0.13981 -0.26168,0.19177 -0.33158,0.33158 -0.0436,0.0872 0,1.15294 0,1.32633 0,0.99474 0,1.98948 0,2.98423 0,1.32632 0,2.65265 0,3.97897 0,0.23063 -0.06,1.53799 0,1.65791 0.0699,0.1398 0.26168,0.19177 0.33158,0.33158 0.1042,0.2084 -0.1042,1.11792 0,1.32632 0.0699,0.13981 0.26168,0.19178 0.33158,0.33158 0.0989,0.19772 -0.0989,0.46545 0,0.66316 0.0699,0.13981 0.22105,0.22106 0.33158,0.33159 0.11053,0.11052 0.22106,0.22105 0.33158,0.33158 0.17457,0.17456 0.9062,0.81765 0.99475,0.99474 0.0494,0.0989 -0.0494,0.23272 0,0.33158 0.1398,0.27962 0.52335,0.38355 0.66316,0.66316 0.0494,0.0989 0,0.22106 0,0.33158 0,0.11053 0,0.22106 0,0.33159 0,0.55263 0,1.10527 0,1.6579 0,0.33158 0,0.66316 0,0.99475 0,0.11052 0.11053,0.33158 0,0.33158 -0.11053,0 -0.11053,-0.33158 0,-0.33158 0.15631,0 0.19177,0.26167 0.33158,0.33158 0.0989,0.0494 0.441,0.0156 0.33158,0 -0.32115,-0.0458 -0.64597,-0.0606 -0.96895,-0.0909"
     id="path823"
     inkscape:connector-curvature="0" />
  <path
     style="fill:none;stroke:#000000;stroke-width:1px;stroke-linecap:butt;stroke-linejoin:miter;stroke-opacity:1"
     d="m 21.442594,5.4563348 c -2.23546,1.00105 -0.72481,0.258256 -1.65791,1.657906 -0.17341,0.260113 -0.48975,0.403048 -0.66316,0.663162 -0.13709,0.205638 -0.25343,0.428699 -0.33158,0.663162 -0.035,0.104855 0.0613,0.239617 0,0.331581 -0.17341,0.260114 -0.48975,0.403049 -0.66316,0.663162 -0.0613,0.09197 0.035,0.226726 0,0.331582 -0.8006,2.4017802 0.0956,-0.522774 -0.66317,0.9947432 -0.0988,0.197717 0.0989,0.465446 0,0.663162 -0.0699,0.139807 -0.26167,0.191775 -0.33158,0.331581 -0.0494,0.09886 0,0.221055 0,0.331582 0,0.110527 0,0.221054 0,0.331581 0,0.552635 0,1.10527 0,1.657905 0,1.768433 0,3.536866 0,5.305299 0,2.321068 0,4.642136 0,6.963204 0,0.663162 0,1.326324 0,1.989486 0,0.14933 -0.0505,0.893832 0,0.994744 0.0699,0.139807 0.28215,0.183293 0.33158,0.331581 0.0699,0.20971 0,0.442108 0,0.663162 0,0.110527 -0.0494,0.232723 0,0.331581 0.0699,0.139807 0.26168,0.191775 0.33159,0.331581 0.1042,0.208407 -0.10421,1.117919 0,1.326325 0.0699,0.139807 0.26167,0.191774 0.33158,0.331581 0.1042,0.208406 -0.10421,1.117919 0,1.326325 0.0699,0.139807 0.26167,0.191774 0.33158,0.331581 0.13263,0.265265 -0.13263,0.729478 0,0.994743 0.0699,0.139807 0.26168,0.191775 0.33158,0.331581 0.0494,0.09886 -0.0494,0.232723 0,0.331582 0.0699,0.139806 0.26168,0.191774 0.33158,0.331581 0.1042,0.208406 -0.1042,1.117918 0,1.326324 0.0699,0.139807 0.26168,0.191775 0.33158,0.331581 0.0989,0.197717 -0.0989,0.465446 0,0.663163 0.0699,0.139807 0.26168,0.191774 0.33158,0.331581 0.10067,0.201343 -0.10067,1.788143 0,1.989487 0.0699,0.139807 0.26168,0.191774 0.33158,0.331581 0.0989,0.197717 -0.0989,0.465445 0,0.663162 0.0699,0.139807 0.28216,0.183294 0.33158,0.331581 0.10486,0.314566 0,0.663162 0,0.994744 0,0.663162 0,1.326324 0,1.989486 0,0.110528 0,0.221055 0,0.331582 0,0.110527 -0.0494,0.232722 0,0.331581 0.0699,0.139807 0.26168,0.191774 0.33159,0.331581 0.0436,0.08719 0,1.152934 0,1.326324 0,1.105271 0,2.210541 0,3.315812 0,1.215797 0,2.431595 0,3.647392 0,0.173391 0.0436,1.239138 0,1.326325 -0.0699,0.139807 -0.26168,0.191774 -0.33159,0.331581 -0.13263,0.265265 0.13264,0.729479 0,0.994743 -0.0699,0.139807 -0.26167,0.191775 -0.33158,0.331582 -0.1042,0.208406 0.10421,1.117918 0,1.326324 -0.0699,0.139807 -0.26167,0.191774 -0.33158,0.331581 -0.1042,0.208406 0.10421,1.117919 0,1.326325 -0.0699,0.139807 -0.26168,0.191774 -0.33158,0.331581 -0.0436,0.08719 0,1.152934 0,1.326325 0,0.994743 0,1.989486 0,2.98423 0,0.07879 0.0372,1.252007 0,1.326324 -0.0699,0.139807 -0.26168,0.191775 -0.33158,0.331581 -0.0494,0.09886 0,0.221055 0,0.331582 0,0.110527 0,0.221054 0,0.331581 0,0.552635 0,1.10527 0,1.657905 0,1.768433 0,3.536866 0,5.305299 0,0.230628 0.06,1.537995 0,1.657905 -0.0699,0.139807 -0.26168,0.191775 -0.33158,0.331581 -0.1042,0.208407 0.1042,1.117919 0,1.326325 -0.0699,0.139807 -0.26168,0.191774 -0.33158,0.331581 -0.10421,0.208406 0.1042,1.117919 0,1.326325 -0.0699,0.139807 -0.26168,0.191774 -0.33158,0.331581 -0.0494,0.09886 0,0.221054 0,0.331581 0,0.235025 0.0429,1.903756 0,1.989487 -0.0699,0.139807 -0.26168,0.191774 -0.33158,0.331581 -0.0989,0.197717 0.0988,0.465445 0,0.663162 -0.0699,0.139807 -0.26168,0.191775 -0.33159,0.331581 -0.13263,0.265265 0.13264,0.729479 0,0.994744 -0.0699,0.139807 -0.26167,0.191774 -0.33158,0.331581 -0.13263,0.265265 0.13264,0.729478 0,0.994743 -0.0699,0.139807 -0.26167,0.191775 -0.33158,0.331582 -0.0494,0.09886 0,0.221058 0,0.331578 0,0.11053 0,0.22106 0,0.33158 0,0.55264 0,1.10527 0,1.65791 0,0.11053 0.0494,0.23272 0,0.33158 -0.0699,0.13981 -0.26168,0.19177 -0.33158,0.33158 -0.0505,0.10091 0,0.84542 0,0.99475 0,0.66316 0,1.32632 0,1.98948 0,1.54738 0,3.09476 0,4.64214 0,1.54738 0,3.09476 0,4.64213 0,0.23503 -0.0429,1.90376 0,1.98949 0.0699,0.13981 0.26168,0.19177 0.33158,0.33158 0.10067,0.20135 -0.10067,1.78815 0,1.98949 0.0699,0.13981 0.26168,0.19177 0.33158,0.33158 0.10421,0.20841 -0.1042,1.11792 0,1.32632 0.0699,0.13981 0.26168,0.19178 0.33158,0.33159 0.0436,0.0872 0,1.15293 0,1.32632 0,0.66316 0,1.32632 0,1.98949 0,0.14933 -0.0504,0.89383 0,0.99474 0.0699,0.13981 0.26168,0.19177 0.33159,0.33158 0.10459,0.20919 -0.1046,1.44872 0,1.65791 0.0699,0.1398 0.26167,0.19177 0.33158,0.33158 0.13263,0.26526 -0.13264,0.72948 0,0.99474 0.0699,0.13981 0.26167,0.19178 0.33158,0.33158 0.0494,0.0989 -0.0494,0.23273 0,0.33158 0.0699,0.13981 0.28215,0.1833 0.33158,0.33159 0.0505,0.15166 -0.0738,1.17877 0,1.32632 0.0699,0.13981 0.26168,0.19177 0.33158,0.33158 0.1042,0.20841 -0.1042,1.11792 0,1.32633 0.0699,0.1398 0.26168,0.19177 0.33158,0.33158 0.13263,0.26526 -0.13263,0.72948 0,0.99474 0.0699,0.13981 0.26168,0.19177 0.33158,0.33158 0.0436,0.0872 0,1.15294 0,1.32633 0,1.21579 0,2.43159 0,3.64739 0,0.55263 0,1.10527 0,1.6579 0,0.22106 0,0.44211 0,0.66317 0,0.11052 0.11053,0.33158 0,0.33158 -0.11052,0 0,-0.44211 0,-0.33158 0,0.22105 0,0.4421 0,0.66316 0,0.11053 0.0494,0.23272 0,0.33158 -0.0885,0.17709 -0.82018,0.82018 -0.99474,0.99474 -0.11053,0.11053 -0.22106,0.44211 -0.33158,0.33158 -0.11053,-0.11052 0.32454,-0.48773 0.33158,-0.33158 0.0143,0.31773 -0.20386,0.60255 -0.30579,0.90383"
     id="path825"
     inkscape:connector-curvature="0" />
  <path
     style="fill:none;stroke:#000000;stroke-width:1px;stroke-linecap:butt;stroke-linejoin:miter;stroke-opacity:1"
     d="m 13.153064,6.1194968 c -0.44211,0.221054 -0.93089,0.366587 -1.32633,0.663162 -0.002,0.0015 0,0.919475 0,0.994744 0,1.215797 0,2.4315952 0,3.6473922 0,0.271466 -0.0716,1.443069 0,1.657906 0.0782,0.234463 0.25343,0.428699 0.33159,0.663162 0.10413,0.312388 -0.10749,1.774508 0,1.989487 0.0699,0.139807 0.26167,0.191774 0.33158,0.331581 0.10296,0.205923 -0.10624,1.777018 0,1.989487 0.0699,0.139807 0.26167,0.191774 0.33158,0.331581 0.13263,0.265265 -0.13263,0.729479 0,0.994744 0.0699,0.139807 0.26168,0.191774 0.33158,0.331581 0.10067,0.201343 -0.10067,1.788143 0,1.989487 0.0699,0.139807 0.26168,0.191774 0.33158,0.331581 0.0494,0.09886 0,0.221054 0,0.331581 0,0.110527 0,0.221054 0,0.331581 0,0.110527 0,0.442108 0,0.331581 0,-0.221054 0,-0.884216 0,-0.663162 0,0.884216 0,1.768433 0,2.652649 0,1.768433 0,3.536865 0,5.305298 0,1.768433 0,3.536866 0,5.305298 0,0.552636 0,1.105271 0,1.657906 0,0.110527 0,0.221054 0,0.331581 0,0.110527 -0.0494,0.232723 0,0.331581 0.0699,0.139807 0.26168,0.191775 0.33158,0.331582 0.0738,0.147546 -0.0505,1.174663 0,1.326324 0.0989,0.296575 0.52336,0.383549 0.66316,0.663162 0.10421,0.208407 -0.1042,1.117919 0,1.326325 0.0699,0.139807 0.26168,0.191774 0.33159,0.331581 0.13263,0.265265 -0.13264,0.729479 0,0.994743 0.0699,0.139807 0.26167,0.191775 0.33158,0.331582 0.10067,0.201343 -0.10068,1.788143 0,1.989486 0.0699,0.139807 0.26167,0.191775 0.33158,0.331582 0.0436,0.08719 0,1.152934 0,1.326324 0,1.436852 0,2.873703 0,4.310555 0,0.230628 -0.06,1.537995 0,1.657906 0.0699,0.139807 0.26168,0.191774 0.33158,0.331581 0.0436,0.08719 0,1.152934 0,1.326324 0,0.884217 0,1.768433 0,2.652649 0,1.215798 0,2.431595 0,3.647393 0,0.173391 0.0436,1.239138 0,1.326325 -0.0699,0.139806 -0.26168,0.191774 -0.33158,0.331581 -0.0989,0.197716 0.0989,0.465445 0,0.663162 -0.0699,0.139807 -0.26168,0.191774 -0.33158,0.331581 -0.0989,0.197717 0.0988,0.465446 0,0.663162 -0.0699,0.139807 -0.26168,0.191775 -0.33158,0.331582 -0.1046,0.209184 0.10459,1.448721 0,1.657905 -0.0699,0.139807 -0.26168,0.191774 -0.33159,0.331581 -0.0436,0.08719 0,1.152934 0,1.326325 0,0.884216 0,1.768433 0,2.652649 0,1.547379 0,3.094757 0,4.642136 0,0.350754 -0.0569,2.150246 0,2.321068 0.0494,0.148288 0.26168,0.191774 0.33159,0.331581 0.0494,0.09886 -0.0494,0.232723 0,0.331581 0.0699,0.139807 0.26167,0.191774 0.33158,0.331581 0.1042,0.208406 -0.10421,1.117919 0,1.326325 0.0699,0.139807 0.26167,0.191774 0.33158,0.331581 0.0494,0.09886 0,0.221054 0,0.331581 0,0.110527 0,0.221054 0,0.331581 0,0.552636 0,1.105271 0,1.657906 0,0.110527 0,0.221054 0,0.331581 0,0.110527 -0.0494,0.232723 0,0.331581 0.0699,0.139807 0.26168,0.191775 0.33158,0.331581 0.10067,0.201344 -0.10067,1.788144 0,1.989487 0.40973,0.819471 0.33158,-0.114454 0.33158,0.663163 0,0.235028 -0.0429,1.903758 0,1.989488 0.0699,0.13981 0.26168,0.19177 0.33158,0.33158 0.0505,0.10091 0,0.84541 0,0.99474 0,0.66317 0,1.32633 0,1.98949 0,0.99474 0,1.98949 0,2.98423 0,0.17339 0.0436,1.23914 0,1.32632 -0.0699,0.13981 -0.26168,0.19178 -0.33158,0.33159 -0.0494,0.0988 0.0781,0.25342 0,0.33158 -0.0781,0.0782 -0.25343,-0.0782 -0.33158,0 -0.15631,0.15631 0.0989,0.46544 0,0.66316 -0.0699,0.13981 -0.26168,0.19177 -0.33158,0.33158 -0.0494,0.0989 0.0781,0.25343 0,0.33158 -0.0782,0.0782 -0.25343,-0.0782 -0.33158,0 -0.15631,0.15631 0.0988,0.46545 0,0.66316 -0.0699,0.13981 -0.26168,0.19178 -0.33158,0.33158 -0.0505,0.10092 0,0.84542 0,0.99475 0,0.88421 0,1.76843 0,2.65265 0,0.77369 0,1.54738 0,2.32107 0,0.14933 0.0505,0.89383 0,0.99474 -0.0699,0.13981 -0.26168,0.19177 -0.33159,0.33158 -0.0504,0.10091 0,0.84541 0,0.99474 0,0.66317 0,1.32633 0,1.98949 0,0.77369 0,1.54738 0,2.32107 0,0.14933 -0.0504,0.89383 0,0.99474 0.0699,0.13981 0.26168,0.19178 0.33159,0.33158 0.1042,0.20841 -0.10421,1.11792 0,1.32633 0.0699,0.1398 0.26167,0.19177 0.33158,0.33158 0.0494,0.0989 0,0.22105 0,0.33158 0,0.22105 -0.0699,0.45345 0,0.66316 0.0494,0.14829 0.26167,0.19178 0.33158,0.33158 0.10459,0.20919 -0.10459,1.44872 0,1.65791 0.0699,0.13981 0.26168,0.19177 0.33158,0.33158 0.1042,0.20841 -0.1042,1.11792 0,1.32632 0.0699,0.13981 0.26168,0.19178 0.33158,0.33159 0.10856,0.21712 -0.0981,1.36365 0,1.6579 0.0781,0.23446 0.25343,0.4287 0.33158,0.66316 0.0699,0.20971 -0.0699,0.45346 0,0.66317 0.0782,0.23446 0.25343,0.42869 0.33158,0.66316 0.0699,0.20971 -0.0989,0.46544 0,0.66316 0.0699,0.13981 0.26168,0.19177 0.33158,0.33158 0.10067,0.20134 -0.10067,1.78814 0,1.98949 0.0699,0.13981 0.26168,0.19177 0.33158,0.33158 0.0494,0.0989 0,0.22105 0,0.33158 0,0.11053 0,0.22105 0,0.33158 0,0.55264 0,1.10527 0,1.65791 0,0.77761 -0.0781,-0.15631 0.33159,0.66316 0.0988,0.19772 -0.0989,0.46545 0,0.66316 0.0699,0.13981 0.22105,0.22106 0.33158,0.33158 0.11052,0.11053 0.19177,0.26168 0.33158,0.33158 0.0989,0.0494 0.25342,-0.0781 0.33158,0 0.15631,0.15631 -0.15631,0.50686 0,0.66317 0.0781,0.0781 0.43753,0.0315 0.33158,0 -0.20571,-0.0611 -0.42491,-0.0606 -0.63737,-0.0909"
     id="path827"
     inkscape:connector-curvature="0" />
  <path
     style="fill:none;stroke:#000000;stroke-width:1px;stroke-linecap:butt;stroke-linejoin:miter;stroke-opacity:1"
     d="m 21.442594,26.677528 c -0.44211,0.110527 -0.91872,0.127779 -1.32633,0.331581 -0.0989,0.04943 0.0782,0.253427 0,0.331581 -0.0782,0.07815 -0.23272,-0.04943 -0.33158,0 -0.27961,0.139807 -0.38355,0.523355 -0.66316,0.663162 -0.0989,0.04943 -0.23272,-0.04943 -0.33158,0 -0.21121,0.105604 -1.39736,1.39736 -1.65791,1.657906 -0.11052,0.110527 -0.22105,0.221054 -0.33158,0.331581 -0.11053,0.110527 -0.19177,0.261678 -0.33158,0.331581 -0.0989,0.04943 -0.23272,-0.04943 -0.33158,0 -0.088,0.04402 -0.95072,0.906705 -0.99474,0.994744 -0.0494,0.09886 0.0494,0.232722 0,0.331581 -0.0699,0.139807 -0.26168,0.191774 -0.33158,0.331581 -0.0494,0.09886 0.0494,0.232723 0,0.331581 -0.13981,0.279614 -0.52336,0.383549 -0.66317,0.663162 -0.0494,0.09886 0.0494,0.232723 0,0.331581 -0.0699,0.139807 -0.26167,0.191775 -0.33158,0.331582 -0.13263,0.265265 0.13263,0.729478 0,0.994743 -0.0699,0.139807 -0.26168,0.191774 -0.33158,0.331581 -0.0989,0.197717 0.0989,0.465446 0,0.663162 -0.0699,0.139807 -0.26168,0.191775 -0.33158,0.331582 -0.13263,0.265264 0.13263,0.729478 0,0.994743 -0.0699,0.139807 -0.26168,0.191774 -0.33158,0.331581 -0.13263,0.265265 0.13263,0.729479 0,0.994744 -0.0699,0.139806 -0.26168,0.191774 -0.33158,0.331581 -0.0494,0.09886 0,0.221054 0,0.331581 0,0.110527 0,0.221054 0,0.331581 0,0.663162 0,1.326325 0,1.989487 0,0.884216 0,1.768433 0,2.652649 0,0.14933 -0.0505,0.893832 0,0.994743 0.0699,0.139807 0.26167,0.191775 0.33158,0.331581 0.0494,0.09886 -0.0494,0.232723 0,0.331582 0.0699,0.139806 0.26168,0.191774 0.33158,0.331581 0.0989,0.197717 -0.0989,0.465445 0,0.663162 0.13981,0.279614 0.52335,0.383549 0.66316,0.663162 0.13263,0.265265 -0.13263,0.729479 0,0.994744 0.0699,0.139807 0.26168,0.191774 0.33158,0.331581 0.13264,0.265265 -0.13263,0.729478 0,0.994743 0.13981,0.279614 0.52336,0.383549 0.66317,0.663163 0.10459,0.209184 -0.1046,1.448721 0,1.657905 0.0699,0.139807 0.26167,0.191774 0.33158,0.331581 0.1042,0.208406 -0.10421,1.117919 0,1.326325 0.0699,0.139807 0.28215,0.183293 0.33158,0.331581 0.0505,0.151661 -0.0738,1.178779 0,1.326325 0.0699,0.139807 0.26168,0.191774 0.33158,0.331581 0.0494,0.09886 0,0.221054 0,0.331581 0,0.110527 0,0.221054 0,0.331581 0,0.237051 -0.0566,1.819754 0,1.989487 0.0494,0.148287 0.26168,0.191774 0.33158,0.331581 0.13263,0.265265 -0.13263,0.729479 0,0.994743 0.0699,0.139807 0.26168,0.191775 0.33158,0.331582 0.10459,0.209184 -0.10459,1.448721 0,1.657905 0.0699,0.139807 0.26168,0.191775 0.33158,0.331581 0.06,0.119911 0,1.427278 0,1.657906 0,0.663162 0,1.326325 0,1.989487 0,0.14933 0.0505,0.893832 0,0.994743 -0.0699,0.139807 -0.26168,0.191775 -0.33158,0.331581 -0.0989,0.197717 0.0989,0.465446 0,0.663163 -0.0699,0.139807 -0.26168,0.191774 -0.33158,0.331581 -0.0989,0.197717 0.0989,0.465445 0,0.663162 -0.0699,0.139807 -0.26168,0.191774 -0.33158,0.331581 -0.0505,0.100912 0,0.845414 0,0.994744 0,0.110527 0,0.221054 0,0.331581 0,0.110527 0.0494,0.232723 0,0.331581 -0.0699,0.139807 -0.28215,0.183294 -0.33158,0.331581 -0.0864,0.259228 0.0912,1.807017 0,1.989487 -0.0699,0.139807 -0.26168,0.191774 -0.33158,0.331581 -0.10421,0.208406 0.1042,1.117919 0,1.326325 -0.0699,0.139807 -0.26168,0.191774 -0.33158,0.331581 -0.0504,0.100812 0,1.09736 0,1.326324 0,1.105271 0,2.210541 0,3.315812 0,0.552635 0,1.10527 0,1.657905 0,0.110527 0,0.221055 0,0.331582 0,0.110527 -0.0494,0.232722 0,0.331581 0.0699,0.139807 0.22105,0.221054 0.33158,0.331581 0,0.221054 -0.0699,0.453452 0,0.663162 0.0494,0.148288 0.26167,0.191774 0.33158,0.331581 0.1042,0.208406 -0.10421,1.117919 0,1.326325 0.0699,0.139807 0.28215,0.183293 0.33158,0.331581 0.0699,0.20971 0,0.442108 0,0.663162 0,0.110527 -0.0494,0.232723 0,0.331581 0.13981,0.279614 0.52335,0.38355 0.66316,0.66316 0.10067,0.20135 -0.10067,1.78815 0,1.98949 0.0699,0.13981 0.26168,0.19177 0.33158,0.33158 0.0494,0.0989 0,0.22105 0,0.33158 0,0.11053 0,0.22106 0,0.33158 0,0.66317 0,1.32633 0,1.98949 0,0.14933 -0.0505,0.89383 0,0.99474 0.0699,0.13981 0.26168,0.19178 0.33158,0.33158 0.13264,0.26527 -0.13263,0.72948 0,0.99475 0.0699,0.1398 0.22106,0.22105 0.33158,0.33158 0,0.22105 -0.0699,0.45345 0,0.66316 0.0494,0.14829 0.26168,0.19178 0.33159,0.33158 0.1042,0.20841 -0.10421,1.11792 0,1.32633 0.1398,0.27961 0.5643,0.36658 0.66316,0.66316 0,1.50945 -0.15631,0.019 0.33158,0.99474 0.13263,0.26527 -0.13263,0.72948 0,0.99475 0.0699,0.1398 0.26168,0.19177 0.33158,0.33158 0.06,0.11991 0,1.42727 0,1.6579 0,0.88422 0,1.76844 0,2.65265 0,0.17339 0.0436,1.23914 0,1.32633 -0.0699,0.1398 -0.26168,0.19177 -0.33158,0.33158 -0.0436,0.0872 0,1.15293 0,1.32632 0,0.28074 0.0594,1.14807 0,1.32633 -0.0494,0.14828 -0.26168,0.19177 -0.33158,0.33158 -0.0989,0.19771 0.0989,0.46544 0,0.66316 -0.0699,0.13981 -0.26168,0.19177 -0.33158,0.33158 -0.0989,0.19772 0.0988,0.46545 0,0.66316 -0.0699,0.13981 -0.26168,0.19178 -0.33158,0.33158 -0.10624,0.21247 0.10296,1.78357 0,1.98949 -0.0699,0.13981 -0.26168,0.19178 -0.33159,0.33158 -0.0494,0.0989 0,0.22106 0,0.33158 0,0.11053 0,0.22106 0,0.33158 0,0.55264 0,1.10528 0,1.65791 0,1.65791 0,3.31581 0,4.97372 0,0.88421 0,1.76843 0,2.65265 0,0.17339 -0.0436,1.23913 0,1.32632 0.0699,0.13981 0.26168,0.19178 0.33159,0.33158 0.0494,0.0989 -0.0494,0.23273 0,0.33158 0.0699,0.13981 0.26167,0.19178 0.33158,0.33158 0.0988,0.19772 -0.15631,0.50686 0,0.66317 0.0781,0.0781 0.25342,-0.0782 0.33158,0 0.0678,0.0678 -0.0657,0.86327 0,0.99474 0.0699,0.13981 0.26168,0.19177 0.33158,0.33158 0.0505,0.10091 0,0.84541 0,0.99474 0,0.1734 -0.0436,1.23914 0,1.32633 0.0699,0.13981 0.26168,0.19177 0.33158,0.33158 0.0989,0.19772 -0.0989,0.46545 0,0.66316 0.0699,0.13981 0.26168,0.19178 0.33158,0.33158 0.0989,0.19772 -0.0989,0.46545 0,0.66317 0.0699,0.1398 0.26168,0.19177 0.33158,0.33158 0.0494,0.0989 -0.0494,0.23272 0,0.33158 0.0699,0.13981 0.46681,0.40998 0.33158,0.33158 -0.56526,-0.32774 -1.08807,-0.72376 -1.63211,-1.08564"
     id="path829"
     inkscape:connector-curvature="0" />
</svg>
