<?xml version="1.0" encoding="UTF-8" standalone="no"?>
<!-- Created with Inkscape (http://www.inkscape.org/) -->

<svg
   xmlns:dc="http://purl.org/dc/elements/1.1/"
   xmlns:cc="http://creativecommons.org/ns#"
   xmlns:rdf="http://www.w3.org/1999/02/22-rdf-syntax-ns#"
   xmlns:svg="http://www.w3.org/2000/svg"
   xmlns="http://www.w3.org/2000/svg"
   xmlns:sodipodi="http://sodipodi.sourceforge.net/DTD/sodipodi-0.dtd"
   xmlns:inkscape="http://www.inkscape.org/namespaces/inkscape"
   version="1.1"
   id="svg2"
   width="50.077526"
   height="194.48468"
   viewBox="0 0 50.077526 194.48468"
   sodipodi:docname="Figure-Angle-Forces-pattern-30.svg"
   inkscape:version="0.92.3 (2405546, 2018-03-11)">
  <metadata
     id="metadata8">
    <rdf:RDF>
      <cc:Work
         rdf:about="">
        <dc:format>image/svg+xml</dc:format>
        <dc:type
           rdf:resource="http://purl.org/dc/dcmitype/StillImage" />
        <dc:title></dc:title>
      </cc:Work>
    </rdf:RDF>
  </metadata>
  <defs
     id="defs6" />
  <sodipodi:namedview
     pagecolor="#ffffff"
     bordercolor="#666666"
     borderopacity="1"
     objecttolerance="10"
     gridtolerance="10"
     guidetolerance="10"
     inkscape:pageopacity="0"
     inkscape:pageshadow="2"
     inkscape:window-width="1920"
     inkscape:window-height="1012"
     id="namedview4"
     showgrid="false"
     fit-margin-top="5"
     fit-margin-left="5"
     fit-margin-right="5"
     fit-margin-bottom="5"
     inkscape:zoom="1.5644738"
     inkscape:cx="-34.642178"
     inkscape:cy="66.106525"
     inkscape:window-x="0"
     inkscape:window-y="32"
     inkscape:window-maximized="1"
     inkscape:current-layer="svg2" />
  <path
     style="fill:none;stroke:#000000;stroke-width:4.19999981;stroke-linecap:butt;stroke-linejoin:miter;stroke-miterlimit:4;stroke-dasharray:none;stroke-opacity:1"
     d="M 6.7336834,188.29963 43.343843,134.74031"
     id="path817"
     inkscape:connector-curvature="0" />
  <path
     style="fill:none;stroke:#000000;stroke-width:1px;stroke-linecap:butt;stroke-linejoin:miter;stroke-opacity:1"
     d="m 40.857973,133.83635 c -0.58208,-0.53709 -0.70598,-1.39794 -1.12994,-2.03389 -0.0591,-0.0886 -0.1669,-0.13735 -0.22599,-0.22599 -0.0934,-0.14016 -0.13256,-0.31183 -0.22599,-0.45198 -0.0591,-0.0886 -0.1669,-0.13735 -0.22599,-0.22599 -0.18687,-0.2803 -0.30132,-0.60264 -0.45198,-0.90395 -0.0753,-0.15066 -0.17272,-0.29218 -0.22599,-0.45198 -0.0476,-0.14293 0.10654,-0.34545 0,-0.45198 -0.0533,-0.0533 -0.15066,0 -0.22599,0 -0.0753,-0.15066 -0.17272,-0.29218 -0.22598,-0.45198 -0.0477,-0.14292 0.0674,-0.31722 0,-0.45197 -0.0477,-0.0953 -0.1923,-0.12493 -0.22599,-0.22599 -0.0477,-0.14293 0.10653,-0.34545 0,-0.45198 -0.10653,-0.10653 -0.31723,0.0674 -0.45198,0 -0.0674,-0.0337 0,-0.15066 0,-0.22599 0,-0.0753 -0.0753,-0.22599 0,-0.22599 0.0753,0 0.0674,0.25968 0,0.22599 -0.19057,-0.0953 -0.33379,-0.2747 -0.45198,-0.45198 -0.0656,-0.0984 0.0597,-0.55867 0,-0.67796 -0.0476,-0.0953 -0.17834,-0.13071 -0.22599,-0.22599 -0.0674,-0.13475 0.0674,-0.31722 0,-0.45198 -0.17306,-0.34612 -0.40271,-0.17672 -0.67796,-0.45198 -0.0745,-0.0745 0.0545,-0.74041 0,-0.90395 -0.0674,-0.20213 -0.35669,-0.26141 -0.45198,-0.45198 -0.0337,-0.0674 0.0337,-0.15861 0,-0.22599 -0.0476,-0.0953 -0.17835,-0.1307 -0.22599,-0.22598 -0.0337,-0.0674 0.0337,-0.15862 0,-0.22599 -0.0476,-0.0953 -0.17834,-0.13071 -0.22599,-0.22599 -0.0337,-0.0674 0.0337,-0.15861 0,-0.22599 -0.0476,-0.0953 -0.17834,-0.1307 -0.22599,-0.22599 -0.0337,-0.0674 0.0337,-0.15861 0,-0.22599 -0.0476,-0.0953 -0.17834,-0.1307 -0.22598,-0.22599 -0.0337,-0.0674 0.0337,-0.15861 0,-0.22599 -0.24151,-0.48301 -0.21047,0.0311 -0.45198,-0.45197 -0.0904,-0.18079 0.0904,-0.49718 0,-0.67797 -0.0953,-0.19057 -0.35669,-0.26141 -0.45198,-0.45198 -0.0337,-0.0674 0.0337,-0.15861 0,-0.22599 -0.0807,-0.16134 -0.3713,-0.29063 -0.45198,-0.45197 -0.0337,-0.0674 0.0337,-0.15861 0,-0.22599 -0.0953,-0.19057 -0.35669,-0.26141 -0.45197,-0.45198 -0.0337,-0.0674 0.0337,-0.15861 0,-0.22599 -0.1356,-0.27118 -0.54238,-0.40678 -0.67797,-0.67796 -0.0337,-0.0674 0.0533,-0.17273 0,-0.22599 -0.0533,-0.0533 -0.15861,0.0337 -0.22599,0 -0.19057,-0.0953 -0.26141,-0.35669 -0.45198,-0.45198 -0.0674,-0.0337 -0.15861,0.0337 -0.22598,0 -0.0953,-0.0476 -0.13071,-0.17835 -0.22599,-0.22599 -0.0674,-0.0337 -0.15862,0.0337 -0.22599,0 -0.0953,-0.0476 -0.13071,-0.17834 -0.22599,-0.22599 -0.0674,-0.0337 -0.17272,0.0533 -0.22599,0 -0.0533,-0.0533 0.0337,-0.15861 0,-0.22599 -0.0476,-0.0953 -0.15066,-0.15065 -0.22599,-0.22598 -0.0753,-0.0753 -0.1307,-0.17835 -0.22599,-0.22599 -0.0674,-0.0337 -0.15861,0.0337 -0.22599,0 -0.0953,-0.0477 -0.12492,-0.1923 -0.22598,-0.22599 -0.14293,-0.0476 -0.31723,0.0674 -0.45198,0 -0.0674,-0.0337 0.0337,-0.15861 0,-0.22599 -0.0476,-0.0953 -0.13071,-0.17835 -0.22599,-0.22599 -0.0674,-0.0337 -0.15861,0.0337 -0.22599,0 -0.10465,-0.0523 -0.77104,-0.77104 -0.90395,-0.90395 -0.0753,-0.0753 -0.13071,-0.17835 -0.22599,-0.22599 -0.0674,-0.0337 -0.17273,0.0533 -0.22599,0 -0.0533,-0.0533 0.0337,-0.15861 0,-0.22599 -0.0603,-0.1207 -0.55899,-0.55899 -0.67797,-0.67797 -0.45197,-0.45197 -0.90395,-0.90395 -1.35593,-1.35593 -0.0753,-0.0753 -0.15066,-0.15066 -0.22599,-0.22599 -0.0753,-0.0753 -0.1307,-0.17834 -0.22599,-0.22599 -0.0674,-0.0337 -0.15861,0.0337 -0.22599,0 -0.14394,-0.072 -0.95236,-0.95237 -1.12994,-1.12994 -0.30132,-0.30132 -0.60264,-0.60264 -0.90395,-0.90396 -0.0753,-0.0753 -0.15066,-0.15065 -0.22599,-0.22598 -0.0753,-0.0753 -0.13071,-0.17835 -0.22599,-0.22599 -0.0674,-0.0337 -0.15861,0.0337 -0.22599,0 -0.0433,-0.0216 -0.88233,-0.8607 -0.90395,-0.90396 -0.0337,-0.0674 0.0337,-0.15861 0,-0.22599 -0.0953,-0.19057 -0.3567,-0.2614 -0.45198,-0.45197 -0.0337,-0.0674 0.0337,-0.15862 0,-0.22599 -0.24,-0.48 -0.21198,0.028 -0.45198,-0.45198 -0.0337,-0.0674 0.0337,-0.15861 0,-0.22599 -0.13559,-0.27118 -0.54237,-0.40678 -0.67797,-0.67796 -0.0337,-0.0674 0.0337,-0.15862 0,-0.22599 -0.0476,-0.0953 -0.17834,-0.13071 -0.22598,-0.22599 -0.0337,-0.0674 0.0337,-0.15861 0,-0.22599 -0.0953,-0.19057 -0.3567,-0.26141 -0.45198,-0.45198 -0.0337,-0.0674 0.0337,-0.15861 0,-0.22599 -0.12076,-0.24151 -0.33122,-0.21046 -0.45198,-0.45197 -0.0674,-0.13476 0.0674,-0.31723 0,-0.45198 -0.0476,-0.0953 -0.16689,-0.13735 -0.22599,-0.22599 -0.0934,-0.14015 -0.13255,-0.31183 -0.22599,-0.45198 -0.0591,-0.0886 -0.17834,-0.1307 -0.22599,-0.22599 -0.0337,-0.0674 0.0337,-0.15861 0,-0.22598 -0.0476,-0.0953 -0.17834,-0.13071 -0.22598,-0.22599 -0.0674,-0.13476 0.0674,-0.31723 0,-0.45198 -0.0477,-0.0953 -0.17835,-0.1307 -0.22599,-0.22599 -0.0674,-0.13475 0.0674,-0.31722 0,-0.45198 -0.0476,-0.0953 -0.17835,-0.1307 -0.22599,-0.22599 -0.0713,-0.14256 0.0713,-0.98737 0,-1.12994 -0.0476,-0.0953 -0.17835,-0.1307 -0.22599,-0.22599 -0.0337,-0.0674 0,-0.15066 0,-0.22599 0,-0.0753 0,-0.15066 0,-0.22599 0,-0.23281 0.0334,-1.51521 0,-1.58192 -0.0476,-0.0953 -0.17835,-0.1307 -0.22599,-0.22598 -0.0503,-0.10056 0.0345,-0.8006 0,-0.90396 -0.0337,-0.10106 -0.17834,-0.1307 -0.22599,-0.22599 -0.071,-0.14204 0.071,-0.76191 0,-0.90395 -0.0476,-0.0953 -0.17834,-0.13071 -0.22599,-0.22599 -0.071,-0.14204 0.071,-0.76192 0,-0.90396 -0.0476,-0.0953 -0.17834,-0.1307 -0.22598,-0.22599 -0.0904,-0.18079 0.0904,-0.49717 0,-0.67796 -0.0477,-0.0953 -0.17835,-0.1307 -0.22599,-0.22599 -0.0674,-0.13475 0.0674,-0.31722 0,-0.45198 -0.0476,-0.0953 -0.17835,-0.1307 -0.22599,-0.22599 -0.0904,-0.18079 0.0904,-0.49717 0,-0.67796 -0.0476,-0.0953 -0.17835,-0.13071 -0.22599,-0.22599 -0.0292,-0.0584 0,-1.19575 0,-1.35593 0,-0.0753 0.0337,-0.15861 0,-0.22599 -0.0476,-0.0953 -0.17835,-0.13071 -0.22599,-0.22599 -0.0337,-0.0674 0.0337,-0.15861 0,-0.22599 -0.0476,-0.0953 -0.17835,-0.1307 -0.22599,-0.22599 -0.071,-0.14204 0.071,-0.76191 0,-0.90395 -0.0476,-0.0953 -0.17834,-0.13071 -0.22599,-0.22599 -0.071,-0.14204 0.071,-0.76192 0,-0.90396 -0.0476,-0.0953 -0.17834,-0.1307 -0.22599,-0.22598 -0.071,-0.14204 0.071,-0.76192 0,-0.90396 -0.0476,-0.0953 -0.17834,-0.1307 -0.22598,-0.22599 -0.0904,-0.180789 0.0904,-0.497173 0,-0.677964 -0.0477,-0.09528 -0.17835,-0.130704 -0.22599,-0.225989 -0.0337,-0.06738 0.0337,-0.158612 0,-0.225989 -0.0477,-0.09528 -0.17835,-0.130703 -0.22599,-0.225988 -0.12038,-0.240753 0.12037,-0.211225 0,-0.451978 -0.0476,-0.09529 -0.17835,-0.130703 -0.22599,-0.225988 -0.0904,-0.180791 0.0904,-0.497176 0,-0.677967 -0.0953,-0.19057 -0.35669,-0.261406 -0.45198,-0.451977 -0.0674,-0.134754 0.0674,-0.317224 0,-0.451977 -0.0476,-0.09529 -0.17834,-0.130704 -0.22599,-0.225989 -0.0674,-0.134754 0.0674,-0.317224 0,-0.451977 -0.0476,-0.09529 -0.17834,-0.130704 -0.22599,-0.225989 -0.0904,-0.180791 0.0904,-0.497175 0,-0.677966 -0.0476,-0.09528 -0.17834,-0.130704 -0.22598,-0.225989 -0.071,-0.142039 0.071,-0.761916 0,-0.903955 -0.0477,-0.09529 -0.17835,-0.130703 -0.22599,-0.225988 -0.0904,-0.180791 0.0904,-0.497175 0,-0.677966 -0.0477,-0.09529 -0.1923,-0.124924 -0.22599,-0.225989 -0.0345,-0.103364 0.0503,-0.803395 0,-0.903955 -0.0476,-0.09529 -0.1923,-0.124923 -0.22599,-0.225989 -0.0345,-0.103364 0.0503,-0.803395 0,-0.903954 -0.0476,-0.09529 -0.1923,-0.124924 -0.22599,-0.225989 -0.0344,-0.103364 0.0503,-0.803395 0,-0.903955 -0.0476,-0.09529 -0.17834,-0.130703 -0.22599,-0.225989 -0.071,-0.142038 0.071,-0.761915 0,-0.903954 -0.0476,-0.09529 -0.17834,-0.130704 -0.22599,-0.225989 -0.0337,-0.06738 0,-0.150659 0,-0.225989 0,-0.07533 0,-0.150659 0,-0.225988 0,-0.376648 0,-0.753296 0,-1.129944 0,-0.07533 0.0337,-0.158612 0,-0.225989 -0.0476,-0.09529 -0.17834,-0.130703 -0.22598,-0.225988 -0.0409,-0.08172 0,-0.97276 0,-1.129944 0,-0.828625 0,-1.65725 0,-2.485875 0,-0.451978 0,-0.903955 0,-1.355933 0,-0.101775 -0.0344,-0.60919 0,-0.677966 0.0476,-0.09529 0.17834,-0.130703 0.22598,-0.225988 0.0337,-0.06738 -0.0337,-0.158612 0,-0.225989 0.0477,-0.09529 0.17835,-0.130704 0.22599,-0.225989 0.0337,-0.06738 -0.0337,-0.158612 0,-0.225988 0.0477,-0.09529 0.17835,-0.130704 0.22599,-0.225989 0.0337,-0.06738 -0.0337,-0.158612 0,-0.225989 0.0476,-0.09528 0.17835,-0.130703 0.22599,-0.225989 0.0337,-0.06738 -0.0337,-0.158611 0,-0.225988 0.0953,-0.190571 0.35669,-0.261407 0.45198,-0.451978 0.0337,-0.06738 -0.0337,-0.158611 0,-0.225988 0.0476,-0.09529 0.17834,-0.130704 0.22599,-0.225989 0.0337,-0.06738 -0.0337,-0.158612 0,-0.225989 0.0476,-0.09529 0.17834,-0.130703 0.22598,-0.225988 0.0337,-0.06738 -0.0337,-0.158612 0,-0.225989 0.0477,-0.09529 0.17835,-0.130704 0.22599,-0.225989 0.0674,-0.134753 -0.0674,-0.317224 0,-0.451977 0.0477,-0.09529 0.17835,-0.130704 0.22599,-0.225989 0.0674,-0.134753 -0.0674,-0.317224 0,-0.451977 0.0476,-0.09529 0.17835,-0.130704 0.22599,-0.225989 0.0674,-0.134754 -0.0674,-0.317224 0,-0.451977 0.0476,-0.09529 0.17835,-0.130704 0.22599,-0.225989 0.0337,-0.06738 -0.0337,-0.158612 0,-0.225989 0.0476,-0.09528 0.17835,-0.130703 0.22599,-0.225988 0.0674,-0.134754 -0.0674,-0.317224 0,-0.451978 0.0953,-0.19057 0.35669,-0.261407 0.45198,-0.451977 0.0337,-0.06738 -0.0337,-0.158612 0,-0.225989 0.0476,-0.09529 0.17834,-0.130703 0.22598,-0.225989 0.0337,-0.06738 -0.0337,-0.158611 0,-0.225988 0.0477,-0.09529 0.17835,-0.130704 0.22599,-0.225989 0.0337,-0.06738 -0.0337,-0.158612 0,-0.225989 0.0476,-0.09529 0.17835,-0.130703 0.22599,-0.225988 0.0674,-0.134754 -0.0674,-0.317224 0,-0.451978 0.0476,-0.09529 0.17835,-0.130703 0.22599,-0.225988 0.0337,-0.06738 -0.0337,-0.158612 0,-0.225989 0.0476,-0.09528 0.17835,-0.130704 0.22599,-0.225989 0.0337,-0.06738 -0.0337,-0.158612 0,-0.225989 0.0476,-0.09528 0.17835,-0.130703 0.22599,-0.225988 0.0337,-0.06738 -0.0337,-0.158612 0,-0.225989 0.74951,-0.74951 -0.10653,0.213064 0.22599,-0.451977 0.0476,-0.09529 0.17834,-0.130704 0.22599,-0.225989 0.0337,-0.06738 -0.0337,-0.158612 0,-0.225989 0.0476,-0.09529 0.17834,-0.130703 0.22598,-0.225988 0.0674,-0.134754 -0.0674,-0.317224 0,-0.451978 0.0477,-0.09529 0.17835,-0.130703 0.22599,-0.225989 0.0904,-0.18079 -0.0904,-0.497175 0,-0.677966 0.0477,-0.09529 0.17835,-0.130703 0.22599,-0.225988 0.0904,-0.180791 -0.0904,-0.497175 0,-0.677966 0.0476,-0.09529 0.17835,-0.130704 0.22599,-0.225989 0.0344,-0.06878 0,-0.57619 0,-0.677966 0,-0.527307 0,-1.054614 0,-1.581921 0,-1.355932 0,-2.711864 0,-4.067797 0,-0.527307 0,-1.054613 0,-1.58192 0,-0.101776 -0.0344,-0.60919 0,-0.677967 0.0476,-0.09528 0.17835,-0.130703 0.22599,-0.225988 0.0337,-0.06738 0,-0.150659 0,-0.225989 0,-0.07533 0,-0.150659 0,-0.225989 0,-0.376647 0,-0.753295 0,-1.129943 0,-0.07533 -0.0337,-0.158612 0,-0.225989 0.0476,-0.09528 0.17834,-0.130703 0.22599,-0.225988 0.0344,-0.06878 0,-0.576191 0,-0.677967 0,-0.451977 0,-0.903954 0,-1.355932 0,-1.205273 0,-2.410546 0,-3.615819 0,-0.903955 0,-1.807909 0,-2.711864 0,-0.201971 0.036,-1.057927 0,-1.129944 -0.0953,-0.19057 -0.3846,-0.249847 -0.45198,-0.451977 -0.0476,-0.142928 0,-0.301318 0,-0.451977 0,-0.07533 0.0337,-0.158612 0,-0.225989 -0.0476,-0.09528 -0.15066,-0.150659 -0.22599,-0.225989 -0.25856,-0.258565 -0.31516,-0.267519 -0.45198,-0.677966 -0.0476,-0.142928 0.0674,-0.317224 0,-0.451977 -0.0953,-0.190571 -0.35669,-0.261407 -0.45197,-0.451978 -0.0904,-0.180791 0.0904,-0.497175 0,-0.677966 -0.0953,-0.19057 -0.3567,-0.261407 -0.45198,-0.451977 -0.0904,-0.180791 0.0904,-0.497175 0,-0.677966 -0.0476,-0.09528 -0.17835,-0.130704 -0.22599,-0.225989 -0.0674,-0.134754 0.0674,-0.317224 0,-0.451977 -0.0476,-0.09529 -0.17835,-0.130704 -0.22599,-0.225989 -0.0337,-0.06738 0.0337,-0.158612 0,-0.225989 -0.0476,-0.09529 -0.17834,-0.130703 -0.22599,-0.225988 -0.0904,-0.180791 0.0904,-0.497176 0,-0.677967 -0.47025,-0.94051 0.0156,0.24159 -0.45197,-0.225988 -0.0462,-0.0462 0.0448,-0.588364 0,-0.677966 -0.0477,-0.09529 -0.17835,-0.130704 -0.22599,-0.225989 -0.0337,-0.06738 0.0337,-0.158612 0,-0.225989 -0.0477,-0.09529 -0.17835,-0.130703 -0.22599,-0.225988 -0.0337,-0.06738 0.0337,-0.158612 0,-0.225989 -0.0476,-0.09529 -0.17835,-0.130704 -0.22599,-0.225989 -0.0674,-0.134753 0.0674,-0.317224 0,-0.451977 -0.0476,-0.09528 -0.17835,-0.130704 -0.22599,-0.225989 -0.0337,-0.06738 0.0337,-0.158612 0,-0.225989 -0.0476,-0.09529 -0.17835,-0.130703 -0.22599,-0.225988 -0.0674,-0.134754 0.0674,-0.317224 0,-0.451978 -0.0476,-0.09528 -0.17834,-0.130703 -0.22599,-0.225988 -0.0904,-0.180791 0.0904,-0.497175 0,-0.677966 -0.0476,-0.09529 -0.17834,-0.130704 -0.22599,-0.225989 -0.0674,-0.134754 0.0674,-0.317224 0,-0.451978 -0.0476,-0.09529 -0.17834,-0.130703 -0.22598,-0.225988 -0.0674,-0.134754 0.0674,-0.317224 0,-0.451978 -0.0953,-0.19057 -0.3567,-0.261407 -0.45198,-0.451977 -0.0674,-0.134754 0.0674,-0.317224 0,-0.451977 -0.74951,-0.749511 0.10653,0.213064 -0.22599,-0.451978 -0.0476,-0.09529 -0.1923,-0.124923 -0.22599,-0.225988 -0.0476,-0.142928 0,-0.301319 0,-0.451978 0,-0.07533 0.0337,-0.158612 0,-0.225989 -0.0953,-0.19057 -0.3846,-0.249847 -0.45198,-0.451977 -0.0344,-0.103364 0.0503,-0.803395 0,-0.903955 -0.0476,-0.09529 -0.17834,-0.130703 -0.22598,-0.225988 -0.071,-0.142039 0.071,-0.761916 0,-0.903955 -0.0477,-0.09528 -0.17835,-0.130704 -0.22599,-0.225989 -0.0344,-0.06878 0,-0.57619 0,-0.677966 0,-0.527307 0,-1.054614 0,-1.581921 0,-1.73258 0,-3.4651599 0,-5.1977399"
     id="path821"
     inkscape:connector-curvature="0" />
  <path
     style="fill:none;stroke:#000000;stroke-width:1px;stroke-linecap:butt;stroke-linejoin:miter;stroke-opacity:1"
     d="m 17.129163,5.2487861 c 0.35846,0.624907 0.85884,1.084828 1.35593,1.581921 0.11897,0.118975 0.55727,0.617618 0.67796,0.677966 0.0674,0.03369 0.15862,-0.03369 0.22599,0 0.0953,0.04764 0.15066,0.150659 0.22599,0.225989 0.0753,0.07533 0.17835,0.130703 0.22599,0.225989 0.0337,0.06738 -0.0337,0.158612 0,0.225988 0.0476,0.09529 0.15066,0.150659 0.22599,0.225989 0.0753,0.07533 0.15066,0.150659 0.22599,0.225989 0.0753,0.07533 0.1307,0.178346 0.22599,0.225988 0.31172,0.15586 0.20214,-0.273684 0.45197,0.225989 0.0337,0.06738 0,0.150659 0,0.225989 0.0753,0.07533 0.17835,0.130703 0.22599,0.225988 0.0674,0.134754 -0.0674,0.317224 0,0.451978 0.0476,0.09529 0.17835,0.1307029 0.22599,0.2259889 0.0674,0.134753 -0.0674,0.317223 0,0.451977 0.11788,0.23576 0.54657,0.357387 0.45198,0.451977 -0.0753,0.07533 -0.22599,-0.33252 -0.22599,-0.225988 0,0.545643 0.27994,0.333895 0.45198,0.677966 0.0337,0.06738 -0.0337,0.158612 0,0.225988 0.0953,0.190571 0.35669,0.261407 0.45197,0.451978 0.0448,0.0896 -0.0462,0.631766 0,0.677966 0.0533,0.05327 0.17273,-0.05327 0.22599,0 0.10654,0.106532 -0.0674,0.317224 0,0.451977 0.47026,0.940511 -0.0156,-0.24159 0.45198,0.225989 0.0544,0.05438 -0.0544,0.849575 0,0.903955 0.0533,0.05327 0.17272,-0.05327 0.22599,0 0.0462,0.0462 -0.0448,0.588363 0,0.677966 0.0476,0.09529 0.17835,0.130703 0.22599,0.225989 0.0409,0.08173 0,0.972759 0,1.129943 0,0.677966 0,1.355932 0,2.033898 0,0.118174 -0.0297,0.844533 0,0.903955 0.0476,0.09528 0.17834,0.130704 0.22599,0.225989 0.0292,0.05843 0,1.195751 0,1.355932 0,1.054614 0,2.109228 0,3.163842 0,0.160181 -0.0292,1.297502 0,1.355932 0.0476,0.09528 0.17834,0.130703 0.22599,0.225989 0.0674,0.134753 -0.0674,0.317223 0,0.451977 0.0953,0.19057 0.35669,0.261407 0.45197,0.451977 0.0337,0.06738 -0.0337,0.158612 0,0.225989 0.0953,0.19057 0.3567,0.261407 0.45198,0.451977 0.0337,0.06738 -0.0337,0.158612 0,0.225989 0.0476,0.09528 0.15066,0.150659 0.22599,0.225989 0.0753,0.07533 0.1307,0.178346 0.22599,0.225989 0.66504,0.33252 -0.29754,-0.523522 0.45198,0.225988 0.17757,0.177575 0.98599,1.057969 1.12994,1.129944 0.0674,0.03369 0.15861,-0.03369 0.22599,0 0.0953,0.04764 0.15066,0.150659 0.22599,0.225988 0.0753,0.07533 0.15066,0.15066 0.22598,0.225989 0.30132,0.301318 0.60264,0.602637 0.90396,0.903955 0.11897,0.118975 0.61762,0.557269 0.67797,0.677966 0.0337,0.06738 -0.0337,0.158612 0,0.225989 0.0476,0.09528 0.17834,0.130703 0.22598,0.225988 0.0904,0.180791 -0.0904,0.497175 0,0.677966 0.0477,0.09529 0.17835,0.130704 0.22599,0.225989 0.0344,0.06878 0,0.57619 0,0.677966 0,0.602637 0,1.205273 0,1.80791 0,1.280602 0,2.561205 0,3.841808 0,0.376647 0,0.753295 0,1.129943 0,0.07533 0,0.150659 0,0.225989 0,0.07533 0.0337,0.158612 0,0.225988 -0.0476,0.09529 -0.17834,0.130704 -0.22599,0.225989 -0.0297,0.05942 0,0.785781 0,0.903955 0,0.828625 0,1.65725 0,2.485876 0,0.451977 0,0.903954 0,1.355932 0,0.101775 -0.0344,0.60919 0,0.677966 0.47026,0.940511 -0.0156,-0.24159 0.45198,0.225989 0.0462,0.0462 -0.0448,0.588363 0,0.677966 0.0476,0.09529 0.17835,0.130703 0.22599,0.225988 0.0337,0.06738 -0.0337,0.158612 0,0.225989 0.0953,0.19057 0.35669,0.261407 0.45198,0.451977 0.0337,0.06738 -0.0337,0.158612 0,0.225989 0.0476,0.09528 0.17834,0.130704 0.22599,0.225989 0.0337,0.06738 -0.0533,0.172722 0,0.225988 0.46757,0.467579 -0.0183,-0.714522 0.45197,0.225989 0.0337,0.06738 -0.0337,0.158612 0,0.225989 0.0477,0.09529 0.17835,0.130703 0.22599,0.225989 0.0337,0.06738 -0.0337,0.158611 0,0.225988 0.0953,0.190571 0.35669,0.261407 0.45198,0.451978 0.0337,0.06738 -0.0337,0.158612 0,0.225988 0.0476,0.09529 0.17835,0.130704 0.22599,0.225989 0.0674,0.134754 -0.0674,0.317224 0,0.451977 0.0476,0.09529 0.17834,0.130704 0.22599,0.225989 0.0674,0.134754 -0.0674,0.317224 0,0.451978 0.0476,0.09529 0.17834,0.130703 0.22599,0.225988 0.071,0.142039 -0.071,0.761916 0,0.903955 0.0476,0.09528 0.17834,0.130704 0.22598,0.225989 0.071,0.142039 -0.071,0.761916 0,0.903954 0.0477,0.09529 0.17835,0.130704 0.22599,0.225989 0.0297,0.05942 0,0.785781 0,0.903955 0,0.828625 0,1.65725 0,2.485876 0,0.753295 0,1.506591 0,2.259887 0,0.118174 0.0297,0.844533 0,0.903954 -0.0476,0.09529 -0.17834,0.130704 -0.22599,0.225989 -0.0337,0.06738 0.0337,0.158612 0,0.225989 -0.13559,0.271186 -0.54237,0.406779 -0.67796,0.677966 -0.0674,0.134753 0.0674,0.317224 0,0.451977 -0.20803,0.416049 -0.46994,0.03593 -0.67797,0.451978 -0.0337,0.06738 0.0337,0.158611 0,0.225988 -0.0476,0.09529 -0.17834,0.130704 -0.22599,0.225989 -0.0337,0.06738 0.0533,0.172723 0,0.225989 -0.0533,0.05327 -0.17272,-0.05327 -0.22598,0 -0.0533,0.05327 0.0337,0.158612 0,0.225988 -0.0953,0.190571 -0.3567,0.261407 -0.45198,0.451978 -0.0674,0.134753 0.0674,0.317224 0,0.451977 -0.1356,0.271187 -0.54238,0.40678 -0.67797,0.677966 -0.0337,0.06738 0.0337,0.158612 0,0.225989 -0.0476,0.09528 -0.17834,0.130703 -0.22599,0.225989 -0.0674,0.134753 0.0674,0.317223 0,0.451977 -0.74951,0.74951 0.10653,-0.213064 -0.22599,0.451977 -0.0476,0.09529 -0.17834,0.130704 -0.22598,0.225989 -0.0674,0.134754 0.0674,0.317224 0,0.451978 -0.0477,0.09529 -0.17835,0.130703 -0.22599,0.225988 -0.0337,0.06738 0.0337,0.158612 0,0.225989 -0.0477,0.09529 -0.17835,0.130703 -0.22599,0.225989 -0.071,0.142039 0.071,0.761915 0,0.903954 -0.0476,0.09529 -0.17835,0.130704 -0.22599,0.225989 -0.0297,0.05942 0,0.785781 0,0.903955 0,0.602636 0,1.205273 0,1.807909 0,1.129944 0,2.259887 0,3.389831 0,0.376648 0,0.753296 0,1.129943 0,0.07533 0,0.150659 0,0.225989 0,0.07533 -0.0337,0.158612 0,0.225989 0.0476,0.09529 0.17835,0.130703 0.22599,0.225988 0.0503,0.10056 -0.0345,0.800591 0,0.903955 0.0337,0.101065 0.17834,0.130704 0.22599,0.225989 0.071,0.142039 -0.071,0.761916 0,0.903955 0.0476,0.09529 0.17834,0.130703 0.22599,0.225988 0.0503,0.10056 -0.0345,0.800591 0,0.903955 0.0337,0.101065 0.17834,0.130704 0.22598,0.225989 0.0344,0.06878 0,0.57619 0,0.677966 0,0.527307 0,1.054614 0,1.581921 0,0.451977 0,0.903955 0,1.355932 0,0.07533 0,0.150659 0,0.225989 0,0.07533 0.0337,0.158612 0,0.225988 -0.0476,0.09529 -0.17834,0.130704 -0.22598,0.225989 -0.0337,0.06738 0.0337,0.158612 0,0.225989 -0.0477,0.09529 -0.17835,0.130703 -0.22599,0.225988 -0.0904,0.180791 0.0904,0.497176 0,0.677966 -0.0477,0.0953 -0.17835,0.1307 -0.22599,0.22599 -0.0337,0.0674 0.0337,0.15861 0,0.22599 -0.11119,0.22238 -0.79277,0.68157 -0.90396,0.90395 -0.0337,0.0674 0,0.15066 0,0.22599 -0.0753,0.0753 -0.17834,0.1307 -0.22599,0.22599 -0.0337,0.0674 0.0337,0.15861 0,0.22599 -0.0476,0.0953 -0.15065,0.15066 -0.22598,0.22599 -0.0753,0.0753 -0.17835,0.1307 -0.22599,0.22599 -0.0337,0.0674 0.0337,0.15861 0,0.22598 -0.48,0.96 0.028,-0.50802 -0.45198,0.45198 -0.0674,0.13476 0.0674,0.31723 0,0.45198 -0.0476,0.0953 -0.17835,0.1307 -0.22599,0.22599 -0.0337,0.0674 0.0337,0.15861 0,0.22599 -0.0476,0.0953 -0.17834,0.1307 -0.22599,0.22599 -0.0337,0.0674 0.0337,0.15861 0,0.22598 -0.0476,0.0953 -0.17834,0.13071 -0.22599,0.22599 -0.0337,0.0674 0.0337,0.15862 0,0.22599 -0.0476,0.0953 -0.17834,0.13071 -0.22598,0.22599 -0.0337,0.0674 0,0.15066 0,0.22599 0,0.0753 0.0337,0.15861 0,0.22599 -0.0477,0.0953 -0.17835,0.1307 -0.22599,0.22599 -0.0674,0.13475 0.0674,0.31722 0,0.45197 -0.0477,0.0953 -0.17835,0.13071 -0.22599,0.22599 -0.0667,0.13334 0.0518,0.52253 0,0.67797 -0.0533,0.1598 -0.17272,0.29218 -0.22599,0.45198 -0.0449,0.13475 0,1.13698 0,1.35593 0,0.0753 0.0337,0.15861 0,0.22599 -0.0476,0.0953 -0.17835,0.1307 -0.22599,0.22599 -0.0904,0.18079 0.0904,0.49717 0,0.67796 -0.0476,0.0953 -0.17835,0.13071 -0.22599,0.22599 -0.071,0.14204 0.071,0.76192 0,0.90396 -0.0476,0.0953 -0.17834,0.1307 -0.22599,0.22598 -0.071,0.14204 0.071,0.76192 0,0.90396 -0.0476,0.0953 -0.17834,0.1307 -0.22599,0.22599 -0.0344,0.0688 0,0.57619 0,0.67796 0,0.52731 0,1.05462 0,1.58192 0,1.20528 0,2.41055 0,3.61582 0,0.10178 -0.0344,0.60919 0,0.67797 0.0477,0.0953 0.1923,0.12492 0.22599,0.22599 0.0417,0.12497 0,1.12835 0,1.35593 0,0.0753 -0.0337,0.15861 0,0.22599 0.0477,0.0953 0.17835,0.1307 0.22599,0.22599 0.0503,0.10056 -0.0344,0.80059 0,0.90395 0.0337,0.10107 0.1923,0.12493 0.22599,0.22599 0.0476,0.14293 0,0.30132 0,0.45198 0,0.0753 -0.0337,0.15861 0,0.22599 0.0476,0.0953 0.1669,0.13735 0.22599,0.22599 0.49789,0.1138 0.11946,0.4649 0.22599,0.67796 0.0476,0.0953 0.17834,0.13071 0.22599,0.22599 0.0337,0.0674 -0.0337,0.15861 0,0.22599 0.0476,0.0953 0.17834,0.1307 0.22599,0.22599 0.0337,0.0674 -0.0337,0.15861 0,0.22599 0.0476,0.0953 0.17834,0.1307 0.22598,0.22599 0.0337,0.0674 -0.0337,0.15861 0,0.22598 0.0953,0.19057 0.3567,0.26141 0.45198,0.45198 0.0337,0.0674 -0.0337,0.15861 0,0.22599 0.0216,0.0433 0.8607,0.88233 0.90396,0.90396 0.0674,0.0337 0.17272,-0.0533 0.22598,0 0.46758,0.46757 -0.71452,-0.0183 0.22599,0.45197 0.13476,0.0674 0.34545,-0.10653 0.45198,0 0.0533,0.0533 -0.0533,0.17273 0,0.22599 0.0462,0.0462 0.58836,-0.0448 0.67797,0 0.0953,0.0476 0.1307,0.17835 0.22599,0.22599 0.13475,0.0674 0.31722,-0.0674 0.45197,0 0.0953,0.0476 0.13071,0.17835 0.22599,0.22599 0.0674,0.0337 0.17272,-0.0533 0.22599,0 0.0533,0.0533 -0.0533,0.17272 0,0.22599 0.10653,0.10653 0.31722,-0.0674 0.45198,0 0.0953,0.0476 0.1307,0.17834 0.22599,0.22599 0.13475,0.0674 0.34544,-0.10654 0.45197,0 0.0533,0.0533 -0.0533,0.17272 0,0.22598 0.0544,0.0544 0.84958,-0.0544 0.90396,0 0.10653,0.10654 -0.0674,0.31723 0,0.45198 0.0953,0.19057 0.35669,0.26141 0.45198,0.45198 0.0297,0.0594 0,0.78578 0,0.90395 0,0.82863 0,1.65725 0,2.48588 0,0.16018 -0.0292,1.2975 0,1.35593 0.0476,0.0953 0.17834,0.13071 0.22598,0.22599 0.0337,0.0674 0,0.15066 0,0.22599 0.0753,0.0753 0.17835,0.1307 0.22599,0.22599 0.15586,0.31172 -0.27368,0.20214 0.22599,0.45198 0.31172,0.15586 0.20214,-0.27369 0.45198,0.22598 0.0337,0.0674 -0.0337,0.15862 0,0.22599 0.0476,0.0953 0.15066,0.15066 0.22599,0.22599 0.0753,0.0753 0.13735,0.1669 0.22599,0.22599 0.82089,0.54726 0.15981,-0.0662 0.67796,0.45198 0.0753,0.0753 0.13735,0.16689 0.22599,0.22599 0.14015,0.0934 0.31183,0.13255 0.45198,0.22599 0.0886,0.0591 0.15066,0.15065 0.22599,0.22598 0.0753,0.0753 0.17834,0.13071 0.22599,0.22599 0.0337,0.0674 -0.0337,0.15861 0,0.22599 0.0476,0.0953 0.17834,0.1307 0.22599,0.22599 0.0337,0.0674 -0.0337,0.15861 0,0.22599 0.0953,0.19057 0.35669,0.26141 0.45197,0.45198 0.071,0.14204 -0.071,0.76191 0,0.90395 0.0477,0.0953 0.17835,0.1307 0.22599,0.22599 0.0674,0.13475 -0.0674,0.31722 0,0.45198 0.0476,0.0953 0.17835,0.1307 0.22599,0.22599 0.071,0.14203 -0.071,0.76191 0,0.90395 0.0807,0.16135 0.3713,0.29063 0.45198,0.45198 0.0448,0.0896 -0.0462,0.63176 0,0.67796 0.0533,0.0533 0.17272,-0.0533 0.22599,0 0.10653,0.10654 -0.0674,0.31723 0,0.45198 0.0476,0.0953 0.17834,0.1307 0.22598,0.22599 0.0337,0.0674 0,0.15066 0,0.22599 0.0753,0.0753 0.17835,0.1307 0.22599,0.22599 0.0337,0.0674 -0.0337,0.15861 0,0.22599 0.11119,0.22238 0.79277,0.68157 0.90396,0.90395 0.0337,0.0674 -0.0533,0.17272 0,0.22599 0.46758,0.46758 -0.0183,-0.71452 0.45198,0.22599 0.0337,0.0674 -0.0533,0.17272 0,0.22599 0.0533,0.0533 0.15861,-0.0337 0.22598,0 0.0433,0.0216 0.88233,0.86069 0.90396,0.90395 0.33252,0.66504 -0.52352,-0.29753 0.22599,0.45198 0.0753,0.0753 0.15066,0.15066 0.22599,0.22599 0.0753,0.0753 0.17834,0.1307 0.22599,0.22599 0.0337,0.0674 -0.0337,0.15861 0,0.22599 0.0476,0.0953 0.17834,0.1307 0.22598,0.22598 0.0337,0.0674 -0.0533,0.17273 0,0.22599 0.0533,0.0533 0.17273,-0.0533 0.22599,0 0.0533,0.0533 -0.0337,0.15861 0,0.22599 0.0477,0.0953 0.15066,0.15066 0.22599,0.22599 0.0753,0.0753 0.1307,0.17835 0.22599,0.22599 0.0674,0.0337 0.17272,-0.0533 0.22599,0 0.0533,0.0533 -0.0337,0.15861 0,0.22599 0.0294,0.0588 0.29612,0.38185 0.45198,0.22599 0.1191,-0.11911 0.15065,-0.30132 0.22598,-0.45198"
     id="path823"
     inkscape:connector-curvature="0" />
  <path
     style="fill:none;stroke:#000000;stroke-width:1px;stroke-linecap:butt;stroke-linejoin:miter;stroke-opacity:1"
     d="m 13.287353,8.8646051 c 0,0.602637 0,1.2052729 0,1.8079099 0,0.150659 0.0476,0.30905 0,0.451977 -0.0337,0.101066 -0.17835,0.130704 -0.22599,0.225989 -0.0674,0.134754 0.0674,0.317224 0,0.451977 -0.0476,0.09529 -0.17835,0.130704 -0.22599,0.225989 -0.0904,0.180791 0.0904,0.497175 0,0.677966 -0.0476,0.09529 -0.17835,0.130704 -0.22599,0.225989 -0.0674,0.134754 0.0674,0.317224 0,0.451977 -0.0476,0.09529 -0.1923,0.124924 -0.22599,0.225989 -0.0512,0.15374 0.0599,1.010115 0,1.129943 -0.0476,0.09529 -0.17834,0.130704 -0.22599,0.225989 -0.0337,0.06738 0,0.150659 0,0.225989 0,0.160181 0.0292,1.297503 0,1.355932 -0.0476,0.09529 -0.17834,0.130704 -0.22598,0.225989 -0.0409,0.08172 0,0.972759 0,1.129943 0,0.828625 0,1.657251 0,2.485876 0,0.753296 0,1.506591 0,2.259887 0,0.118174 -0.0297,0.844533 0,0.903955 0.0476,0.09528 0.17834,0.130703 0.22598,0.225988 0.0904,0.180791 -0.0904,0.497175 0,0.677966 0.0953,0.190571 0.3567,0.261407 0.45198,0.451978 0.071,0.142039 -0.071,0.761916 0,0.903955 0.0953,0.19057 0.35669,0.261407 0.45198,0.451977 0.0904,0.180791 -0.0904,0.497175 0,0.677966 0.0476,0.09529 0.17835,0.130704 0.22599,0.225989 0.15586,0.311719 -0.27369,0.20214 0.22599,0.451977 0.0674,0.03369 0.17272,-0.05327 0.22599,0 0.11299,0.112994 -0.113,0.564972 0,0.677966 0.0533,0.05327 0.17272,-0.05327 0.22598,0 0.10654,0.106532 -0.0476,0.30905 0,0.451978 0.0533,0.159798 0.10689,0.33287 0.22599,0.451977 0.0533,0.05327 0.17273,-0.05327 0.22599,0 0.10653,0.106532 -0.0674,0.317224 0,0.451977 0.13559,0.271187 0.54237,0.40678 0.67797,0.677966 0.0337,0.06738 -0.0337,0.158612 0,0.225989 0.0476,0.09528 0.17834,0.130704 0.22599,0.225989 0.0337,0.06738 -0.0337,0.158612 0,0.225989 0.0476,0.09529 0.17834,0.130703 0.22599,0.225988 0.0674,0.134754 -0.0674,0.317224 0,0.451978 0.12056,0.24113 0.33141,0.210847 0.45197,0.451977 0.0904,0.180791 -0.0904,0.497175 0,0.677966 0.0477,0.09529 0.1923,0.124924 0.22599,0.225989 0.0476,0.142928 0,0.301318 0,0.451977 0,0.07533 -0.0337,0.158612 0,0.225989 0.0476,0.09528 0.17835,0.130703 0.22599,0.225989 0.0337,0.06738 -0.0238,0.154524 0,0.225988 0.0533,0.159798 0.17272,0.29218 0.22599,0.451978 0.0476,0.142927 0,0.301318 0,0.451977 0,0.376648 0,0.753296 0,1.129944 0,0.07533 0,0.150659 0,0.225988 0,0.07533 -0.0337,0.158612 0,0.225989 0.0476,0.09528 0.17834,0.130703 0.22599,0.225989 0.0409,0.08172 0,0.972759 0,1.129943 0,1.506591 0,3.013183 0,4.519774 0,0.451977 0,0.903955 0,1.355932 0,0.07533 0,0.150659 0,0.225989 0,0.07533 0.0337,0.158612 0,0.225989 -0.0476,0.09528 -0.17835,0.130703 -0.22599,0.225988 -0.0904,0.180791 0.0904,0.497175 0,0.677966 -0.0476,0.09529 -0.17835,0.130704 -0.22599,0.225989 -0.0904,0.180791 0.0904,0.497175 0,0.677966 -0.0476,0.09528 -0.17835,0.130704 -0.22599,0.225989 -0.0674,0.134753 0.0674,0.317224 0,0.451977 -0.0476,0.09528 -0.17834,0.130704 -0.22599,0.225989 -0.071,0.142039 0.071,0.761916 0,0.903955 -0.0476,0.09528 -0.17834,0.130703 -0.22599,0.225988 -0.0674,0.134754 0.0674,0.317224 0,0.451978 -0.0476,0.09528 -0.17834,0.130703 -0.22598,0.225988 -0.0904,0.180791 0.0904,0.497176 0,0.677967 -0.0477,0.09528 -0.17835,0.130703 -0.22599,0.225988 -0.071,0.142039 0.071,0.761916 0,0.903955 -0.0476,0.09529 -0.17835,0.130704 -0.22599,0.225989 -0.0686,0.137225 0.0686,1.218707 0,1.355932 -0.0476,0.09529 -0.17835,0.130703 -0.22599,0.225989 -0.0337,0.06738 0,0.150659 0,0.225988 0,0.07533 0,0.150659 0,0.225989 0,0.376648 0,0.753296 0,1.129943 0,0.07533 0.0337,0.158612 0,0.225989 -0.0476,0.09529 -0.17835,0.130704 -0.22599,0.225989 -0.0297,0.05942 0,0.785781 0,0.903955 0,0.828625 0,1.65725 0,2.485875 0,1.054614 0,2.109228 0,3.163842 0,0.227583 -0.0417,1.230956 0,1.355932 0.0337,0.101065 0.17835,0.130704 0.22599,0.225989 0.0904,0.180791 -0.0904,0.497175 0,0.677966 0.51713,1.034262 -0.0937,-0.958964 0.45198,0.677966 0.0715,0.214392 -0.0715,0.463574 0,0.677966 0.0337,0.101065 0.17834,0.130704 0.22599,0.225989 0.0674,0.134753 -0.0674,0.317224 0,0.451977 0.0476,0.09528 0.17834,0.130704 0.22598,0.225989 0.0337,0.06738 -0.0337,0.158612 0,0.225989 0.0477,0.09528 0.17835,0.130703 0.22599,0.225988 0.0337,0.06738 0,0.150659 0,0.225989 0.0753,0.150659 0.13256,0.311825 0.22599,0.451977 0.0591,0.08864 0.17835,0.130704 0.22599,0.225989 0.0674,0.134754 -0.0674,0.317224 0,0.451978 0.0953,0.19057 0.35669,0.261407 0.45198,0.451977 0.0337,0.06738 -0.0337,0.158612 0,0.225989 0.0476,0.09529 0.17834,0.130703 0.22599,0.225988 0.0337,0.06738 -0.0337,0.158612 0,0.225989 0.0476,0.09529 0.15066,0.150659 0.22598,0.225989 0.17758,0.177574 1.05797,0.985995 1.12995,1.129943 0.0337,0.06738 -0.0337,0.158612 0,0.225989 0.11119,0.222379 0.79276,0.681575 0.90395,0.903955 0.0337,0.06738 -0.0337,0.158612 0,0.225988 0.0953,0.190571 0.3567,0.261407 0.45198,0.451978 0.0337,0.06738 -0.0337,0.158612 0,0.225988 0.0953,0.190571 0.35669,0.261407 0.45198,0.451978 0.0674,0.134753 -0.0674,0.317224 0,0.451977 0.0476,0.09529 0.17834,0.130704 0.22599,0.225989 0.0674,0.134754 -0.0674,0.317224 0,0.451977 0.0953,0.190571 0.35669,0.261407 0.45197,0.451978 0.36227,0.724528 -0.36226,-0.272551 0,0.451977 0.0477,0.09529 0.17835,0.130704 0.22599,0.225989 0.24151,0.483019 -0.24151,-0.03104 0,0.451977 0.0476,0.09529 0.17835,0.130704 0.22599,0.225989 0.0904,0.180791 -0.0904,0.497175 0,0.677966 0.24151,0.483019 0.21047,-0.03104 0.45198,0.451977 0.0674,0.134754 -0.0674,0.317224 0,0.451978 0.51713,1.034261 -0.0937,-0.958964 0.45198,0.677966 0.0238,0.07146 0,0.150659 0,0.225989 0.0753,0.07533 0.17834,0.130703 0.22598,0.225988 0.0337,0.06738 -0.0337,0.158612 0,0.225989 0.51714,1.034261 -0.0937,-0.958964 0.45198,0.677966 0.0476,0.142928 -0.0674,0.317224 0,0.451977 0.74951,0.749511 -0.10653,-0.213064 0.22599,0.451978 0.0953,0.19057 0.35669,0.261407 0.45198,0.451977 0.0674,0.134754 -0.10653,0.345445 0,0.451978 0.0533,0.05327 0.17272,-0.05327 0.22599,0 0.10653,0.106532 -0.10654,0.345445 0,0.451977 0.46758,0.467579 -0.0183,-0.714522 0.45197,0.225989 0.0674,0.134753 -0.0674,0.317223 0,0.451977 0.0477,0.09528 0.17835,0.130704 0.22599,0.225989 0.12038,0.240752 -0.12037,0.211225 0,0.451977 0.0477,0.09528 0.17835,0.130704 0.22599,0.225989 0.071,0.142039 -0.071,0.761916 0,0.903955 0.0953,0.19057 0.35669,0.261407 0.45198,0.451977 0.0337,0.06738 0,0.150659 0,0.225989 0,0.07533 0,0.150659 0,0.225988 0,0.376648 0,0.753296 0,1.129942 0,0.67797 0,1.35593 0,2.0339 0,0.0753 0,0.15066 0,0.22599 0,0.0753 0.0533,0.17272 0,0.22599 -0.0533,0.0533 -0.17272,-0.0533 -0.22599,0 -0.0462,0.0462 0.0448,0.58836 0,0.67796 -0.0476,0.0953 -0.17835,0.13071 -0.22599,0.22599 -0.0904,0.18079 0.0904,0.49718 0,0.67797 -0.0476,0.0953 -0.17834,0.1307 -0.22599,0.22599 -0.0337,0.0674 0,0.15066 0,0.22599 -0.0753,0.0753 -0.17834,0.1307 -0.22599,0.22598 -0.0713,0.14257 0.0713,0.98738 0,1.12995 -0.0476,0.0953 -0.17834,0.1307 -0.22598,0.22599 -0.0337,0.0674 0.0337,0.15861 0,0.22599 -0.0477,0.0953 -0.17835,0.1307 -0.22599,0.22598 -0.0337,0.0674 0,0.15066 0,0.22599 0,0.0753 0,0.15066 0,0.22599 0,0.45198 0,0.90396 0,1.35593 0,0.0753 0,0.15066 0,0.22599 0,0.0753 0.0337,0.15861 0,0.22599 -0.0476,0.0953 -0.17835,0.1307 -0.22599,0.22599 -0.0409,0.0817 0,0.97276 0,1.12994 0,0.97929 0,1.95857 0,2.93786 0,0.97928 0,1.95856 0,2.93785 0,0.15718 -0.0409,1.04822 0,1.12994 0.0476,0.0953 0.17834,0.13071 0.22599,0.22599 0.0904,0.18079 -0.0904,0.49718 0,0.67797 0.0476,0.0953 0.17834,0.1307 0.22599,0.22599 0.071,0.14204 -0.071,0.76191 0,0.90395 0.51713,1.03426 -0.0937,-0.95896 0.45197,0.67797 0.0477,0.14292 -0.0674,0.31722 0,0.45197 0.0477,0.0953 0.17835,0.13071 0.22599,0.22599 0.0674,0.13476 -0.0674,0.31723 0,0.45198 0.0953,0.19057 0.35669,0.26141 0.45198,0.45198 0.0674,0.13475 -0.0674,0.31722 0,0.45198 0.74951,0.74951 -0.10653,-0.21307 0.22599,0.45197 0.0476,0.0953 0.17834,0.13071 0.22599,0.22599 0.0337,0.0674 -0.0337,0.15861 0,0.22599 0.16134,0.32269 0.29063,0.12929 0.45197,0.45198 0.0337,0.0674 -0.0337,0.15861 0,0.22599 0.0477,0.0953 0.17835,0.1307 0.22599,0.22598 0.0674,0.13476 -0.0674,0.31723 0,0.45198 0.0953,0.19057 0.35669,0.26141 0.45198,0.45198 0.0337,0.0674 -0.0238,0.15452 0,0.22599 0.13682,0.41045 0.19341,0.4194 0.45198,0.67796 0.0753,0.0753 0.17834,0.13071 0.22599,0.22599 0.0337,0.0674 -0.0337,0.15862 0,0.22599 0.0476,0.0953 0.17834,0.13071 0.22598,0.22599 0.0337,0.0674 -0.0337,0.15861 0,0.22599 0.0477,0.0953 0.17835,0.1307 0.22599,0.22599 0.0337,0.0674 -0.0337,0.15861 0,0.22599 0.072,0.14395 0.95237,0.95237 1.12995,1.12994 0.11897,0.11898 0.61761,0.55727 0.67796,0.67797 0.15586,0.31172 -0.27368,0.20214 0.22599,0.45197 0.13476,0.0674 0.31723,-0.0674 0.45198,0 0.0953,0.0476 0.1307,0.17835 0.22599,0.22599 0.0674,0.0337 0.17272,-0.0533 0.22599,0 0.46757,0.46758 -0.71453,-0.0183 0.22599,0.45198 0.0674,0.0337 0.15861,-0.0337 0.22598,0 0.0953,0.0476 0.13071,0.17835 0.22599,0.22599 0.13476,0.0674 0.31723,-0.0674 0.45198,0 0.0953,0.0476 0.1307,0.17834 0.22599,0.22599 0.0674,0.0337 0.15861,-0.0337 0.22599,0 0.0953,0.0476 0.1307,0.17834 0.22599,0.22599 0.0674,0.0337 0.15861,-0.0337 0.22598,0 0.0953,0.0476 0.13071,0.17834 0.22599,0.22598 0.0674,0.0337 0.15862,-0.0337 0.22599,0 0.0953,0.0477 0.15066,0.15066 0.22599,0.22599 0.0753,0.0753 0.15066,0.15066 0.22599,0.22599 0.11897,0.11898 0.61762,0.55727 0.67797,0.67797 0.0337,0.0674 -0.0533,0.17272 0,0.22599 0.46757,0.46758 -0.0183,-0.71453 0.45197,0.22599 0.0904,0.18079 -0.0904,0.49717 0,0.67796 0.0477,0.0953 0.17835,0.1307 0.22599,0.22599 0.0337,0.0674 0,0.15066 0,0.22599 0.0753,0.0753 0.17835,0.1307 0.22599,0.22599 0.0337,0.0674 0,0.15066 0,0.22599 0,0.0753 0,0.15066 0,0.22598 0,0.37665 0,0.7533 0,1.12995 0,0.0753 -0.0337,0.15861 0,0.22599 0.0476,0.0953 0.17835,0.1307 0.22599,0.22599 0.0674,0.13475 -0.0674,0.31722 0,0.45197 0.0476,0.0953 0.17835,0.13071 0.22599,0.22599 0.0344,0.0688 0,0.57619 0,0.67797 0,0.0753 0,0.15066 0,0.22599 0,0.0753 -0.0337,0.15861 0,0.22599 0.0953,0.19057 0.35669,0.2614 0.45198,0.45197 0.071,0.14204 -0.071,0.76192 0,0.90396 0.47025,0.94051 -0.0156,-0.24159 0.45197,0.22599 0.0793,0.0793 -0.078,0.97384 0,1.12994 0.0477,0.0953 0.17835,0.1307 0.22599,0.22599 0.0674,0.13475 -0.0674,0.31722 0,0.45198 0.0476,0.0953 0.17835,0.1307 0.22599,0.22598 0.0904,0.1808 -0.0904,0.49718 0,0.67797 0.0476,0.0953 0.17835,0.1307 0.22599,0.22599 0.071,0.14204 -0.071,0.76192 0,0.90395 0.74951,0.74951 -0.10653,-0.21306 0.22599,0.45198 0.0476,0.0953 0.17834,0.1307 0.22599,0.22599 0.0674,0.13475 -0.0674,0.31722 0,0.45198 0.0476,0.0953 0.17834,0.1307 0.22598,0.22599 0.0674,0.13475 -0.0674,0.31722 0,0.45197 0.0477,0.0953 0.17835,0.13071 0.22599,0.22599 0.0337,0.0674 -0.0337,0.15861 0,0.22599 0.1356,0.27119 0.54238,0.40678 0.67797,0.67797 0.0337,0.0674 -0.0337,0.15861 0,0.22599 0.0476,0.0953 0.15066,0.15065 0.22599,0.22598 0.0753,0.0753 0.15066,0.15066 0.22599,0.22599 0.74951,0.74951 -0.21307,-0.10653 0.45197,0.22599 0.19057,0.0953 0.26141,0.35669 0.45198,0.45198 0.0674,0.0337 0.15861,-0.0337 0.22599,0 0.0953,0.0476 0.15066,0.15066 0.22599,0.22599 0.0753,0.0753 0.17835,0.1307 0.22599,0.22599 0.0337,0.0674 -0.0337,0.15861 0,0.22599 0.16134,0.32268 0.29063,0.12928 0.45198,0.45197 0.0337,0.0674 -0.0533,0.17273 0,0.22599 0.0533,0.0533 0.17272,-0.0533 0.22598,0 0.0533,0.0533 -0.0337,0.15861 0,0.22599 0.0477,0.0953 0.17835,0.1307 0.22599,0.22599 0.0337,0.0674 -0.0337,0.15861 0,0.22599 0.0603,0.12069 0.55899,0.55899 0.67797,0.67796 0.0753,0.0753 0.30132,0.15066 0.22599,0.22599 -0.0753,0.0753 -0.33252,-0.22599 -0.22599,-0.22599 0.37205,0 0.61622,0.53473 0.67796,0.22599 0.0739,-0.36933 0,-0.75329 0,-1.12994"
     id="path825"
     inkscape:connector-curvature="0" />
  <path
     style="fill:none;stroke:#000000;stroke-width:1px;stroke-linecap:butt;stroke-linejoin:miter;stroke-opacity:1"
     d="m 17.807123,8.8646051 c -0.22599,0.301319 -0.45198,0.602637 -0.67796,0.903955 0,0.07533 0.0337,0.158612 0,0.225989 -0.0477,0.09529 -0.17835,0.1307029 -0.22599,0.2259889 -0.0337,0.06738 0.0337,0.158611 0,0.225988 -0.0476,0.09529 -0.17835,0.130704 -0.22599,0.225989 -0.0674,0.134754 0.0674,0.317224 0,0.451977 -0.0476,0.09529 -0.17835,0.130704 -0.22599,0.225989 -0.0674,0.134754 0.0674,0.317224 0,0.451977 -0.0476,0.09529 -0.17835,0.130704 -0.22599,0.225989 -0.0713,0.142569 0.0713,0.987374 0,1.129944 -0.0476,0.09529 -0.17834,0.130703 -0.22599,0.225988 -0.0297,0.05942 0,0.785781 0,0.903955 0,0.753296 0,1.506591 0,2.259887 0,0.828625 0,1.65725 0,2.485876 0,0.118174 -0.0297,0.844533 0,0.903954 0.0477,0.09529 0.17835,0.130704 0.22599,0.225989 0.0674,0.134754 -0.0674,0.317224 0,0.451978 0.0476,0.09529 0.17835,0.130703 0.22599,0.225988 0.0337,0.06738 -0.0337,0.158612 0,0.225989 0.0476,0.09529 0.17835,0.130703 0.22599,0.225989 0.0904,0.180791 -0.0904,0.497175 0,0.677966 0.24075,0.481504 0.21122,-0.02953 0.45198,0.451977 0.0337,0.06738 -0.0337,0.158612 0,0.225989 0.12056,0.24113 0.33141,0.210847 0.45197,0.451977 0.0337,0.06738 -0.0337,0.158612 0,0.225989 0.0477,0.09528 0.17835,0.130703 0.22599,0.225989 0.0337,0.06738 -0.0337,0.158611 0,0.225988 0.0476,0.09529 0.17835,0.130704 0.22599,0.225989 0.0337,0.06738 -0.0337,0.158612 0,0.225989 0.0476,0.09528 0.15066,0.150659 0.22599,0.225988 0.0753,0.07533 0.1307,0.178346 0.22599,0.225989 0.0674,0.03369 0.17272,-0.05327 0.22599,0 0.0533,0.05327 -0.0337,0.158612 0,0.225989 0.0476,0.09529 0.17834,0.130703 0.22599,0.225988 0.071,0.142039 -0.071,0.761916 0,0.903955 0.12,0.24 0.33197,0.211978 0.45197,0.451978 0.0337,0.06738 0,0.150659 0,0.225988 0.0753,0.07533 0.17835,0.130704 0.22599,0.225989 0.0674,0.134754 -0.0674,0.317224 0,0.451977 0.0476,0.09529 0.17835,0.130704 0.22599,0.225989 0.0904,0.180791 -0.0904,0.497175 0,0.677966 0.0476,0.09528 0.17835,0.130704 0.22599,0.225989 0.0717,0.143348 -0.0734,0.983136 0,1.129943 0.0476,0.09529 0.17835,0.130704 0.22599,0.225989 0.0337,0.06738 -0.0337,0.158612 0,0.225989 0.0476,0.09528 0.17834,0.130703 0.22599,0.225988 0.0344,0.06878 0,0.576191 0,0.677967 0,0.602636 0,1.205273 0,1.807909 0,2.033898 0,4.067797 0,6.101695 0,0.451977 0,0.903955 0,1.355932 0,0.101776 -0.0344,0.60919 0,0.677966 0.0476,0.09529 0.17834,0.130704 0.22599,0.225989 0.0337,0.06738 -0.0337,0.158612 0,0.225989 0.0476,0.09528 0.17834,0.130703 0.22598,0.225988 0.0337,0.06738 -0.0337,0.158612 0,0.225989 0.0477,0.09528 0.17835,0.130703 0.22599,0.225989 0.0337,0.06738 -0.0337,0.158612 0,0.225988 0.0476,0.09529 0.17835,0.130704 0.22599,0.225989 0.0337,0.06738 -0.0533,0.172723 0,0.225989 0.46758,0.467578 -0.0183,-0.714522 0.45198,0.225988 0.0337,0.06738 -0.0337,0.158612 0,0.225989 0.0476,0.09529 0.16689,0.137349 0.22599,0.225989 0.18687,0.280304 0.2651,0.62365 0.45197,0.903955 0.0591,0.08864 0.17835,0.130703 0.22599,0.225988 0.0337,0.06738 -0.0337,0.158612 0,0.225989 0.0477,0.09528 0.1669,0.137349 0.22599,0.225989 0.0934,0.140152 0.13256,0.311825 0.22599,0.451977 0.0591,0.08864 0.17835,0.130704 0.22599,0.225989 0.0337,0.06738 -0.0337,0.158612 0,0.225988 0.0476,0.09529 0.15066,0.15066 0.22599,0.225989 0.13291,0.132914 0.85163,0.799304 0.90395,0.903955 0.0674,0.134754 -0.0674,0.317224 0,0.451977 0.1356,0.271187 0.54238,0.40678 0.67797,0.677966 0.0674,0.134754 -0.0674,0.317224 0,0.451978 0.0953,0.19057 0.35669,0.261407 0.45198,0.451977 0.0337,0.06738 -0.0337,0.158612 0,0.225989 0.0476,0.09529 0.17834,0.130703 0.22599,0.225989 0.0337,0.06738 -0.0337,0.158611 0,0.225988 0.0953,0.190571 0.35669,0.261407 0.45197,0.451978 0.0337,0.06738 -0.0337,0.158612 0,0.225988 0.0477,0.09529 0.17835,0.130704 0.22599,0.225989 0.0337,0.06738 -0.0337,0.158612 0,0.225989 0.0476,0.09529 0.17835,0.130703 0.22599,0.225988 0.0337,0.06738 -0.0337,0.158612 0,0.225989 0.0953,0.190571 0.35669,0.261407 0.45198,0.451978 0.0674,0.134753 -0.0674,0.317223 0,0.451977 0.0476,0.09529 0.17834,0.130703 0.22599,0.225989 0.0337,0.06738 -0.0337,0.158612 0,0.225988 0.0476,0.09529 0.17834,0.130704 0.22598,0.225989 0.0674,0.134754 -0.0674,0.317224 0,0.451977 0.0477,0.09529 0.17835,0.130704 0.22599,0.225989 0.0337,0.06738 -0.0337,0.158612 0,0.225989 0.0477,0.09528 0.17835,0.130703 0.22599,0.225988 0.0904,0.180791 -0.0904,0.497176 0,0.677967 0.0953,0.19057 0.35669,0.261407 0.45198,0.451977 0.0904,0.180791 -0.0904,0.497175 0,0.677966 0.0953,0.19057 0.3846,0.249847 0.45198,0.451977 0.0344,0.103365 -0.0503,0.803395 0,0.903955 0.0476,0.09528 0.1923,0.124924 0.22599,0.225989 0.0344,0.103364 -0.0503,0.803395 0,0.903955 0.0476,0.09529 0.17834,0.130703 0.22598,0.225988 0.0674,0.134754 -0.0674,0.317224 0,0.451978 0.0477,0.09529 0.17835,0.130703 0.22599,0.225988 0.0667,0.133338 -0.0518,0.522524 0,0.677967 0.0533,0.159798 0.17273,0.292179 0.22599,0.451977 0.0476,0.142928 -0.0674,0.317224 0,0.451977 0.0476,0.09529 0.17835,0.130704 0.22599,0.225989 0.0713,0.142569 -0.0713,0.987374 0,1.129944 0.0476,0.09529 0.17835,0.130703 0.22599,0.225988 0.0904,0.180791 -0.0904,0.497175 0,0.677966 0.0476,0.09529 0.17835,0.130704 0.22599,0.225989 0.071,0.142039 -0.071,0.761916 0,0.903955 0.0476,0.09529 0.17834,0.130703 0.22599,0.225988 0.071,0.142039 -0.071,0.761916 0,0.903955 0.0476,0.09528 0.17834,0.130704 0.22599,0.225989 0.0674,0.134754 -0.0674,0.317224 0,0.451977 0.0476,0.09529 0.17834,0.130704 0.22598,0.225989 0.0602,0.120376 -0.0602,0.331601 0,0.451977 0.0477,0.09529 0.17835,0.130704 0.22599,0.225989 0.0674,0.134754 -0.0674,0.317224 0,0.451978 0.0953,0.19057 0.35669,0.261407 0.45198,0.451977 0.0674,0.134754 -0.0674,0.317224 0,0.451977 0.0953,0.190571 0.35669,0.261407 0.45198,0.451978 0.0674,0.134753 -0.0674,0.317223 0,0.451977 0.0476,0.09528 0.17834,0.130704 0.22599,0.225989 0.0337,0.06738 -0.0337,0.158612 0,0.225988 0.0476,0.09529 0.15066,0.15066 0.22598,0.225989 0.0753,0.07533 0.15066,0.150659 0.22599,0.225989 0.30132,0.301318 0.60264,0.602636 0.90396,0.903955 0.0753,0.07533 0.17834,0.130703 0.22599,0.225988 0.0337,0.06738 -0.0337,0.158612 0,0.225989 0.0953,0.19057 0.3846,0.249847 0.45197,0.451977 0.0477,0.142928 -0.0365,0.305817 0,0.451978 0.27283,1.091287 0.1074,-0.0112 0.45198,0.677966 0.0674,0.134754 -0.0674,0.317224 0,0.451977 0.0476,0.09528 0.17835,0.130704 0.22599,0.225989 0.12,0.24 -0.12,0.211977 0,0.451977 0.0476,0.09529 0.17835,0.130704 0.22599,0.225989 0.0674,0.134754 -0.0674,0.317224 0,0.451977 0.0476,0.09529 0.17835,0.130704 0.22599,0.225989 0.0344,0.06878 0,0.576191 0,0.677966 0,0.527307 0,1.054614 0,1.581921 0,0.602637 0,1.205273 0,1.80791 0,0.118174 0.0297,0.844533 0,0.903954 -0.0953,0.190571 -0.35669,0.261407 -0.45198,0.451978 -0.071,0.142039 0.071,0.761916 0,0.903955 -0.0953,0.19057 -0.35669,0.261407 -0.45198,0.451977 -0.0337,0.06738 0.0337,0.158612 0,0.225989 -0.0476,0.09528 -0.17834,0.130703 -0.22599,0.225988 -0.0904,0.180791 0.0904,0.497176 0,0.677966 -0.0476,0.09529 -0.17834,0.130704 -0.22598,0.225989 -0.0674,0.134754 0.0674,0.317224 0,0.451978 -0.0477,0.09529 -0.17835,0.130703 -0.22599,0.225988 -0.0713,0.14257 0.0713,0.987374 0,1.129944 -0.0477,0.09529 -0.17835,0.130703 -0.22599,0.225988 -0.0292,0.05843 0,1.195756 0,1.355936 0,2.78719 0,5.57438 0,8.36158 0,0.82862 0,1.65725 0,2.48587 0,0.11818 -0.0297,0.84454 0,0.90396 0.0476,0.0953 0.17834,0.1307 0.22599,0.22599 0.071,0.14204 -0.071,0.76191 0,0.90395 0.0476,0.0953 0.17834,0.13071 0.22599,0.22599 0.0674,0.13475 -0.0674,0.31722 0,0.45198 0.0476,0.0953 0.17834,0.1307 0.22598,0.22599 0.0337,0.0674 -0.0337,0.15861 0,0.22599 0.0477,0.0953 0.17835,0.1307 0.22599,0.22598 0.0337,0.0674 -0.0337,0.15862 0,0.22599 0.0477,0.0953 0.17835,0.13071 0.22599,0.22599 0.0337,0.0674 -0.0337,0.15861 0,0.22599 0.0476,0.0953 0.17835,0.1307 0.22599,0.22599 0.0337,0.0674 -0.0337,0.15861 0,0.22599 0.0476,0.0953 0.15066,0.15066 0.22599,0.22599 0.13291,0.13291 0.85163,0.7993 0.90395,0.90395 0.0337,0.0674 -0.0337,0.15861 0,0.22599 0.0953,0.19057 0.3567,0.26141 0.45198,0.45198 0.0337,0.0674 -0.0337,0.15861 0,0.22599 0.0476,0.0953 0.17835,0.1307 0.22599,0.22598 0.0337,0.0674 -0.0337,0.15862 0,0.22599 0.0476,0.0953 0.17835,0.13071 0.22599,0.22599 0.0337,0.0674 -0.0337,0.15861 0,0.22599 0.0476,0.0953 0.17834,0.1307 0.22599,0.22599 0.071,0.14204 -0.071,0.76192 0,0.90395 0.74951,0.74951 -0.10653,-0.21306 0.22599,0.45198 0.0476,0.0953 0.17834,0.13071 0.22598,0.22599 0.071,0.14204 -0.071,0.76192 0,0.90396 0.0477,0.0953 0.17835,0.1307 0.22599,0.22598 0.0713,0.14257 -0.0713,0.98738 0,1.12995 0.0476,0.0953 0.17835,0.1307 0.22599,0.22599 0.0713,0.14257 -0.0713,0.98737 0,1.12994 0.74951,0.74951 -0.10653,-0.21306 0.22599,0.45198 0.0476,0.0953 0.17835,0.1307 0.22599,0.22599 0.0904,0.18079 -0.0904,0.49717 0,0.67796 0.0476,0.0953 0.17835,0.13071 0.22599,0.22599 0.0337,0.0674 -0.0337,0.15861 0,0.22599 0.0476,0.0953 0.17834,0.1307 0.22599,0.22599 0.071,0.14204 -0.071,0.76191 0,0.90395 0.0476,0.0953 0.17834,0.13071 0.22599,0.22599 0.0337,0.0674 -0.0337,0.15861 0,0.22599 0.0476,0.0953 0.17834,0.1307 0.22598,0.22599 0.0337,0.0674 -0.0337,0.15861 0,0.22599 0.0477,0.0953 0.17835,0.1307 0.22599,0.22599 0.0337,0.0674 -0.0337,0.15861 0,0.22598 0.0807,0.16135 0.37131,0.29064 0.45198,0.45198 0.0904,0.18079 -0.0904,0.49718 0,0.67797 0.0953,0.19057 0.35669,0.26141 0.45198,0.45198 0.0674,0.13475 -0.0476,0.30905 0,0.45197 0.54564,1.63693 -0.0652,-0.35629 0.45198,0.67797 0.0674,0.13475 -0.0674,0.31722 0,0.45198 0.0476,0.0953 0.17834,0.1307 0.22598,0.22599 0.0297,0.0594 0,0.78578 0,0.90395 0,0.67797 0,1.35593 0,2.0339 0,0.97928 0,1.95857 0,2.93785 0,0.16018 0.0292,1.2975 0,1.35593 -0.0476,0.0953 -0.17834,0.13071 -0.22598,0.22599 -0.0297,0.0594 0,0.78578 0,0.90396 0,0.75329 0,1.50659 0,2.25988 0,1.35594 0,2.71187 0,4.0678 0,0.0548 0.007,0.6707 0,0.67797 -0.19206,0.19205 -0.45198,0.30131 -0.67797,0.45197"
     id="path827"
     inkscape:connector-curvature="0" />
  <path
     style="fill:none;stroke:#000000;stroke-width:1px;stroke-linecap:butt;stroke-linejoin:miter;stroke-opacity:1"
     d="m 13.287353,8.8646051 c 0.22599,-0.376648 0.41442,-0.778549 0.67796,-1.129943 0.0452,-0.06026 0.0388,0.161394 0,0.225989 -0.19378,0.322972 -0.67796,0.527307 -0.67796,0.903954 0,0.439243 0.48153,0.737073 0.67796,1.129944 0.0337,0.06738 0,0.1506589 0,0.2259889 0,0.828625 0,1.65725 0,2.485875 0,0.157184 -0.0409,1.048219 0,1.129944 0.0477,0.09529 0.17835,0.130703 0.22599,0.225988 0.0686,0.137226 -0.0686,1.218707 0,1.355933 0.0476,0.09529 0.17835,0.130703 0.22599,0.225988 0.071,0.142039 -0.071,0.761916 0,0.903955 0.0476,0.09529 0.17835,0.130704 0.22599,0.225989 0.0674,0.134753 -0.0674,0.317224 0,0.451977 0.0476,0.09529 0.17835,0.130704 0.22599,0.225989 0.074,0.147981 -0.0668,0.929394 0,1.129943 0.0533,0.159798 0.17272,0.29218 0.22599,0.451978 0.0238,0.07146 -0.0337,0.158612 0,0.225988 0.0476,0.09529 0.17834,0.130704 0.22599,0.225989 0.0674,0.134754 -0.0674,0.317224 0,0.451977 0.0476,0.09529 0.17834,0.130704 0.22599,0.225989 0.0674,0.134754 -0.0674,0.317224 0,0.451978 0.0476,0.09529 0.17834,0.130703 0.22598,0.225988 0.0337,0.06738 -0.0337,0.158612 0,0.225989 0.0477,0.09529 0.17835,0.130703 0.22599,0.225989 0.0904,0.180791 -0.0904,0.497175 0,0.677966 0.0477,0.09528 0.17835,0.130703 0.22599,0.225988 0.0904,0.180791 -0.0904,0.497176 0,0.677967 0.0476,0.09529 0.17835,0.130703 0.22599,0.225988 0.0904,0.180791 -0.0904,0.497175 0,0.677966 0.0476,0.09529 0.17835,0.130704 0.22599,0.225989 0.0674,0.134754 -0.0674,0.317224 0,0.451977 0.0953,0.190571 0.35669,0.261407 0.45198,0.451978 0.0904,0.180791 -0.0904,0.497175 0,0.677966 0.0953,0.19057 0.35669,0.261407 0.45197,0.451977 0.0674,0.134754 -0.0674,0.317224 0,0.451978 0.0953,0.19057 0.3567,0.261407 0.45198,0.451977 0.0904,0.180791 -0.0904,0.497175 0,0.677966 0.24,0.48 0.21198,-0.02802 0.45198,0.451978 0.0674,0.134753 -0.0674,0.317223 0,0.451977 0.0953,0.19057 0.3846,0.249847 0.45198,0.451977 0.0476,0.142928 0,0.301319 0,0.451978 0,0.07533 -0.0337,0.158612 0,0.225988 0.18056,0.361129 0.27141,0.09085 0.45197,0.451978 0.0904,0.180791 -0.0904,0.497175 0,0.677966 0.0477,0.09529 0.17835,0.130703 0.22599,0.225989 0.0337,0.06738 -0.0337,0.158611 0,0.225988 0.0476,0.09529 0.17835,0.130704 0.22599,0.225989 0.0674,0.134754 -0.0674,0.317224 0,0.451977 0.0476,0.09529 0.17835,0.130704 0.22599,0.225989 0.0904,0.180791 -0.0904,0.497175 0,0.677966 0.74951,0.74951 -0.10653,-0.213064 0.22599,0.451978 0.0476,0.09528 0.17834,0.130703 0.22599,0.225988 0.0904,0.180791 -0.0904,0.497175 0,0.677966 0.0476,0.09528 0.17834,0.130704 0.22599,0.225989 0.0674,0.134754 -0.0674,0.317224 0,0.451977 0.0476,0.09529 0.17834,0.130704 0.22598,0.225989 0.0713,0.142569 -0.0713,0.987374 0,1.129944 0.0477,0.09528 0.17835,0.130703 0.22599,0.225988 0.071,0.142039 -0.071,0.761916 0,0.903955 0.0476,0.09529 0.17835,0.130704 0.22599,0.225989 0.0409,0.08172 0,0.972759 0,1.129943 0,0.828625 0,1.657251 0,2.485876 0,0.828625 0,1.65725 0,2.485875 0,0.157185 0.0409,1.048219 0,1.129944 -0.0476,0.09528 -0.17834,0.130703 -0.22599,0.225989 -0.0904,0.180791 0.0904,0.497175 0,0.677966 -0.0476,0.09528 -0.17834,0.130703 -0.22599,0.225988 -0.071,0.142039 0.071,0.761916 0,0.903955 -0.0476,0.09528 -0.17834,0.130704 -0.22598,0.225989 -0.0337,0.06738 0.0533,0.172723 0,0.225989 -0.0533,0.05327 -0.17273,-0.05327 -0.22599,0 -0.0462,0.0462 0.0448,0.588363 0,0.677966 -0.0477,0.09528 -0.17835,0.130703 -0.22599,0.225988 -0.0297,0.05942 0,0.785781 0,0.903955 0,0.677966 0,1.355932 0,2.033898 0,0.828626 0,1.657251 0,2.485876 0,0.157184 -0.0409,1.048218 0,1.129944 0.0476,0.09529 0.17834,0.130703 0.22599,0.225988 0.0674,0.134754 -0.0674,0.317224 0,0.451978 0.0476,0.09529 0.17834,0.130703 0.22599,0.225988 0.071,0.142039 -0.071,0.761916 0,0.903955 0.0476,0.09529 0.17834,0.130704 0.22598,0.225989 0.0674,0.134753 -0.0674,0.317224 0,0.451977 0.0953,0.190571 0.3567,0.261407 0.45198,0.451978 0.12095,0.241889 -0.12094,0.210087 0,0.451977 0.0476,0.09529 0.17835,0.130703 0.22599,0.225989 0.0337,0.06738 -0.0337,0.158612 0,0.225988 0.0476,0.09529 0.17835,0.130704 0.22599,0.225989 0.0337,0.06738 -0.0337,0.158612 0,0.225989 0.12,0.24 0.33198,0.211977 0.45198,0.451977 0.0337,0.06738 0,0.150659 0,0.225989 0.0753,0.07533 0.17834,0.130703 0.22598,0.225989 0.0674,0.134753 -0.0674,0.317223 0,0.451977 0.0953,0.19057 0.3567,0.261407 0.45198,0.451977 0.0337,0.06738 -0.0337,0.158612 0,0.225989 0.0953,0.19057 0.35669,0.261407 0.45198,0.451977 0.0337,0.06738 -0.0337,0.158612 0,0.225989 0.0602,0.120376 0.39179,0.331601 0.45198,0.451978 0.0337,0.06738 -0.0337,0.158611 0,0.225988 0.0476,0.09529 0.17834,0.130704 0.22599,0.225989 0.0337,0.06738 -0.0337,0.158612 0,0.225989 0.13559,0.271186 0.54237,0.406779 0.67796,0.677966 0.0337,0.06738 -0.0337,0.158612 0,0.225988 0.18085,0.361696 0.27113,0.09028 0.45198,0.451978 0.0337,0.06738 -0.0337,0.158612 0,0.225988 0.11119,0.22238 0.79276,0.681576 0.90395,0.903955 0.0337,0.06738 -0.0337,0.158612 0,0.225989 0.0603,0.120697 0.55899,0.558991 0.67797,0.677966 0.52731,0.527307 1.05461,1.054614 1.58192,1.581921 0.11898,0.118975 0.61762,0.557269 0.67797,0.677966 0.0337,0.06738 -0.0337,0.158612 0,0.225989 0.13559,0.271186 0.54237,0.406779 0.67796,0.677966 0.15586,0.311719 -0.27368,0.20214 0.22599,0.451977 0.0674,0.03369 0.15861,-0.03369 0.22599,0 0.0953,0.04764 0.15066,0.150659 0.22599,0.225989 0.0753,0.07533 0.15066,0.150659 0.22599,0.225989 0.11897,0.118975 0.61762,0.557269 0.67796,0.677966 0.0337,0.06738 -0.0337,0.158612 0,0.225988 0.0477,0.09529 0.17835,0.130704 0.22599,0.225989 0.0337,0.06738 -0.0337,0.158612 0,0.225989 0.47026,0.940511 -0.0156,-0.24159 0.45198,0.225988 0.0533,0.05327 -0.0337,0.158612 0,0.225989 0.13559,0.271187 0.54237,0.40678 0.67797,0.677966 0.0337,0.06738 -0.0337,0.158612 0,0.225989 0.13559,0.271186 0.54237,0.40678 0.67796,0.677966 0.0337,0.06738 -0.0337,0.158612 0,0.225989 0.0476,0.09528 0.17835,0.130703 0.22599,0.225988 0.0337,0.06738 -0.0337,0.158612 0,0.225989 0.11119,0.222379 0.79277,0.681575 0.90396,0.903955 0.0674,0.134753 -0.0674,0.317224 0,0.451977 0.0953,0.190571 0.35669,0.261407 0.45197,0.451978 0.0337,0.06738 0,0.150659 0,0.225988 0.0753,0.07533 0.17835,0.130704 0.22599,0.225989 0.0448,0.0896 -0.0462,0.631766 0,0.677966 0.46758,0.467579 -0.0183,-0.714522 0.45198,0.225989 0.0904,0.180791 -0.0904,0.497175 0,0.677966 0.0476,0.09528 0.17835,0.130703 0.22599,0.225989 0.071,0.142039 -0.071,0.761915 0,0.903954 0.0476,0.09529 0.17834,0.130704 0.22599,0.225989 0.0686,0.137225 -0.0686,1.218707 0,1.355932 0.0476,0.09529 0.17834,0.130704 0.22599,0.225989 0.071,0.142039 -0.071,0.761916 0,0.903955 0.0476,0.09528 0.17834,0.130703 0.22598,0.225988 0.071,0.142039 -0.071,0.761916 0,0.903955 0.0477,0.09529 0.17835,0.130704 0.22599,0.225989 0.0904,0.180791 -0.0904,0.497175 0,0.677966 0.0477,0.09529 0.17835,0.130703 0.22599,0.225989 0.0674,0.134753 -0.0674,0.317223 0,0.451977 0.0476,0.09529 0.17835,0.130704 0.22599,0.225989 0.0337,0.06738 0,0.150659 0,0.225988 0,0.160182 -0.0292,1.297506 0,1.355936 0.0476,0.0953 0.17835,0.1307 0.22599,0.22599 0.0409,0.0817 0,0.97275 0,1.12994 0,0.97928 0,1.95857 0,2.93785 0,0.90396 0,1.80791 0,2.71187 0,0.15718 0.0409,1.04821 0,1.12994 -0.0476,0.0953 -0.17835,0.1307 -0.22599,0.22599 -0.071,0.14204 0.071,0.76191 0,0.90395 -0.0476,0.0953 -0.17835,0.13071 -0.22599,0.22599 -0.0686,0.13723 0.0686,1.21871 0,1.35593 -0.0476,0.0953 -0.17834,0.13071 -0.22599,0.22599 -0.0904,0.18079 0.0904,0.49718 0,0.67797 -0.0476,0.0953 -0.17834,0.1307 -0.22599,0.22599 -0.0292,0.0584 0,1.19575 0,1.35593 0,1.12994 0,2.25989 0,3.38983 0,0.0753 0,0.15066 0,0.22599 0,0.0753 0.0337,0.15861 0,0.22599 -0.0476,0.0953 -0.17834,0.1307 -0.22598,0.22599 -0.0297,0.0594 0,0.78578 0,0.90395 0,0.52731 0,1.05461 0,1.58192 0,0.10178 0.0344,0.60919 0,0.67797 -0.0477,0.0953 -0.17835,0.1307 -0.22599,0.22599 -0.0297,0.0594 0,0.78578 0,0.90395 0,0.67797 0,1.35593 0,2.0339 0,0.82862 0,1.65725 0,2.48588 0,0.15718 -0.0409,1.04821 0,1.12994 0.0476,0.0953 0.17834,0.1307 0.22599,0.22599 0.0713,0.14257 -0.0713,0.98737 0,1.12994 0.0476,0.0953 0.17834,0.1307 0.22598,0.22599 0.071,0.14204 -0.071,0.76192 0,0.90395 0.0477,0.0953 0.17835,0.13071 0.22599,0.22599 0.0674,0.13476 -0.0674,0.31723 0,0.45198 0.0477,0.0953 0.17835,0.1307 0.22599,0.22599 0.0337,0.0674 -0.0337,0.15861 0,0.22599 0.0476,0.0953 0.17835,0.1307 0.22599,0.22599 0.0337,0.0674 -0.0337,0.15861 0,0.22599 0.0476,0.0953 0.17835,0.1307 0.22599,0.22598 0.0674,0.13476 -0.0674,0.31723 0,0.45198 0.0476,0.0953 0.17834,0.1307 0.22599,0.22599 0.0674,0.13475 -0.0674,0.31722 0,0.45198 0.0476,0.0953 0.17834,0.1307 0.22599,0.22599 0.0904,0.18079 -0.0904,0.49717 0,0.67796 0.0476,0.0953 0.17834,0.13071 0.22598,0.22599 0.071,0.14204 -0.071,0.76192 0,0.90396 0.0477,0.0953 0.17835,0.1307 0.22599,0.22598 0.0674,0.13476 -0.0674,0.31723 0,0.45198 0.0476,0.0953 0.17835,0.13071 0.22599,0.22599 0.0337,0.0674 -0.0337,0.15861 0,0.22599 0.0476,0.0953 0.17835,0.1307 0.22599,0.22599 0.12076,0.24151 -0.12075,0.21047 0,0.45198 0.0476,0.0953 0.17835,0.1307 0.22599,0.22598 0.0337,0.0674 -0.0337,0.15862 0,0.22599 0.0476,0.0953 0.17835,0.13071 0.22599,0.22599 0.0904,0.18079 -0.0904,0.49718 0,0.67797 0.0476,0.0953 0.17834,0.1307 0.22599,0.22599 0.0337,0.0674 -0.0337,0.15861 0,0.22598 0.0476,0.0953 0.17834,0.13071 0.22599,0.22599 0.071,0.14204 -0.071,0.76192 0,0.90396 0.0476,0.0953 0.17834,0.1307 0.22598,0.22599 0.071,0.14204 -0.071,0.76191 0,0.90395 0.0477,0.0953 0.17835,0.13071 0.22599,0.22599 0.0904,0.18079 -0.0904,0.49718 0,0.67797 0.0477,0.0953 0.17835,0.1307 0.22599,0.22599 0.0674,0.13475 -0.10653,0.34544 0,0.45197 0.0533,0.0533 0.17272,-0.0533 0.22599,0 0.0793,0.0793 -0.078,0.97385 0,1.12995 0.0476,0.0953 0.17835,0.1307 0.22599,0.22598 0.0292,0.0584 0,1.19576 0,1.35594 0,0.0753 0,0.15066 0,0.22599 0,0.0753 -0.0533,0.17272 0,0.22598 0.0533,0.0533 0.17272,-0.0533 0.22599,0 0.10653,0.10654 -0.0674,0.31723 0,0.45198 0.0476,0.0953 0.17834,0.13071 0.22599,0.22599 0.0904,0.18079 -0.0904,0.49718 0,0.67797 0.0476,0.0953 0.17834,0.1307 0.22599,0.22599 0.0337,0.0674 0,0.15065 0,0.22598 0,0.0753 0,0.15066 0,0.22599 0,0.0753 0,0.15066 0,0.22599 0,0.0753 0.0753,0.22599 0,0.22599 -0.0753,0 0.0533,-0.17272 0,-0.22599 -0.19206,-0.19205 -0.45198,-0.30132 -0.67797,-0.45198"
     id="path829"
     inkscape:connector-curvature="0" />
</svg>
