<?xml version="1.0" encoding="UTF-8" standalone="no"?>
<!-- Created with Inkscape (http://www.inkscape.org/) -->

<svg
   xmlns:dc="http://purl.org/dc/elements/1.1/"
   xmlns:cc="http://creativecommons.org/ns#"
   xmlns:rdf="http://www.w3.org/1999/02/22-rdf-syntax-ns#"
   xmlns:svg="http://www.w3.org/2000/svg"
   xmlns="http://www.w3.org/2000/svg"
   xmlns:sodipodi="http://sodipodi.sourceforge.net/DTD/sodipodi-0.dtd"
   xmlns:inkscape="http://www.inkscape.org/namespaces/inkscape"
   version="1.1"
   id="svg2"
   width="56.530025"
   height="147.40591"
   viewBox="0 0 56.530025 147.40591"
   sodipodi:docname="Figure-Angle-Forces-pattern-60.svg"
   inkscape:version="0.92.3 (2405546, 2018-03-11)">
  <metadata
     id="metadata8">
    <rdf:RDF>
      <cc:Work
         rdf:about="">
        <dc:format>image/svg+xml</dc:format>
        <dc:type
           rdf:resource="http://purl.org/dc/dcmitype/StillImage" />
        <dc:title></dc:title>
      </cc:Work>
    </rdf:RDF>
  </metadata>
  <defs
     id="defs6" />
  <sodipodi:namedview
     pagecolor="#ffffff"
     bordercolor="#666666"
     borderopacity="1"
     objecttolerance="10"
     gridtolerance="10"
     guidetolerance="10"
     inkscape:pageopacity="0"
     inkscape:pageshadow="2"
     inkscape:window-width="1920"
     inkscape:window-height="1012"
     id="namedview4"
     showgrid="false"
     fit-margin-top="5"
     fit-margin-left="5"
     fit-margin-right="5"
     fit-margin-bottom="5"
     inkscape:zoom="5.0848485"
     inkscape:cx="-29.810711"
     inkscape:cy="88.421787"
     inkscape:window-x="0"
     inkscape:window-y="32"
     inkscape:window-maximized="1"
     inkscape:current-layer="svg2" />
  <path
     style="fill:none;stroke:#000000;stroke-width:2.5999999;stroke-linecap:butt;stroke-linejoin:miter;stroke-miterlimit:4;stroke-dasharray:none;stroke-opacity:1"
     d="m 5.2761588,141.13559 c 4.02012,-0.87394 45.6197002,-24.12076 45.6197002,-24.12076"
     id="path817"
     inkscape:connector-curvature="0" />
  <path
     style="fill:none;stroke:#000000;stroke-width:1px;stroke-linecap:butt;stroke-linejoin:miter;stroke-opacity:1"
     d="m 35.951469,123.91897 c 0,-0.40784 0,-0.81568 0,-1.22352 0,-0.11652 0.0369,-0.23903 0,-0.34958 -0.0412,-0.12359 -0.13359,-0.22598 -0.17478,-0.34957 -0.0184,-0.0553 0.0412,-0.13359 0,-0.17479 -0.36165,-0.36164 0.0141,0.55264 -0.34958,-0.17479 -0.0521,-0.10422 0.0824,-0.26718 0,-0.34957 -0.0412,-0.0412 -0.14873,0.0521 -0.17479,0 -0.0521,-0.10423 0.0369,-0.23903 0,-0.34958 -0.026,-0.0782 -0.13794,-0.10109 -0.17479,-0.17479 -0.026,-0.0521 0.0412,-0.13359 0,-0.17479 -0.0921,-0.0921 -0.27731,-0.0664 -0.34957,-0.17478 -0.0646,-0.097 0.0521,-0.24536 0,-0.34958 -0.0261,-0.0521 -0.13359,0.0412 -0.17479,0 -0.0412,-0.0412 0.0521,-0.14873 0,-0.17479 -0.10422,-0.0521 -0.26718,0.0824 -0.34958,0 -0.0421,-0.0421 0.0421,-0.65709 0,-0.69915 -0.0412,-0.0412 -0.13359,0.0412 -0.17479,0 -0.0412,-0.0412 0.0261,-0.12268 0,-0.17479 -0.0232,-0.0464 -0.47795,-0.50116 -0.52436,-0.52436 -0.0521,-0.0261 -0.14873,0.0521 -0.17479,0 -0.0521,-0.10423 0.0368,-0.23903 0,-0.34958 -0.11755,-0.35267 -0.34963,-1.2e-4 -0.52436,-0.34958 -0.0699,-0.13983 0.0699,-0.38453 0,-0.52436 -0.0369,-0.0737 -0.13794,-0.10109 -0.17479,-0.17479 -0.0261,-0.0521 0,-0.11652 0,-0.17479 -0.0583,-0.0583 -0.13794,-0.10109 -0.17479,-0.17479 -0.0549,-0.10985 0.0549,-0.58929 0,-0.69915 -0.0369,-0.0737 -0.13794,-0.10109 -0.17479,-0.17479 -0.023,-0.046 0,-0.60775 0,-0.69915 0,-0.12157 -0.0316,-0.81073 0,-0.87394 0.0368,-0.0737 0.13794,-0.10109 0.17479,-0.17479 0.0549,-0.10986 -0.0549,-0.58929 0,-0.69915 0.0368,-0.0737 0.13794,-0.10109 0.17479,-0.17479 0.0699,-0.13983 -0.0699,-0.38453 0,-0.52436 0.0368,-0.0737 0.13794,-0.10109 0.17479,-0.17479 0.0551,-0.11027 -0.0551,-0.76367 0,-0.87394 0.0368,-0.0737 0.13794,-0.10109 0.17479,-0.17479 0.0316,-0.0632 0,-0.75237 0,-0.87394 0,-0.0691 0.0373,-0.79929 0,-0.87394 -0.0369,-0.0737 -0.13794,-0.10109 -0.17479,-0.17479 -0.0261,-0.0521 0,-0.11652 0,-0.17479 -0.11653,-0.11652 -0.25817,-0.21246 -0.34958,-0.34957 -0.0323,-0.0485 0.0412,-0.13359 0,-0.17479 -0.0412,-0.0412 -0.13359,0.0412 -0.17479,0 -0.0412,-0.0412 0.0261,-0.12268 0,-0.17479 -0.0369,-0.0737 -0.11652,-0.11653 -0.17479,-0.17479 -0.0583,-0.0583 -0.10109,-0.13794 -0.17478,-0.17479 -0.0521,-0.026 -0.12268,0.0261 -0.17479,0 -0.0335,-0.0167 -0.68242,-0.66569 -0.69915,-0.69915 -0.0261,-0.0521 0.026,-0.12268 0,-0.17479 -0.0737,-0.14739 -0.25817,-0.21246 -0.34958,-0.34957 -0.0723,-0.1084 -0.10252,-0.24118 -0.17479,-0.34958 -0.0457,-0.0686 -0.11652,-0.11652 -0.17479,-0.17479 -0.0583,-0.0583 -0.10109,-0.13794 -0.17478,-0.17479 -0.0521,-0.026 -0.14874,0.0521 -0.17479,0 -0.0521,-0.10422 0.0369,-0.23903 0,-0.34957 -0.0521,-0.15634 -0.27588,-0.20218 -0.34958,-0.34958 -0.0558,-0.11169 0.0469,-0.55846 0,-0.69915 -0.0412,-0.12359 -0.13359,-0.22598 -0.17479,-0.34958 -0.0377,-0.11303 0,-0.68309 0,-0.87394 0,-0.69915 0,-1.3983 0,-2.09746 0,-2.097454 0,-4.194914 0,-6.292374 0,-0.58263 0,-1.16525 0,-1.74788 0,-0.0914 0.023,-0.65319 0,-0.69915 -0.0368,-0.0737 -0.13794,-0.10109 -0.17479,-0.17479 -0.026,-0.0521 0.0261,-0.12268 0,-0.17479 -0.0368,-0.0737 -0.13793,-0.10109 -0.17478,-0.17479 -0.0516,-0.10313 0.0401,-0.40414 0,-0.52436 -0.0412,-0.12359 -0.13359,-0.22598 -0.17479,-0.34958 -0.0184,-0.0553 0.026,-0.12267 0,-0.17479 -0.39997,-0.79993 0.0724,0.7417 -0.34958,-0.52436 -0.0369,-0.11055 0.0521,-0.24535 0,-0.34958 -0.39997,-0.79993 0.0724,0.7417 -0.34957,-0.52436 -0.0369,-0.11055 0.0368,-0.23903 0,-0.34958 -0.42203,-1.26606 0.0504,0.27558 -0.34958,-0.52436 -0.0521,-0.10422 0.0646,-0.25262 0,-0.34958 -0.0914,-0.13711 -0.25817,-0.21246 -0.34958,-0.34957 -0.0646,-0.097 0.0521,-0.24536 0,-0.34958 -0.0369,-0.0737 -0.13794,-0.10109 -0.17478,-0.17479 -0.0521,-0.10422 0.0521,-0.24535 0,-0.34957 -0.0369,-0.0737 -0.13794,-0.1011 -0.17479,-0.17479 -0.0261,-0.0521 0.026,-0.12268 0,-0.17479 -0.0619,-0.12387 -0.28764,-0.22571 -0.34958,-0.34958 -0.0699,-0.13983 0.0699,-0.38453 0,-0.52436 -0.0369,-0.0737 -0.13794,-0.10109 -0.17479,-0.17479 -0.026,-0.0521 0.0261,-0.12268 0,-0.17479 -0.0369,-0.0737 -0.13794,-0.10109 -0.17479,-0.17479 -0.0521,-0.10422 0.0521,-0.24535 0,-0.34957 -0.0368,-0.0737 -0.13793,-0.10109 -0.17478,-0.17479 -0.0261,-0.0521 0.026,-0.12268 0,-0.17479 -0.0369,-0.0737 -0.13794,-0.10109 -0.17479,-0.17479 -0.0261,-0.0521 0.026,-0.12267 0,-0.17479 -0.0369,-0.0737 -0.14873,-0.0966 -0.17479,-0.17478 -0.0368,-0.11055 0.0368,-0.23903 0,-0.349581 -0.0261,-0.07817 -0.14873,-0.09662 -0.17479,-0.174788 -0.0368,-0.110546 0,-0.233051 0,-0.349576 0,-0.05826 0.0261,-0.122677 0,-0.174789 -0.0737,-0.147394 -0.29746,-0.193241 -0.34957,-0.349576 -0.0422,-0.126485 0.0576,-0.641536 0,-0.699152 -0.0412,-0.0412 -0.13359,0.0412 -0.17479,0 -0.0421,-0.04206 0.0421,-0.657094 0,-0.699153 -0.36165,-0.361643 0.0141,0.552638 -0.34958,-0.174788 -0.026,-0.05211 0.0184,-0.119515 0,-0.174788 -0.0412,-0.123594 -0.13359,-0.225983 -0.17479,-0.349576 -0.0184,-0.05527 0.0261,-0.122677 0,-0.174789 -0.0368,-0.0737 -0.13794,-0.101091 -0.17478,-0.174788 -0.0549,-0.109858 0.0549,-0.589294 0,-0.699152 -0.0368,-0.0737 -0.13794,-0.101091 -0.17479,-0.174788 -0.0699,-0.139831 0.0699,-0.384534 0,-0.524365 -0.0368,-0.0737 -0.13794,-0.101091 -0.17479,-0.174788 -0.0521,-0.104223 0.0824,-0.26718 0,-0.349576 -0.0412,-0.0412 -0.13359,0.0412 -0.17479,0 -0.0412,-0.0412 0,-0.116526 0,-0.174788 0,-0.05826 0,-0.116526 0,-0.174789 0,-0.699152 0,-1.398305 0,-2.097457 0,-2.447034 0,-4.894068 0,-7.341102 0,-0.757415 0,-1.51483 0,-2.272246 0,-0.121572 0.0316,-0.810731 0,-0.87394 -0.0368,-0.0737 -0.14873,-0.09662 -0.17479,-0.174788 -0.0322,-0.09666 0,-0.872708 0,-1.048729 0,-0.07872 0.0266,-0.471171 0,-0.524365 -0.0368,-0.0737 -0.13794,-0.101091 -0.17479,-0.174788 -0.0481,-0.09619 0.0456,-0.912081 0,-1.048729 -0.026,-0.07817 -0.13794,-0.101091 -0.17478,-0.174788 -0.0481,-0.09619 0.0456,-0.91208 0,-1.048729 -0.0261,-0.07817 -0.14874,-0.09662 -0.17479,-0.174788 -0.0368,-0.110545 0.0369,-0.23903 0,-0.349576 -0.0261,-0.07817 -0.14873,-0.09662 -0.17479,-0.174788 -0.0483,-0.144763 0.0556,-0.762786 0,-0.873941 -0.39997,-0.799936 0.0724,0.741699 -0.34958,-0.524364 -0.0368,-0.110546 0.0521,-0.245353 0,-0.349576 -0.0368,-0.0737 -0.13794,-0.101091 -0.17478,-0.174789 -0.0549,-0.109858 0.0549,-0.589294 0,-0.699152 -0.0369,-0.0737 -0.13794,-0.101091 -0.17479,-0.174788 -0.0261,-0.05211 0.026,-0.122677 0,-0.174788 -0.0369,-0.0737 -0.13794,-0.101091 -0.17479,-0.174789 -0.0521,-0.104223 0.0521,-0.245352 0,-0.349576 -0.0369,-0.0737 -0.14873,-0.09662 -0.17479,-0.174788 -0.0369,-0.110546 0,-0.233051 0,-0.349576 0,-0.05826 0.0261,-0.122677 0,-0.174788 -0.0737,-0.147395 -0.27588,-0.202182 -0.34958,-0.349577 -0.0474,-0.09482 0.0478,-0.651326 0,-0.699152 -0.0412,-0.0412 -0.13359,0.0412 -0.17478,0 -0.0824,-0.0824 0.0521,-0.245353 0,-0.349576 -0.0369,-0.0737 -0.13794,-0.101091 -0.17479,-0.174789 -0.0266,-0.05319 0,-0.445647 0,-0.524364 0,-0.466102 0,-0.932203 0,-1.398305 0,-0.05826 0,-0.116526 0,-0.174788 0,-0.05826 -0.0412,-0.13359 0,-0.174788 0.0412,-0.0412 0.13359,0.0412 0.17479,0 0.0412,-0.0412 0,-0.116526 0,-0.174788 0,-0.407839 0,-0.815678 0,-1.223517 0,-0.582628 0,-1.165255 0,-1.747882 0,-0.0914 0.023,-0.653193 0,-0.699152 -0.0369,-0.0737 -0.13794,-0.101091 -0.17479,-0.174788 -0.0261,-0.05211 0.026,-0.122677 0,-0.174789 -0.0369,-0.0737 -0.13794,-0.101091 -0.17479,-0.174788 -0.0699,-0.13983 0.0699,-0.384534 0,-0.524364 -0.0369,-0.0737 -0.13794,-0.101091 -0.17479,-0.174788 -0.0558,-0.111694 0.0469,-0.558466 0,-0.699153 -0.0412,-0.123594 -0.14319,-0.223187 -0.17479,-0.349576 -0.0283,-0.113046 0,-0.233051 0,-0.349576 0,-0.05826 0.0261,-0.122677 0,-0.174789 -0.0368,-0.0737 -0.14873,-0.09662 -0.17478,-0.174788 -0.0724,-0.217077 0.0574,-0.644127 0,-0.87394 0.10535,-0.316356 -0.28315,-0.325076 -0.34958,-0.524365 -0.0368,-0.110545 0.0283,-0.23653 0,-0.349576 -0.0316,-0.12639 -0.13359,-0.225982 -0.17479,-0.349576 -0.0184,-0.05527 0.0184,-0.119516 0,-0.174788 -0.0412,-0.123594 -0.13359,-0.225983 -0.17479,-0.349577 -0.0368,-0.110545 0.0369,-0.23903 0,-0.349576 -0.0412,-0.123594 -0.14319,-0.223187 -0.17478,-0.349576 -0.0283,-0.113046 0.0368,-0.239031 0,-0.349577 -0.0261,-0.07817 -0.13794,-0.10109 -0.17479,-0.174788 -0.0261,-0.05211 0.026,-0.122676 0,-0.174788 -0.0368,-0.0737 -0.13794,-0.101091 -0.17479,-0.174788 -0.0521,-0.104223 0.0369,-0.23903 0,-0.349576 -0.42202,-1.266063 0.0504,0.275572 -0.34958,-0.524365 -0.026,-0.05211 0.0261,-0.122676 0,-0.174788 -0.0368,-0.0737 -0.14873,-0.09662 -0.17479,-0.174788 -0.0368,-0.110546 0.0646,-0.252621 0,-0.349576 -0.0723,-0.108399 -0.25745,-0.08267 -0.34957,-0.174788 -0.0576,-0.05762 0.0422,-0.572668 0,-0.699153 -0.0394,-0.118358 -0.45761,-0.390846 -0.52437,-0.524364 -0.0261,-0.05211 0.0261,-0.122677 0,-0.174788 -0.0368,-0.0737 -0.14873,-0.09662 -0.17478,-0.174788 -0.0369,-0.110546 0,-0.233051 0,-0.349577 0,-0.05826 0.026,-0.122676 0,-0.174788 -0.0737,-0.147394 -0.27588,-0.202182 -0.34958,-0.349576 -0.0516,-0.103129 0.0401,-0.40414 0,-0.524365 -0.42202,-1.266063 0.0504,0.275573 -0.34958,-0.524364 -0.0549,-0.109858 0.0549,-0.589294 0,-0.699153 -0.0369,-0.0737 -0.13794,-0.101091 -0.17478,-0.174788 -0.023,-0.04596 0,-0.607752 0,-0.699152 0,-0.466102 0,-0.932204 0,-1.398305 0,-1.631356 0,-3.262712 0,-4.894068 0,-0.524365 0,-1.048729 0,-1.573093 0,-0.05826 0,-0.116526 0,-0.174788 0,-0.05826 0.0412,-0.133591 0,-0.174789 -0.0412,-0.0412 -0.13359,0.0412 -0.17479,0 -0.0517,-0.05172 0.0541,-0.590886 0,-0.699152 -0.0737,-0.147394 -0.27588,-0.202182 -0.34958,-0.349576 -0.0516,-0.103129 0.0401,-0.40414 0,-0.524365 -0.42202,-1.266063 0.0504,0.275572 -0.34958,-0.524364 -0.0521,-0.104224 0.0521,-0.245353 0,-0.349576 -0.0368,-0.0737 -0.12908,-0.106231 -0.17478,-0.174789 -0.0723,-0.108399 -0.10253,-0.241177 -0.17479,-0.349576 -0.0914,-0.137115 -0.25817,-0.212461 -0.34958,-0.349576 -0.0723,-0.108399 -0.13359,-0.225983 -0.17479,-0.349576 -0.0184,-0.05527 0.0412,-0.133591 0,-0.174789 -0.0412,-0.0412 -0.12267,0.02606 -0.17478,0 -0.0737,-0.03685 -0.11653,-0.116525 -0.17479,-0.174788 -0.0583,-0.05826 -0.12909,-0.10623 -0.17479,-0.174788 -0.0723,-0.108399 -0.0827,-0.257455 -0.17479,-0.349576 -0.0921,-0.09212 -0.25745,-0.08267 -0.34957,-0.174788 -1.7e-4,-1.67e-4 2.6e-4,-0.523572 0,-0.524365 0.0653,-0.380778 -0.29132,-0.05826 -0.34958,-0.174788 -0.0782,-0.156335 0.0782,-0.368029 0,-0.524364 -0.0737,-0.147395 -0.27588,-0.202182 -0.34958,-0.349576 -0.026,-0.05211 0,-0.116526 0,-0.174789 -0.0583,-0.05826 -0.13794,-0.101091 -0.17479,-0.174788 -0.0521,-0.104223 0.0521,-0.245353 0,-0.349576 -0.0368,-0.0737 -0.13794,-0.101091 -0.17478,-0.174788 -0.0699,-0.139831 0.0699,-0.384534 0,-0.524365 -0.0368,-0.0737 -0.13794,-0.101091 -0.17479,-0.174788 -0.0261,-0.05211 0,-0.116525 0,-0.174788 0,-0.05826 0,-0.116525 0,-0.174788 0,-0.291314 0,-0.582627 0,-0.873941 0,-0.05826 0.0261,-0.122676 0,-0.174788 -0.0368,-0.0737 -0.13794,-0.101091 -0.17479,-0.174788 -0.023,-0.04596 0,-0.607752 0,-0.699152 0,-0.466102 0,-0.932204 0,-1.398306 0,-1.223516 0,-2.447033 0,-3.67055 0,-0.466102 0,-0.932204 0,-1.398305 0,-0.05826 0,-0.116526 0,-0.174789 0,-0.05826 0.0412,-0.13359 0,-0.174788 -0.0412,-0.0412 -0.13359,0.0412 -0.17479,0 -0.0517,-0.05172 0.0541,-0.590886 0,-0.699152 -0.0369,-0.0737 -0.10109,-0.13794 -0.17479,-0.174788 -0.0521,-0.02606 -0.14873,0.05211 -0.17478,0 -0.0521,-0.104224 0.0368,-0.239031 0,-0.349577 -0.0261,-0.07817 -0.13794,-0.101091 -0.17479,-0.174788 -0.0521,-0.104223 0.0368,-0.23903 0,-0.349576 -0.42202,-1.266063 0.0504,0.275572 -0.34958,-0.524365 -0.0266,-0.05319 0,-0.445647 0,-0.524364"
     id="path819"
     inkscape:connector-curvature="0" />
  <path
     style="fill:none;stroke:#000000;stroke-width:1px;stroke-linecap:butt;stroke-linejoin:miter;stroke-opacity:1"
     d="m 45.477429,118.9375 c -0.52112,-0.16829 0.13028,-0.61338 0,-0.87394 -0.0368,-0.0737 -0.14874,-0.0966 -0.17479,-0.17478 -0.0737,-0.2211 0.0737,-0.47807 0,-0.69916 -0.0261,-0.0782 -0.12909,-0.10623 -0.17479,-0.17479 -0.0583,-0.11652 -0.11653,-0.23305 -0.17479,-0.34957 0,-0.0583 0.0261,-0.12268 0,-0.17479 -0.18581,-0.37161 -0.16377,0.022 -0.34957,-0.34958 -0.0261,-0.0521 0.026,-0.12267 0,-0.17478 -0.0368,-0.0737 -0.13794,-0.10109 -0.17479,-0.17479 -0.0261,-0.0521 0.026,-0.12268 0,-0.17479 -0.0368,-0.0737 -0.13794,-0.10109 -0.17479,-0.17479 -0.0521,-0.10422 0.0824,-0.26718 0,-0.34957 -0.0921,-0.0921 -0.25746,-0.0827 -0.34958,-0.17479 -0.0412,-0.0412 0.0261,-0.12268 0,-0.17479 -0.0368,-0.0737 -0.13794,-0.10109 -0.17479,-0.17479 -0.026,-0.0521 0.0261,-0.12268 0,-0.17479 -0.0368,-0.0737 -0.11652,-0.11652 -0.17478,-0.17479 -0.0583,-0.0583 -0.10623,-0.12908 -0.17479,-0.17478 -0.1084,-0.0723 -0.24118,-0.10253 -0.34958,-0.17479 -0.0686,-0.0457 -0.10109,-0.13794 -0.17479,-0.17479 -0.0521,-0.0261 -0.14873,0.0521 -0.17478,0 -0.0521,-0.10422 0.0521,-0.24535 0,-0.34958 -0.0261,-0.0521 -0.12268,0.0261 -0.17479,0 -0.0737,-0.0368 -0.11653,-0.11652 -0.17479,-0.17478 -0.5797,-0.5797 0.0824,0.16479 -0.17479,-0.34958 -0.086,-0.172 -0.61315,-0.52716 -0.69915,-0.69915 -0.0261,-0.0521 0.026,-0.12268 0,-0.17479 -0.0369,-0.0737 -0.13794,-0.10109 -0.17479,-0.17479 -0.0261,-0.0521 0.0261,-0.12268 0,-0.17479 -0.0369,-0.0737 -0.13794,-0.10109 -0.17479,-0.17479 -0.026,-0.0521 0.0261,-0.12267 0,-0.17478 -0.0368,-0.0737 -0.13794,-0.10109 -0.17479,-0.17479 -0.026,-0.0521 0.0261,-0.12268 0,-0.17479 -0.0737,-0.14739 -0.25816,-0.21246 -0.34957,-0.34958 -0.58867,-0.88299 -0.001,-0.004 -0.17479,-0.52436 -0.0412,-0.12359 -0.10252,-0.24118 -0.17479,-0.34958 -0.0457,-0.0685 -0.14873,-0.0966 -0.17479,-0.17478 -0.0368,-0.11055 0.0369,-0.23904 0,-0.34958 -0.0521,-0.15634 -0.27588,-0.20218 -0.34957,-0.34958 -0.0261,-0.0521 0,-0.11652 0,-0.17479 -0.0583,-0.0583 -0.13794,-0.10109 -0.17479,-0.17478 -0.0521,-0.10423 0.0521,-0.24536 0,-0.34958 -0.0737,-0.14739 -0.27588,-0.20218 -0.34958,-0.34958 -0.026,-0.0521 0.0261,-0.12267 0,-0.17478 -0.0368,-0.0737 -0.13794,-0.1011 -0.17479,-0.17479 -0.026,-0.0521 0.0412,-0.13359 0,-0.17479 -0.36164,-0.36164 0.0141,0.55264 -0.34957,-0.17479 -0.0261,-0.0521 0.026,-0.12268 0,-0.17479 -0.0368,-0.0737 -0.13794,-0.10109 -0.17479,-0.17479 -0.0261,-0.0521 0.0261,-0.12267 0,-0.17478 -0.0737,-0.1474 -0.27588,-0.20219 -0.34958,-0.34958 -0.0261,-0.0521 0.0261,-0.12268 0,-0.17479 -0.0368,-0.0737 -0.13794,-0.10109 -0.17478,-0.17479 -0.0261,-0.0521 0,-0.11652 0,-0.17478 -0.0583,-0.0583 -0.12909,-0.10623 -0.17479,-0.17479 -0.26793,-0.40189 -0.0817,-0.47205 -0.34958,-0.87394 -0.0914,-0.13712 -0.27588,-0.20218 -0.34957,-0.34958 -0.0261,-0.0521 0.0184,-0.11951 0,-0.17479 -0.42203,-1.26606 0.0504,0.27558 -0.34958,-0.52436 -0.0261,-0.0521 0.026,-0.12268 0,-0.17479 -0.0737,-0.14739 -0.27588,-0.20218 -0.34958,-0.34958 -0.026,-0.0521 0.0261,-0.12267 0,-0.17478 -0.0369,-0.0737 -0.13794,-0.1011 -0.17479,-0.17479 -0.026,-0.0521 0.0261,-0.12268 0,-0.17479 -0.0368,-0.0737 -0.13793,-0.10109 -0.17478,-0.17479 -0.0261,-0.0521 0.026,-0.12267 0,-0.17479 -0.0369,-0.0737 -0.13794,-0.10109 -0.17479,-0.17478 -0.0261,-0.0521 0.026,-0.12268 0,-0.17479 -0.0369,-0.0737 -0.13794,-0.10109 -0.17479,-0.17479 -0.0261,-0.0521 0.0261,-0.12268 0,-0.17479 -0.0368,-0.0737 -0.13794,-0.10109 -0.17479,-0.17479 -0.0516,-0.10313 0.0401,-0.40414 0,-0.52436 -0.42202,-1.266074 0.0504,0.27557 -0.34957,-0.52437 -0.0261,-0.0521 0.026,-0.12267 0,-0.17478 -0.0368,-0.0737 -0.14874,-0.0966 -0.17479,-0.174794 -0.0368,-0.11055 0,-0.23305 0,-0.34958 0,-0.0583 0.026,-0.12268 0,-0.17479 -0.0737,-0.14739 -0.29747,-0.19324 -0.34958,-0.34957 -0.0553,-0.16582 0,-0.34958 0,-0.52437 0,-0.0583 0.0521,-0.14873 0,-0.17479 -0.10422,-0.0521 -0.24535,0.0521 -0.34957,0 -0.0521,-0.026 0,-0.11652 0,-0.17478 0,-0.11653 0.0368,-0.23903 0,-0.34958 -0.0261,-0.0782 -0.13794,-0.10109 -0.17479,-0.17479 -0.0261,-0.0521 0,-0.11652 0,-0.17479 0,-0.11652 0.0369,-0.23903 0,-0.34957 -0.0261,-0.0782 -0.13794,-0.10109 -0.17479,-0.17479 -0.0261,-0.0521 0.026,-0.12268 0,-0.17479 -0.0737,-0.14739 -0.27588,-0.20218 -0.34958,-0.34958 -0.0699,-0.13983 0.0699,-0.38453 0,-0.52436 -0.0368,-0.0737 -0.13794,-0.10109 -0.17479,-0.17479 -0.0521,-0.10422 0.0824,-0.26718 0,-0.34957 -0.0824,-0.0824 -0.26718,0.0824 -0.34957,0 -0.0412,-0.0412 0.0261,-0.12268 0,-0.17479 -0.0368,-0.0737 -0.13794,-0.10109 -0.17479,-0.17479 -0.0521,-0.10422 0.0521,-0.24535 0,-0.34958 -0.0737,-0.14739 -0.25817,-0.21246 -0.34958,-0.34957 -0.0723,-0.1084 -0.13359,-0.22599 -0.17478,-0.34958 -0.0184,-0.0553 0.0412,-0.13359 0,-0.17479 -0.36165,-0.36164 0.0141,0.55264 -0.34958,-0.17479 -0.0261,-0.0521 0.0184,-0.11951 0,-0.17478 -0.42202,-1.26607 0.0504,0.27557 -0.34958,-0.52437 -0.026,-0.0521 0.0261,-0.12267 0,-0.17479 -0.0737,-0.14739 -0.29746,-0.19324 -0.34957,-0.34957 -0.0422,-0.12649 0.0576,-0.64154 0,-0.69915 -0.0921,-0.0921 -0.25746,-0.0827 -0.34958,-0.17479 -0.0824,-0.0824 0.0521,-0.24536 0,-0.34958 -0.0369,-0.0737 -0.13794,-0.10109 -0.17479,-0.17479 -0.026,-0.0521 0.0261,-0.12267 0,-0.17479 -0.0368,-0.0737 -0.13794,-0.10109 -0.17479,-0.17478 -0.026,-0.0521 0.0261,-0.12268 0,-0.17479 -0.0368,-0.0737 -0.13794,-0.10109 -0.17478,-0.17479 -0.0261,-0.0521 0.026,-0.12268 0,-0.17479 -0.0737,-0.14739 -0.29747,-0.19324 -0.34958,-0.34957 -0.0422,-0.12649 0.0576,-0.64154 0,-0.69916 -0.0412,-0.0412 -0.13359,0.0412 -0.17479,0 -0.0412,-0.0412 0,-0.11652 0,-0.17478 0,-0.0583 0,-0.11653 0,-0.17479 0,-0.11653 0,-0.23305 0,-0.34958 0,-0.0583 0.0261,-0.12268 0,-0.17479 -0.0737,-0.14739 -0.27588,-0.20218 -0.34957,-0.34957 -0.0699,-0.13983 0.0699,-0.38454 0,-0.52437 -0.0368,-0.0737 -0.14874,-0.0966 -0.17479,-0.17479 -0.0368,-0.11054 0.0283,-0.23653 0,-0.34957 -0.0316,-0.12639 -0.13359,-0.22599 -0.17479,-0.34958 -0.0184,-0.0553 0.0184,-0.11951 0,-0.17479 -0.0412,-0.12359 -0.14319,-0.22318 -0.17479,-0.34957 -0.0283,-0.11305 0.0369,-0.23903 0,-0.34958 -0.026,-0.0782 -0.14873,-0.0966 -0.17479,-0.17479 -0.0368,-0.11054 0.0283,-0.23653 0,-0.34957 0.10535,-0.31636 -0.28314,-0.32508 -0.34957,-0.52437 -0.0737,-0.22109 0.0737,-0.478059 0,-0.699151 -0.0261,-0.07817 -0.14874,-0.09662 -0.17479,-0.174788 -0.0368,-0.110546 0,-0.233051 0,-0.349576 0,-0.05826 0.026,-0.122677 0,-0.174788 -0.0737,-0.147395 -0.27588,-0.202182 -0.34958,-0.349577 -0.0541,-0.108266 0.0517,-0.647436 0,-0.699152 -0.0412,-0.0412 -0.13359,0.0412 -0.17479,0 -0.039,-0.03898 0.0346,-0.769993 0,-0.873941 -0.0261,-0.07817 -0.13794,-0.101091 -0.17478,-0.174788 -0.0531,-0.106135 0.0531,-0.942594 0,-1.048729 -0.0369,-0.0737 -0.13794,-0.101091 -0.17479,-0.174788 -0.0389,-0.07778 0.0266,-0.619207 0,-0.699153 -0.0521,-0.156335 -0.27588,-0.202182 -0.34958,-0.349576 -0.0389,-0.07778 0.0266,-0.619207 0,-0.699152 -0.21598,-0.647959 -0.17479,0.213058 -0.17479,-0.349577 0,-0.116525 0,-0.233051 0,-0.349576 0,-0.05826 0.0412,-0.13359 0,-0.174788 -0.0412,-0.0412 -0.14873,0.05211 -0.17478,0 -0.0536,-0.107276 0.0542,-0.765589 0,-0.873941 -0.5797,-0.579699 0.0824,0.164792 -0.17479,-0.349576 -0.0369,-0.0737 -0.14874,-0.09662 -0.17479,-0.174788 -0.0874,-0.262182 0.0874,-0.611759 0,-0.873941 -0.0521,-0.156335 -0.27588,-0.202182 -0.34958,-0.349576 -0.0389,-0.07778 0.0266,-0.619207 0,-0.699153 -0.026,-0.07817 -0.13794,-0.101091 -0.17479,-0.174788 -0.0699,-0.13983 0.0699,-0.384534 0,-0.524364 -0.0368,-0.0737 -0.13793,-0.101091 -0.17478,-0.174788 -0.0549,-0.109859 0.0549,-0.589295 0,-0.699153 -0.0369,-0.0737 -0.13794,-0.101091 -0.17479,-0.174788 -0.0226,-0.04519 0,-0.924839 0,-1.048729 0,-0.05826 0.026,-0.122676 0,-0.174788 -0.0369,-0.0737 -0.13794,-0.101091 -0.17479,-0.174788 -0.0261,-0.05211 0,-0.116526 0,-0.174788 0,-0.05826 0,-0.116526 0,-0.174788 0,-0.291314 0,-0.582627 0,-0.873941 0,-0.116525 0,-0.233051 0,-0.349576 0,-0.05826 0.0261,-0.122677 0,-0.174788 -0.0368,-0.0737 -0.14873,-0.09662 -0.17479,-0.174789 -0.0341,-0.102264 0,-0.898703 0,-1.048728 0,-0.05826 0.0261,-0.122677 0,-0.174789 -0.0368,-0.0737 -0.13794,-0.101091 -0.17479,-0.174788 -0.0579,-0.115836 0.0488,-0.552658 0,-0.699152 -0.0412,-0.123594 -0.13359,-0.225983 -0.17478,-0.349576 -0.0524,-0.15731 0.0524,-0.367056 0,-0.524365 -0.0261,-0.07817 -0.14874,-0.09662 -0.17479,-0.174788 -0.0368,-0.110546 0.0283,-0.23653 0,-0.349576 -0.0316,-0.12639 -0.13359,-0.225983 -0.17479,-0.349577 -0.0184,-0.05527 0.0184,-0.119515 0,-0.174788 -0.0412,-0.123594 -0.13359,-0.225982 -0.17479,-0.349576 -0.0184,-0.05527 0.0261,-0.122676 0,-0.174788 -0.0368,-0.0737 -0.14873,-0.09662 -0.17479,-0.174788 -0.0422,-0.126485 0.0576,-0.641536 0,-0.699153 -0.0412,-0.0412 -0.13359,0.0412 -0.17478,0 -0.0412,-0.0412 0.0184,-0.119515 0,-0.174788 -0.0412,-0.123594 -0.1336,-0.225982 -0.17479,-0.349576 -0.0368,-0.110546 0.0521,-0.245353 0,-0.349576 -0.0368,-0.0737 -0.13794,-0.101091 -0.17479,-0.174789 -0.0261,-0.05211 0.026,-0.122676 0,-0.174788 -0.0368,-0.0737 -0.13794,-0.101091 -0.17479,-0.174788 -0.0521,-0.104223 0.0521,-0.245353 0,-0.349576 -0.0368,-0.0737 -0.14873,-0.09662 -0.17479,-0.174788 -0.0368,-0.110546 0,-0.233051 0,-0.349577 0,-0.05826 0.0261,-0.122676 0,-0.174788 -0.39997,-0.799936 0.0725,0.741699 -0.34957,-0.524364 -0.0368,-0.110546 0.0824,-0.26718 0,-0.349576 -0.0412,-0.0412 -0.13359,0.0412 -0.17479,0 -0.0921,-0.09212 -0.10252,-0.241178 -0.17479,-0.349577 -0.0457,-0.06856 -0.13794,-0.101091 -0.17479,-0.174788 -0.026,-0.05211 0.0261,-0.122676 0,-0.174788 -0.0737,-0.147394 -0.29746,-0.193241 -0.34957,-0.349576 -0.0369,-0.110546 0.0368,-0.239031 0,-0.349576 -0.0261,-0.07817 -0.13794,-0.101091 -0.17479,-0.174789 -0.0261,-0.05211 0.026,-0.122676 0,-0.174788 -0.0369,-0.0737 -0.13794,-0.101091 -0.17479,-0.174788 -0.0261,-0.05211 0.0412,-0.13359 0,-0.174788 -0.0412,-0.0412 -0.13359,0.0412 -0.17479,0 -0.0271,-0.02712 0.0227,-0.45635 0,-0.524364 -0.42202,-1.266064 0.0504,0.275572 -0.34958,-0.524365 -0.026,-0.05211 0.0261,-0.122676 0,-0.174788 -0.12407,-0.248142 -0.2255,-0.101434 -0.34957,-0.349576 -0.0261,-0.05211 0.026,-0.122677 0,-0.174788 -0.0369,-0.0737 -0.13794,-0.101091 -0.17479,-0.174789 -0.0521,-0.104223 0.0521,-0.245352 0,-0.349576 -0.0369,-0.0737 -0.13794,-0.101091 -0.17479,-0.174788 -0.0699,-0.13983 0.0699,-0.384534 0,-0.524364 -0.0368,-0.0737 -0.13794,-0.101091 -0.17479,-0.174788 -0.026,-0.05211 0,-0.116526 0,-0.174789 0,-0.116525 0.0368,-0.23903 0,-0.349576 -0.026,-0.07817 -0.13794,-0.101091 -0.17478,-0.174788 -0.0261,-0.05211 0.026,-0.122676 0,-0.174788 -0.0368,-0.0737 -0.13794,-0.101091 -0.17479,-0.174788 -0.0261,-0.05211 0.0184,-0.119516 0,-0.174788 -0.0412,-0.123594 -0.13359,-0.225983 -0.17479,-0.349577 -0.0184,-0.05527 0.0261,-0.122676 0,-0.174788 -0.0368,-0.0737 -0.14873,-0.09662 -0.17479,-0.174788 -0.0266,-0.07995 0.0389,-0.621376 0,-0.699152 -0.0368,-0.0737 -0.13794,-0.101091 -0.17479,-0.174789 -0.026,-0.05211 0,-0.116525 0,-0.174788 0,-0.116525 0.0521,-0.245353 0,-0.349576 -0.026,-0.05211 -0.13359,0.0412 -0.17478,0 -0.0412,-0.0412 0,-0.116525 0,-0.174788 0,-0.152254 0.0323,-0.984214 0,-1.048729 -0.0368,-0.0737 -0.14874,-0.09662 -0.17479,-0.174788 -0.0266,-0.07995 0.0389,-0.621376 0,-0.699153 -0.0368,-0.0737 -0.14873,-0.09662 -0.17479,-0.174788 -0.0579,-0.17375 0.0743,-0.725421 0,-0.87394 -0.0261,-0.05211 -0.13359,0.0412 -0.17479,0 -0.0412,-0.0412 0.0261,-0.122677 0,-0.174789 -0.0368,-0.0737 -0.13794,-0.101091 -0.17479,-0.174788 -0.0346,-0.0693 0.0357,-0.488631 0,-0.524364 -0.0412,-0.0412 -0.13359,0.0412 -0.17479,0 -0.0357,-0.03573 0.0347,-0.455062 0,-0.524365 -0.0368,-0.0737 -0.13793,-0.101091 -0.17478,-0.174788 -0.0699,-0.13983 0.0699,-0.384534 0,-0.524364 -0.0368,-0.0737 -0.13794,-0.101091 -0.17479,-0.174788 -0.0699,-0.139831 0.0699,-0.384534 0,-0.524365 -0.0368,-0.0737 -0.14873,-0.09662 -0.17479,-0.174788 -0.0266,-0.07995 0.0389,-0.621376 0,-0.699152 -0.0368,-0.0737 -0.11653,-0.116526 -0.17479,-0.174788 0,-0.116526 0.0368,-0.239031 0,-0.349577 -0.0261,-0.07817 -0.13794,-0.101091 -0.17479,-0.174788 -0.0261,-0.05211 0,-0.116525 0,-0.174788 0,-0.143099 0.0377,-0.760693 0,-0.873941 -0.42202,-1.266063 0.0504,0.275573 -0.34957,-0.524364 -0.0541,-0.108266 0.0517,-0.647436 0,-0.699153 -0.0412,-0.0412 -0.13359,0.0412 -0.17479,0 -0.034,-0.03402 0.0319,-0.810116 0,-0.87394 -0.0261,-0.05211 -0.14873,0.05211 -0.17479,0 -0.0521,-0.104224 0.0283,-0.23653 0,-0.349577 -0.0316,-0.126389 -0.13359,-0.225982 -0.17479,-0.349576 -0.0369,-0.110546 0.0368,-0.23903 0,-0.349576 -0.0824,-0.247188 -0.28638,-0.446374 -0.34957,-0.699153 -0.0283,-0.113046 0.0283,-0.23653 0,-0.349576 -0.0316,-0.12639 -0.14319,-0.223187 -0.17479,-0.349576 -0.0283,-0.113046 0.0283,-0.23653 0,-0.349576 -0.0632,-0.25278 -0.28638,-0.446374 -0.34958,-0.699153 -0.0283,-0.113046 0.0283,-0.23653 0,-0.349576 -0.0316,-0.12639 -0.14319,-0.223187 -0.17479,-0.349577 -0.0283,-0.113046 0,-0.23305 0,-0.349576 -0.0583,-0.116525 -0.13359,-0.225982 -0.17478,-0.349576 -0.0184,-0.05527 0.026,-0.122677 0,-0.174788 -0.0369,-0.0737 -0.13794,-0.101091 -0.17479,-0.174788 -0.0549,-0.109859 0.0549,-0.589295 0,-0.699153 -0.0369,-0.0737 -0.13794,-0.101091 -0.17479,-0.174788 -0.0699,-0.139831 0.0699,-0.384534 0,-0.524364 -0.0368,-0.0737 -0.13794,-0.101091 -0.17479,-0.174789 -0.0549,-0.109858 0.0549,-0.589294 0,-0.699152 -0.0368,-0.0737 -0.13794,-0.101091 -0.17479,-0.174788 -0.0521,-0.104224 0.0824,-0.267181 0,-0.349577 -0.0412,-0.0412 -0.13359,0.0412 -0.17478,0 -0.0412,-0.0412 0.026,-0.122676 0,-0.174788 -0.0368,-0.0737 -0.13794,-0.101091 -0.17479,-0.174788 -0.0261,-0.05211 0.026,-0.122676 0,-0.174788 -0.0368,-0.0737 -0.13794,-0.101091 -0.17479,-0.174788 -0.0261,-0.05211 0.0412,-0.13359 0,-0.174788 -0.0412,-0.0412 -0.14873,0.05211 -0.17479,0 -0.0521,-0.104224 0.0369,-0.239031 0,-0.349577 -0.0442,-0.132627 -0.61883,-0.538512 -0.69915,-0.699152 -0.0261,-0.05211 0.0412,-0.13359 0,-0.174788 -0.23305,-0.233051 -0.16772,0.370781 -0.34958,-0.174788 0,-0.795686 0.0824,-0.01 -0.17479,-0.524365 -0.026,-0.05211 0.0412,-0.13359 0,-0.174788 -0.0412,-0.0412 -0.13359,0.0412 -0.17478,0 -0.0412,-0.0412 0.0261,-0.122676 0,-0.174788 -0.0167,-0.03346 -0.6657,-0.682424 -0.69916,-0.699153 -0.0521,-0.02605 -0.12267,0.02606 -0.17478,0 -0.1474,-0.0737 -0.20219,-0.275879 -0.34958,-0.349576 -0.0521,-0.02606 -0.13359,0.0412 -0.17479,0 -0.36164,-0.361643 0.55264,0.01414 -0.17479,-0.349576 -0.0521,-0.02606 -0.13359,0.0412 -0.17479,0 -0.0921,-0.09212 -0.10252,-0.241177 -0.17478,-0.349576 -0.10055,-0.150825 -0.38784,-0.38784 -0.52437,-0.524365 -0.0583,-0.05826 -0.13794,-0.101091 -0.1747902,-0.174788 -0.0521,-0.104223 0.0824,-0.26718 0,-0.349576 -0.0412,-0.0412 -0.14873,0.05211 -0.17478,0 -0.0521,-0.104224 0,-0.233051 0,-0.349576 0,-0.349577 0,-0.699153 0,-1.048729 0,-1.048729 0,-2.097458 0,-3.146187 0,-0.291313 0,-0.582627 0,-0.87394 0,-0.05826 0.0412,-0.133591 0,-0.174789 -0.0412,-0.0412 -0.14874,0.05211 -0.17479,0 -0.0319,-0.06382 0.034,-0.839919 0,-0.87394 -0.36164,-0.361643 0.0141,0.552638 -0.34958,-0.174788 -0.0699,-0.139831 0.0699,-0.384534 0,-0.524365 -0.0368,-0.0737 -0.13794,-0.101091 -0.17479,-0.174788 -0.0699,-0.13983 0.0699,-0.384534 0,-0.524364 -0.0368,-0.0737 -0.13794,-0.101091 -0.17478,-0.174788 -0.0261,-0.05211 0.0412,-0.133591 0,-0.174789 -0.0412,-0.0412 -0.13359,0.0412 -0.17479,0 -0.0824,-0.08239 0.0521,-0.245352 0,-0.349576 -0.0368,-0.0737 -0.13794,-0.101091 -0.17479,-0.174788 -0.0521,-0.104223 0.0521,-0.245353 0,-0.349576 -0.0368,-0.0737 -0.13794,-0.101091 -0.17479,-0.174788 -0.026,-0.05211 0.0261,-0.122677 0,-0.174789 -0.0368,-0.0737 -0.13794,-0.10109 -0.17479,-0.174788 -0.0521,-0.104223 0.0521,-0.245352 0,-0.349576 -0.0737,-0.147394 -0.29746,-0.193241 -0.34957,-0.349576 -0.0368,-0.110546 0.0521,-0.245353 0,-0.349576 -0.0261,-0.05211 -0.13359,0.0412 -0.17479,0 -0.0824,-0.0824 0.0521,-0.245353 0,-0.349577 -0.0368,-0.0737 -0.13794,-0.101091 -0.17479,-0.174788 -0.0266,-0.05319 0,-0.445647 0,-0.524364 0,-0.349577 0,-0.699153 0,-1.048729 0,-0.291314 0,-0.582627 0,-0.873941 0,-0.05826 0,-0.116525 0,-0.174788 0,-0.05826 -0.0261,-0.122676 0,-0.174788 0.0934,-0.186861 0.25615,-0.162715 0.34958,-0.349576 0.026,-0.05211 -0.0261,-0.122677 0,-0.174788 0.0405,-0.08094 0.59635,-0.596352 0.69915,-0.699153 0.40784,-0.407839 0.81568,-0.815678 1.22352,-1.223517 0.092,-0.09202 0.4776802,-0.431013 0.5243602,-0.524364 0.0261,-0.05211 -0.0261,-0.122677 0,-0.174788 0.0368,-0.0737 0.13794,-0.101091 0.17479,-0.174789 0.026,-0.05211 -0.0261,-0.122676 0,-0.174788 0.0368,-0.0737 0.13794,-0.101091 0.17479,-0.174788 0.026,-0.05211 -0.0261,-0.122676 0,-0.174788 0.0368,-0.0737 0.13794,-0.101091 0.17478,-0.174788 0.0266,-0.05319 0,-0.445647 0,-0.524365 0,-0.174788 0,-0.349576 0,-0.524364 0,-0.05826 -0.0583,-0.174788 0,-0.174788 0.0583,0 0.0583,0.174788 0,0.174788 -0.21598,0 -0.17478,-0.245117 -0.17478,-0.349576 0,-0.05826 -0.03,-0.124828 0,-0.174788 0.14988,-0.2498 0.34957,-0.466102 0.52436,-0.699153"
     id="path821"
     inkscape:connector-curvature="0" />
  <path
     style="fill:none;stroke:#000000;stroke-width:1px;stroke-linecap:butt;stroke-linejoin:miter;stroke-opacity:1"
     d="m 50.895859,117.01483 c 0.17008,-0.83802 -0.75077,-0.77657 -1.04873,-1.22351 -0.10645,-0.15967 -0.1492,-0.42418 -0.34958,-0.52437 -0.51437,-0.25718 0.23013,0.40491 -0.34957,-0.17478 -0.46611,-0.46611 -0.93221,-0.93221 -1.39831,-1.39831 -0.11652,-0.11653 -0.23305,-0.23305 -0.34957,-0.34958 -0.11653,-0.11652 -0.25071,-0.21774 -0.34958,-0.34957 -0.0782,-0.10423 -0.10252,-0.24118 -0.17479,-0.34958 -0.0457,-0.0686 -0.11652,-0.11652 -0.17479,-0.17479 -0.17479,-0.17478 -0.34957,-0.34957 -0.52436,-0.52436 -0.0583,-0.0583 -0.11653,-0.11653 -0.17479,-0.17479 -0.0583,-0.0583 -0.10109,-0.13794 -0.17479,-0.17479 -0.0521,-0.026 -0.12267,0.0261 -0.17479,0 -0.0737,-0.0369 -0.10109,-0.13794 -0.17478,-0.17479 -0.0521,-0.026 -0.13359,0.0412 -0.17479,0 -0.0412,-0.0412 0.026,-0.12267 0,-0.17478 -0.0368,-0.0737 -0.11653,-0.11653 -0.17479,-0.17479 -0.0583,-0.0583 -0.10109,-0.13794 -0.17479,-0.17479 -0.10422,-0.0521 -0.24535,0.0521 -0.34957,0 -0.20975,-0.10487 -0.31462,-0.41949 -0.52437,-0.52436 -0.0521,-0.0261 -0.12268,0.026 -0.17479,0 -0.0933,-0.0467 -0.43234,-0.43235 -0.52436,-0.52437 -0.1028,-0.1028 -0.65868,-0.61821 -0.69915,-0.69915 -0.0521,-0.10422 0.0824,-0.26718 0,-0.34958 -0.0921,-0.0921 -0.25746,-0.0827 -0.34958,-0.17479 -0.0412,-0.0412 0.0412,-0.13359 0,-0.17478 -0.0412,-0.0412 -0.13359,0.0412 -0.17479,0 -0.0112,-0.0112 -0.32787,-0.6666 -0.34958,-0.69916 -0.17146,-0.25719 -0.52768,-0.44195 -0.69915,-0.69915 -0.0723,-0.1084 -0.0827,-0.25745 -0.17479,-0.34958 -0.23305,-0.23305 -0.16772,0.37079 -0.34957,-0.17478 0,-0.79569 0.0824,-0.01 -0.17479,-0.52437 -0.023,-0.046 0,-0.60775 0,-0.69915 0,-0.0914 -0.023,-0.65319 0,-0.69915 0.0737,-0.1474 0.27588,-0.20218 0.34958,-0.34958 0.026,-0.0521 -0.0261,-0.12268 0,-0.17479 0.10487,-0.20974 0.41949,-0.31462 0.52436,-0.52436 0.0927,-0.18551 -0.0927,-0.16407 0,-0.34958 0.0368,-0.0737 0.13794,-0.10109 0.17479,-0.17479 0.0521,-0.10422 -0.0521,-0.24535 0,-0.34957 0.0368,-0.0737 0.13794,-0.10109 0.17479,-0.17479 0.023,-0.046 0,-0.60775 0,-0.69915 0,-0.4661 0,-0.93221 0,-1.39831 0,-0.29131 0,-0.582634 0,-0.873944 0,-0.0583 0,-0.11652 0,-0.17479 0,-0.0583 0.026,-0.12267 0,-0.17478 -0.0369,-0.0737 -0.12909,-0.10624 -0.17479,-0.17479 -0.0723,-0.1084 -0.11653,-0.23305 -0.17479,-0.34958 -0.11652,-0.11652 -0.2507,-0.21774 -0.34958,-0.34958 -0.31162,-0.41549 -0.0476,-0.42096 -0.34957,-0.87394 -0.0914,-0.13711 -0.23305,-0.23305 -0.34958,-0.34957 -0.23305,-0.23305 -0.4661,-0.4661 -0.69915,-0.69916 -0.11653,-0.11652 -0.25817,-0.21246 -0.34958,-0.34957 -0.0723,-0.1084 -0.10252,-0.24118 -0.17479,-0.34958 -0.0914,-0.13711 -0.23305,-0.23305 -0.34957,-0.34957 -0.34958,-0.34958 -0.69915,-0.69916 -1.04873,-1.04873 -0.11653,-0.11653 -0.2507,-0.21775 -0.34958,-0.34958 -0.0782,-0.10422 -0.0827,-0.25745 -0.17478,-0.34958 -0.0412,-0.0412 -0.12268,0.0261 -0.17479,0 -0.0737,-0.0368 -0.10109,-0.13793 -0.17479,-0.17478 -0.0521,-0.0261 -0.12268,0.026 -0.17479,0 -0.14015,-0.0701 -0.20943,-0.27951 -0.34958,-0.34958 -0.0521,-0.0261 -0.12267,0.0261 -0.17478,0 -0.15492,-0.0775 -0.36526,-0.41829 -0.52437,-0.52436 -0.69915,-0.46611 -0.0583,0.17478 -0.52436,-0.52437 -0.28985,-0.43477 -0.0402,-0.0201 -0.34958,-0.17479 -0.0737,-0.0369 -0.11652,-0.11652 -0.17479,-0.17478 -0.0583,-0.0583 -0.23305,-0.11653 -0.17478,-0.17479 0.0583,-0.0583 0.17478,0.25718 0.17478,0.17479 0,-0.42203 -0.21651,-0.25825 -0.34957,-0.52437 -0.0261,-0.0521 0.026,-0.12268 0,-0.17479 -0.0737,-0.14739 -0.27588,-0.20218 -0.34958,-0.34957 -0.0261,-0.0521 0.0261,-0.12268 0,-0.17479 -0.0368,-0.0737 -0.13794,-0.10109 -0.17479,-0.17479 -0.026,-0.0521 0,-0.11653 0,-0.17479 0,-0.12389 0.0226,-1.00354 0,-1.04873 -0.0368,-0.0737 -0.13794,-0.10109 -0.17479,-0.17478 -0.0266,-0.0532 0,-0.44565 0,-0.52437 0,-0.4661 0,-0.9322 0,-1.3983 0,-0.14799 0.0313,-0.60519 0,-0.69916 -0.21598,-0.64796 -0.17478,0.21306 -0.17478,-0.34957 0,-0.34958 0,-0.69916 0,-1.04873 0,-0.0583 0,-0.11653 0,-0.17479 0,-0.0583 0.0261,-0.12268 0,-0.17479 -0.0368,-0.0737 -0.13794,-0.10109 -0.17479,-0.174787 -0.0261,-0.05211 0,-0.116525 0,-0.174788 0,-0.05826 0,-0.116525 0,-0.174788 0,-0.291313 0,-0.582627 0,-0.87394 0,-0.05826 0,-0.116526 0,-0.174789 0,-0.05826 0.0261,-0.122676 0,-0.174788 -0.0368,-0.0737 -0.13794,-0.101091 -0.17479,-0.174788 -0.0226,-0.04519 0,-0.924838 0,-1.048729 0,-0.121572 0.0316,-0.810731 0,-0.87394 -0.0369,-0.0737 -0.13794,-0.101091 -0.17479,-0.174788 -0.0531,-0.106136 0.0531,-0.942594 0,-1.048729 -0.0369,-0.0737 -0.13794,-0.101091 -0.17479,-0.174788 -0.0551,-0.110269 0.0551,-0.763673 0,-0.873941 -0.0368,-0.0737 -0.13794,-0.101091 -0.17478,-0.174788 -0.0549,-0.109858 0.0549,-0.589295 0,-0.699153 -0.0369,-0.0737 -0.13794,-0.101091 -0.17479,-0.174788 -0.0551,-0.110268 0.0551,-0.763672 0,-0.873941 -0.0369,-0.0737 -0.13794,-0.101091 -0.17479,-0.174788 -0.0549,-0.109858 0.0549,-0.589294 0,-0.699152 -0.0369,-0.0737 -0.14873,-0.09662 -0.17479,-0.174788 -0.0737,-0.221092 0.0565,-0.47306 0,-0.699153 -0.0316,-0.12639 -0.14319,-0.223187 -0.17479,-0.349576 -0.0565,-0.226093 0.0565,-0.47306 0,-0.699153 -0.0316,-0.126389 -0.14319,-0.223186 -0.17479,-0.349576 -0.0283,-0.113046 0.0283,-0.23653 0,-0.349576 -0.0316,-0.12639 -0.14319,-0.223187 -0.17478,-0.349577 -0.0283,-0.113046 0.0283,-0.23653 0,-0.349576 -0.0316,-0.126389 -0.14319,-0.223187 -0.17479,-0.349576 -0.0759,-0.303475 0.0759,-0.745254 0,-1.048729 -0.0316,-0.12639 -0.14319,-0.223187 -0.17479,-0.349576 -0.029,-0.115966 0,-0.90044 0,-1.048729 0,-0.05826 0.0184,-0.119515 0,-0.174788 -0.0412,-0.123594 -0.13359,-0.225983 -0.17479,-0.349576 -0.0553,-0.165819 0.0424,-0.354795 0,-0.524365 -0.0316,-0.126389 -0.13359,-0.225982 -0.17479,-0.349576 -0.0517,-0.155113 0.0572,-0.759487 0,-0.873941 -0.0368,-0.0737 -0.13794,-0.101091 -0.17478,-0.174788 -0.0549,-0.109858 0.0549,-0.589294 0,-0.699152 -0.0368,-0.0737 -0.13794,-0.101091 -0.17479,-0.174789 -0.0699,-0.13983 0.0699,-0.384534 0,-0.524364 -0.0368,-0.0737 -0.13794,-0.101091 -0.17479,-0.174788 -0.0549,-0.109858 0.0549,-0.589294 0,-0.699153 -0.0368,-0.0737 -0.13794,-0.101091 -0.17479,-0.174788 -0.026,-0.05211 0,-0.116525 0,-0.174788 0,-0.116525 0.0369,-0.239031 0,-0.349576 -0.026,-0.07817 -0.13794,-0.101091 -0.17479,-0.174788 -0.0521,-0.104224 0.0521,-0.245353 0,-0.349577 -0.0368,-0.0737 -0.13794,-0.101091 -0.17478,-0.174788 -0.0521,-0.104223 0.0521,-0.245353 0,-0.349576 -0.0368,-0.0737 -0.13794,-0.101091 -0.17479,-0.174788 -0.0261,-0.05211 0.026,-0.122677 0,-0.174788 -0.0368,-0.0737 -0.13794,-0.101091 -0.17479,-0.174788 -0.0261,-0.05211 0.0261,-0.122677 0,-0.174789 -0.0737,-0.147394 -0.27588,-0.202182 -0.34958,-0.349576 -0.026,-0.05211 0.0261,-0.122676 0,-0.174788 -0.0368,-0.0737 -0.13794,-0.101091 -0.17479,-0.174788 -0.026,-0.05211 0.0261,-0.122677 0,-0.174788 -0.0368,-0.0737 -0.13793,-0.101091 -0.17478,-0.174788 -0.0521,-0.104224 0.0521,-0.245353 0,-0.349577 -0.0932,-0.186407 -0.25638,-0.163168 -0.34958,-0.349576 -0.0521,-0.104223 0.0369,-0.239031 0,-0.349576 -0.0412,-0.123594 -0.11653,-0.233051 -0.17479,-0.349577 -0.0583,-0.116525 -0.10252,-0.241177 -0.17479,-0.349576 -0.0457,-0.06856 -0.12908,-0.10623 -0.17478,-0.174788 -0.14454,-0.216798 -0.20505,-0.482354 -0.34958,-0.699152 -0.0457,-0.06856 -0.14873,-0.09662 -0.17479,-0.174789 -0.0369,-0.110545 0.0521,-0.245352 0,-0.349576 -0.0737,-0.147394 -0.2507,-0.217743 -0.34957,-0.349576 -0.0782,-0.104224 -0.10253,-0.241177 -0.17479,-0.349576 -0.0457,-0.06856 -0.11653,-0.116526 -0.17479,-0.174789 -0.0583,-0.116525 -0.10252,-0.241177 -0.17479,-0.349576 -0.0457,-0.06856 -0.13794,-0.101091 -0.17479,-0.174788 -0.026,-0.05211 0.0261,-0.122676 0,-0.174788 -0.0369,-0.0737 -0.12908,-0.106231 -0.17479,-0.174788 -0.0723,-0.108399 -0.0827,-0.257455 -0.17478,-0.349577 -0.0921,-0.09212 -0.25746,-0.08267 -0.34958,-0.174788 -0.0412,-0.0412 0.0261,-0.122676 0,-0.174788 -0.0467,-0.09335 -0.43234,-0.432344 -0.52436,-0.524364 -0.1028,-0.102801 -0.61822,-0.658682 -0.69916,-0.699153 -0.0521,-0.02606 -0.13359,0.0412 -0.17478,0 -0.0921,-0.09212 -0.0827,-0.257455 -0.17479,-0.349576 -0.0412,-0.0412 -0.12268,0.02606 -0.17479,0 -0.0335,-0.01673 -0.68242,-0.665695 -0.69915,-0.699153 -0.0699,-0.13983 0.0699,-0.384533 0,-0.524364 -0.0368,-0.0737 -0.13794,-0.101091 -0.17479,-0.174788 -0.0549,-0.109858 0.0549,-0.589294 0,-0.699153 -0.0368,-0.0737 -0.13794,-0.101091 -0.17479,-0.174788 -0.025,-0.05003 0,-0.780566 0,-0.87394 0,-0.582628 0,-1.165255 0,-1.747882 0,-0.174788 0.0424,-0.354795 0,-0.524364 -0.0316,-0.12639 -0.13359,-0.225983 -0.17479,-0.349576 -0.0378,-0.113249 0,-0.730842 0,-0.873941 0,-0.466102 0,-0.932204 0,-1.398305 0,-0.0914 0.023,-0.653194 0,-0.699153 -0.0369,-0.0737 -0.13794,-0.101091 -0.17479,-0.174788 -0.026,-0.05211 0,-0.116525 0,-0.174788 0,-0.05826 0,-0.116525 0,-0.174788 0,-0.291314 0,-0.582627 0,-0.873941 0,-0.116525 0,-0.233051 0,-0.349576 0,-0.05826 0.0261,-0.122677 0,-0.174788 -0.0368,-0.0737 -0.11652,-0.116526 -0.17478,-0.174788 0,-0.116526 0.0368,-0.239031 0,-0.349577 -0.0261,-0.07817 -0.14874,-0.09662 -0.17479,-0.174788 -0.0874,-0.262182 0.0874,-0.611758 0,-0.873941 -0.0261,-0.07817 -0.13794,-0.10109 -0.17479,-0.174788 -0.0261,-0.05211 0.0184,-0.119515 0,-0.174788 -0.0412,-0.123594 -0.14319,-0.223186 -0.17479,-0.349576 -0.0575,-0.229814 0.0724,-0.656863 0,-0.873941 -0.0521,-0.156335 -0.27588,-0.202182 -0.34958,-0.349576 -0.0549,-0.109858 0.0549,-0.589294 0,-0.699153 -0.0368,-0.0737 -0.14873,-0.09662 -0.17478,-0.174788 -0.0369,-0.110545 0,-0.233051 0,-0.349576 -0.0583,-0.116525 -0.13359,-0.225982 -0.17479,-0.349576 -0.0233,-0.0699 0.0233,-0.279674 0,-0.349576 -0.0412,-0.123594 -0.13359,-0.225983 -0.17479,-0.349577 -0.0184,-0.05527 0.0261,-0.122676 0,-0.174788 -0.0369,-0.0737 -0.13794,-0.101091 -0.17479,-0.174788 -0.026,-0.05211 0,-0.116525 0,-0.174788 0,-0.116526 0.0368,-0.239031 0,-0.349576 -0.026,-0.07817 -0.13794,-0.101091 -0.17479,-0.174789 -0.0266,-0.05314 0,-0.578457 0,-0.699152 0,-0.409909 0.0412,0.0824 -0.17478,-0.349576 -0.0699,-0.139831 0.0699,-0.384534 0,-0.524365 -0.0368,-0.0737 -0.13794,-0.101091 -0.17479,-0.174788 -0.0261,-0.05211 0,-0.116525 0,-0.174788 0,-0.05826 0,-0.116525 0,-0.174788 0,-0.349576 0,-0.699153 0,-1.048729 0,-0.795685 0.0824,-0.01 -0.17479,-0.524364 -0.0531,-0.106136 0.0531,-0.942594 0,-1.048729 -0.0368,-0.0737 -0.13794,-0.101091 -0.17479,-0.174788 -0.0549,-0.109859 0.0549,-0.589295 0,-0.699153 -0.0368,-0.0737 -0.13794,-0.101091 -0.17479,-0.174788 -0.0551,-0.110269 0.0551,-0.763672 0,-0.873941 -0.0368,-0.0737 -0.13794,-0.101091 -0.17478,-0.174788 -0.0531,-0.106135 0.0531,-0.942593 0,-1.048729 -0.0368,-0.0737 -0.13794,-0.101091 -0.17479,-0.174788 -0.0261,-0.05211 0.026,-0.122676 0,-0.174788 -0.0368,-0.0737 -0.13794,-0.101091 -0.17479,-0.174788 -0.0699,-0.139831 0.0699,-0.384534 0,-0.524365 -0.0368,-0.0737 -0.13794,-0.10109 -0.17479,-0.174788 -0.0549,-0.109858 0.0549,-0.589294 0,-0.699152 -0.0368,-0.0737 -0.13794,-0.101091 -0.17479,-0.174788 -0.0521,-0.104224 0.0521,-0.245353 0,-0.349577 -0.0368,-0.0737 -0.13794,-0.101091 -0.17479,-0.174788 -0.0699,-0.13983 0.0699,-0.384534 0,-0.524364 -0.0368,-0.0737 -0.13793,-0.101091 -0.17478,-0.174788 -0.0516,-0.103129 0.0401,-0.40414 0,-0.524365 -0.0412,-0.123594 -0.13359,-0.225982 -0.17479,-0.349576 -0.0401,-0.120225 0.0516,-0.421236 0,-0.524364 -0.0368,-0.0737 -0.11653,-0.116526 -0.17479,-0.174788 0,-0.116526 0.0369,-0.239031 0,-0.349577 -0.0261,-0.07817 -0.14873,-0.09662 -0.17479,-0.174788 -0.0369,-0.110546 0.0368,-0.23903 0,-0.349576 -0.0261,-0.07817 -0.13794,-0.101091 -0.17479,-0.174788 -0.0808,-0.161523 0.12228,-0.576872 0,-0.699153 -0.0824,-0.0824 -0.24535,0.05211 -0.34957,0 -0.0521,-0.02606 0.026,-0.122676 0,-0.174788 -0.0369,-0.0737 -0.11653,-0.116525 -0.17479,-0.174788 0,-0.116526 0.0283,-0.23653 0,-0.349576 -0.21101,-0.844043 -0.0831,0.0087 -0.34958,-0.524365 -0.0474,-0.09482 0.0478,-0.651326 0,-0.699152 -0.0412,-0.0412 -0.13359,0.0412 -0.17478,0 -0.0824,-0.0824 0.0521,-0.245353 0,-0.349577 -0.10488,-0.209745 -0.4195,-0.314618 -0.52437,-0.524364 -0.0699,-0.139831 0.0699,-0.384534 0,-0.524364 -0.0369,-0.0737 -0.13794,-0.101091 -0.17479,-0.174789 -0.026,-0.05211 0.0261,-0.122676 0,-0.174788 -0.0369,-0.0737 -0.13794,-0.101091 -0.17479,-0.174788 -0.0521,-0.104223 0.0521,-0.245353 0,-0.349576 -0.0368,-0.0737 -0.13794,-0.101091 -0.17478,-0.174788 -0.0568,-0.113547 0.0554,-0.76307 0,-0.873941 -0.0369,-0.0737 -0.13794,-0.101091 -0.17479,-0.174788 -0.0699,-0.139831 0.0699,-0.384534 0,-0.524364 -0.0369,-0.0737 -0.13794,-0.101091 -0.17479,-0.174789 -0.0261,-0.05211 0.0261,-0.122676 0,-0.174788 -0.0368,-0.0737 -0.13794,-0.101091 -0.17479,-0.174788 -0.0572,-0.114454 0.0517,-0.718828 0,-0.873941 -0.0412,-0.123593 -0.13359,-0.225982 -0.17479,-0.349576 -0.0368,-0.110546 0.0521,-0.245353 0,-0.349576 -0.0368,-0.0737 -0.13794,-0.101091 -0.17478,-0.174788 -0.0389,-0.07778 0.0266,-0.619207 0,-0.699153 -0.0261,-0.07817 -0.14874,-0.09662 -0.17479,-0.174788 -0.0368,-0.110546 0,-0.233051 0,-0.349576 0,-0.05826 0.026,-0.122677 0,-0.174788 -0.0368,-0.0737 -0.13794,-0.101091 -0.17479,-0.174788 -0.0521,-0.104224 0.0369,-0.239031 0,-0.349577 -0.0412,-0.123594 -0.13359,-0.225982 -0.17479,-0.349576 -0.0368,-0.110546 0.0521,-0.245353 0,-0.349576 -0.0368,-0.0737 -0.14873,-0.09662 -0.17479,-0.174788 0,-0.795686 0.0824,-0.01 -0.17478,-0.524365 -0.0521,-0.104223 0.0521,-0.245353 0,-0.349576 -0.25719,-0.514368 -0.17479,0.271321 -0.17479,-0.524364 0,-0.0914 0.023,-0.653194 0,-0.699153 -0.0368,-0.0737 -0.13794,-0.101091 -0.17479,-0.174788 -0.0551,-0.110269 0.0551,-0.763672 0,-0.873941 -0.0368,-0.0737 -0.13794,-0.101091 -0.17479,-0.174788 -0.0261,-0.05211 0,-0.116525 0,-0.174788 0,-0.116526 0.0369,-0.239031 0,-0.349576 -0.0261,-0.07817 -0.13794,-0.101091 -0.17479,-0.174789 -0.0521,-0.104223 0.0521,-0.245352 0,-0.349576 -0.0368,-0.0737 -0.13794,-0.101091 -0.17479,-0.174788 -0.0549,-0.109858 0.0549,-0.589294 0,-0.699152 -0.0368,-0.0737 -0.13794,-0.101091 -0.17478,-0.174789 -0.0261,-0.05211 -0.0583,-0.174788 0,-0.174788 0.0583,0 0,0.116526 0,0.174788"
     id="path823"
     inkscape:connector-curvature="0" />
  <path
     style="fill:none;stroke:#000000;stroke-width:1px;stroke-linecap:butt;stroke-linejoin:miter;stroke-opacity:1"
     d="m 6.8492488,6.024365 c 0,1.806144 0,3.612288 0,5.418432 0,0.349576 0,0.699152 0,1.048729 0,0.05826 -0.0412,0.13359 0,0.174788 0.0412,0.0412 0.13359,-0.0412 0.17479,0 0.0421,0.04206 -0.0421,0.657093 0,0.699152 0.0412,0.0412 0.13359,-0.0412 0.17478,0 0.0824,0.0824 -0.0521,0.245353 0,0.349577 0.0368,0.0737 0.13794,0.101091 0.17479,0.174788 0.0261,0.05211 -0.0261,0.122676 0,0.174788 0.0368,0.0737 0.13794,0.101091 0.17479,0.174788 0.0261,0.05211 -0.0261,0.122676 0,0.174788 0.0369,0.0737 0.13794,0.101091 0.17479,0.174788 0.026,0.05211 0,0.116526 0,0.174788 0.0583,0.116526 0.10252,0.241178 0.17479,0.349577 0.0457,0.06856 0.13794,0.101091 0.17478,0.174788 0.0521,0.104223 -0.0521,0.245353 0,0.349576 0.0369,0.0737 0.13794,0.101091 0.17479,0.174788 0.0699,0.139831 -0.0699,0.384534 0,0.524365 0.0934,0.186861 0.25615,0.162715 0.34958,0.349576 0.0521,0.104223 -0.0521,0.245353 0,0.349576 0.0369,0.0737 0.13794,0.101091 0.17479,0.174788 0.026,0.05211 -0.0261,0.122677 0,0.174788 0.0369,0.0737 0.13794,0.101091 0.17479,0.174789 0.026,0.05211 -0.0261,0.122676 0,0.174788 0.0368,0.0737 0.13793,0.101091 0.17478,0.174788 0.0261,0.05211 -0.026,0.122676 0,0.174788 0.0369,0.0737 0.13794,0.101091 0.17479,0.174788 0.0521,0.104224 -0.0521,0.245353 0,0.349576 0.0369,0.0737 0.13794,0.101091 0.17479,0.174789 0.0261,0.05211 -0.0261,0.122676 0,0.174788 0.0369,0.0737 0.13794,0.101091 0.17479,0.174788 0.026,0.05211 -0.0261,0.122676 0,0.174788 0.0737,0.147394 0.27588,0.202182 0.34957,0.349576 0.0261,0.05211 0,0.116526 0,0.174788 0.0583,0.05826 0.1379402,0.101091 0.1747902,0.174789 0.0261,0.05211 -0.026,0.122676 0,0.174788 0.0368,0.0737 0.14873,0.09662 0.17479,0.174788 0.0368,0.110546 -0.0369,0.23903 0,0.349576 0.0261,0.07817 0.13794,0.101091 0.17479,0.174788 0.026,0.05211 -0.0261,0.122677 0,0.174788 0.0737,0.147395 0.29746,0.193241 0.34957,0.349577 0.0368,0.110545 -0.0368,0.23903 0,0.349576 0.0261,0.07817 0.14874,0.09662 0.17479,0.174788 0.0368,0.110546 -0.0369,0.239031 0,0.349576 0.0521,0.156336 0.27588,0.202182 0.34958,0.349577 0.0261,0.05211 -0.0261,0.122676 0,0.174788 0.0737,0.147394 0.29746,0.193241 0.34958,0.349576 0.0368,0.110546 -0.0369,0.239031 0,0.349576 0.026,0.07817 0.13794,0.101091 0.17478,0.174788 0.0261,0.05211 -0.026,0.122677 0,0.174789 0.39997,0.799936 -0.0724,-0.741699 0.34958,0.524364 0.0368,0.110546 -0.0521,0.245353 0,0.349576 0.39997,0.799937 -0.0724,-0.741699 0.34958,0.524365 0.0184,0.05527 -0.0184,0.119515 0,0.174788 0.0412,0.123594 0.13359,0.225982 0.17478,0.349576 0.17344,0.520315 -0.41387,-0.358631 0.17479,0.524364 0.0457,0.06856 0.12909,0.106231 0.17479,0.174789 0.0723,0.108399 0.10252,0.241177 0.17479,0.349576 0.0457,0.06856 0.13794,0.101091 0.17479,0.174788 0.026,0.05211 -0.0261,0.122676 0,0.174788 0.0737,0.147394 0.27588,0.202182 0.34957,0.349576 0.0261,0.05211 -0.026,0.122677 0,0.174788 0.0369,0.0737 0.13794,0.101091 0.17479,0.174789 0.0261,0.05211 -0.026,0.122676 0,0.174788 0.0369,0.0737 0.13794,0.101091 0.17479,0.174788 0.0261,0.05211 -0.0261,0.122676 0,0.174788 0.18611,0.372213 0.16347,-0.02264 0.34958,0.349576 0.026,0.05211 -0.0261,0.122677 0,0.174788 0.39784,0.397843 0.0462,-0.0362 0.17478,0.349577 0.42202,1.266063 -0.0504,-0.275573 0.34958,0.524364 0.0261,0.05211 -0.0184,0.119515 0,0.174788 0.0824,0.247188 0.26718,0.451965 0.34958,0.699153 0.0184,0.05527 -0.0261,0.122676 0,0.174788 0.0368,0.0737 0.13794,0.101091 0.17478,0.174788 0.0261,0.05211 -0.026,0.122676 0,0.174788 0.0368,0.0737 0.13794,0.101091 0.17479,0.174788 0.0521,0.104224 -0.0521,0.245353 0,0.349577 0.0368,0.0737 0.14873,0.09662 0.17479,0.174788 0.0368,0.110545 -0.0369,0.23903 0,0.349576 0.0261,0.07817 0.13794,0.101091 0.17479,0.174788 0.026,0.05211 -0.0261,0.122677 0,0.174788 0.0368,0.0737 0.14873,0.09662 0.17479,0.174788 0.0368,0.110546 0,0.233051 0,0.349577 0,0.05826 -0.0261,0.122676 0,0.174788 0.0737,0.147394 0.29746,0.193241 0.34957,0.349576 0.0368,0.110546 0,0.233051 0,0.349576 0,0.05826 -0.026,0.122677 0,0.174789 0.0737,0.147394 0.29747,0.193241 0.34958,0.349576 0.0368,0.110546 0,0.233051 0,0.349576 0,0.05826 -0.0261,0.122676 0,0.174788 0.0368,0.0737 0.13794,0.101091 0.17479,0.174788 0.026,0.05211 0,0.116526 0,0.174788 0,0.116526 -0.0369,0.239031 0,0.349577 0.0521,0.156335 0.27588,0.202182 0.34957,0.349576 0.0551,0.110268 -0.0551,0.763672 0,0.873941 0.0737,0.147394 0.27588,0.202182 0.34958,0.349576 0.0549,0.109858 -0.0549,0.589294 0,0.699153 0.0369,0.0737 0.13794,0.10109 0.17479,0.174788 0.0549,0.109858 -0.0549,0.589294 0,0.699152 0.0369,0.0737 0.13794,0.101091 0.17479,0.174788 0.0521,0.104224 -0.0521,0.245353 0,0.349577 0.0369,0.0737 0.13794,0.101091 0.17478,0.174788 0.0266,0.05319 0,0.445647 0,0.524364 0,0.05826 0,0.116526 0,0.174788 0,0.05826 -0.026,0.122677 0,0.174788 0.0369,0.0737 0.13794,0.101091 0.17479,0.174789 0.0551,0.110268 -0.0551,0.763672 0,0.87394 0.0369,0.0737 0.13794,0.101091 0.17479,0.174788 0.0549,0.109859 -0.0549,0.589295 0,0.699153 0.0369,0.0737 0.13794,0.101091 0.17479,0.174788 0.0549,0.109858 -0.0549,0.589294 0,0.699153 0.0369,0.0737 0.13794,0.101091 0.17479,0.174788 0.0266,0.05319 0,0.445647 0,0.524364 0,0.466102 0,0.932204 0,1.398305 0,1.165254 0,2.330509 0,3.495763 0,0.64089 0,1.28178 0,1.922669 0,0.190852 -0.0377,0.760905 0,0.873941 0.0412,0.123594 0.13359,0.225982 0.17479,0.349576 0.0184,0.05527 -0.0261,0.122677 0,0.174789 0.0368,0.0737 0.12908,0.10623 0.17478,0.174788 0.0723,0.108399 0.10253,0.241177 0.17479,0.349576 0.0457,0.06856 0.14873,0.09662 0.17479,0.174788 0.0369,0.110546 -0.0368,0.239031 0,0.349576 0.0521,0.156336 0.29746,0.193241 0.34958,0.349577 0.0368,0.110545 -0.0368,0.23903 0,0.349576 0.026,0.07817 0.12908,0.10623 0.17478,0.174788 0.14454,0.216798 0.20505,0.482355 0.34958,0.699153 0.0457,0.06856 0.14873,0.09662 0.17479,0.174788 0.0368,0.110545 -0.0369,0.23903 0,0.349576 0.026,0.07817 0.13794,0.101091 0.17479,0.174788 0.026,0.05211 -0.0261,0.122676 0,0.174788 0.0737,0.147395 0.27588,0.202182 0.34957,0.349576 0.0261,0.05211 -0.0184,0.119516 0,0.174789 0.21122,0.633657 0.0829,0.124396 0.34958,0.524364 0.14453,0.216798 0.20504,0.482355 0.34958,0.699153 0.0914,0.137115 0.27587,0.202182 0.34957,0.349576 0.0261,0.05211 -0.026,0.122676 0,0.174788 0.0368,0.0737 0.13794,0.101091 0.17479,0.174788 0.0261,0.05211 -0.0261,0.122677 0,0.174788 0.18686,0.373723 0.16271,-0.02415 0.34958,0.349577 0.25718,0.514368 -0.40491,-0.230123 0.17478,0.349576 0.0583,0.05826 0.11653,0.116525 0.17479,0.174788 0.0583,0.05826 0.13794,0.101091 0.17479,0.174788 0.0261,0.05211 -0.0261,0.122676 0,0.174788 0.0369,0.0737 0.13794,0.101091 0.17479,0.174788 0.026,0.05211 -0.0261,0.122677 0,0.174788 0.0737,0.147395 0.27588,0.202182 0.34958,0.349577 0.026,0.05211 -0.0261,0.122676 0,0.174788 0.57969,0.579699 -0.0824,-0.164792 0.17478,0.349576 0.0737,0.147394 0.27588,0.202182 0.34958,0.349576 0.0261,0.05211 -0.0261,0.122677 0,0.174789 0.5797,0.579699 -0.0824,-0.164792 0.17479,0.349576 0.10487,0.209746 0.41949,0.314618 0.52436,0.524364 0.0261,0.05211 -0.026,0.122677 0,0.174788 0.10487,0.209746 0.41949,0.314619 0.52437,0.524365 0.026,0.05211 -0.0261,0.122676 0,0.174788 0.5797,0.579699 -0.0824,-0.164792 0.17478,0.349576 0.0737,0.147394 0.27588,0.202182 0.34958,0.349576 0.0934,0.186862 -0.0934,0.162715 0,0.349577 0.0737,0.147394 0.27588,0.202182 0.34958,0.349576 0.026,0.05211 -0.0184,0.119515 0,0.174788 0.0412,0.123594 0.13359,0.225983 0.17479,0.349576 0.0184,0.05527 -0.0261,0.122677 0,0.174789 0.0368,0.0737 0.14873,0.09662 0.17478,0.174788 0.0368,0.110545 -0.0283,0.23653 0,0.349576 -0.10535,0.316356 0.28315,0.325075 0.34958,0.524364 0.0368,0.110546 0,0.233051 0,0.349577 0,0.05826 -0.0261,0.122676 0,0.174788 0.0737,0.147394 0.29746,0.193241 0.34958,0.349576 0.13913,0.417391 -0.13913,0.281761 0,0.699153 0.026,0.07817 0.13794,0.101091 0.17478,0.174788 0.0549,0.109858 -0.0549,0.589294 0,0.699152 0.0368,0.0737 0.13794,0.101091 0.17479,0.174788 0.0261,0.05211 -0.0184,0.119516 0,0.174789 0.0412,0.123593 0.13359,0.225982 0.17479,0.349576 0.0517,0.155112 -0.0572,0.759486 0,0.87394 0.0369,0.0737 0.13794,0.101091 0.17479,0.174789 0.0266,0.05319 0,0.445647 0,0.524364 0,0.466102 0,0.932203 0,1.398305 0,1.106992 0,2.213983 0,3.320975 0,2.621822 0,5.243644 0,7.865466 0,0.815678 0,1.631357 0,2.447037 0,0.17602 -0.0322,0.95206 0,1.04873 0.026,0.0782 0.13794,0.10109 0.17479,0.17478 0.026,0.0521 0,0.11653 0,0.17479 0,0.11653 -0.0283,0.23653 0,0.34958 0.0632,0.25278 0.28638,0.44637 0.34957,0.69915 0.0283,0.11305 -0.0283,0.23653 0,0.34958 0.13944,0.55773 0.21015,0.14142 0.34958,0.69915 0.0283,0.11305 0,0.23305 0,0.34958 0.0583,0.11652 0.13359,0.22598 0.17479,0.34957 0.0184,0.0553 -0.0261,0.12268 0,0.17479 0.0369,0.0737 0.14873,0.0966 0.17479,0.17479 0.0368,0.11054 -0.0368,0.23903 0,0.34957 0.0519,0.15558 0.4725,0.36879 0.52436,0.52437 0.0369,0.11054 -0.0368,0.23903 0,0.34958 0.0261,0.0782 0.12908,0.10623 0.17479,0.17478 0.0217,0.0326 0.33837,0.68796 0.34957,0.69916 0.0921,0.0921 0.25746,0.0827 0.34958,0.17478 0.0112,0.0112 0.32787,0.6666 0.34958,0.69916 0.0914,0.13711 0.25816,0.21246 0.34957,0.34957 0.33113,-0.0199 0.11653,0.40784 0.17479,0.52437 0.0747,0.14941 0.27487,0.20016 0.34958,0.34957 0.026,0.0521 -0.0261,0.12268 0,0.17479 0.086,0.172 0.61315,0.52716 0.69915,0.69915 0.0261,0.0521 -0.0261,0.12268 0,0.17479 0.086,0.172 0.61315,0.52716 0.69915,0.69915 0.0261,0.0521 -0.026,0.12268 0,0.17479 0.0467,0.0933 0.43235,0.43235 0.52437,0.52437 0.40784,0.40784 0.81567,0.81568 1.22351,1.22351 0.092,0.092 0.47769,0.43102 0.52437,0.52437 0.25718,0.51437 -0.40491,-0.23012 0.17479,0.34958 0.0583,0.0583 0.11652,0.11652 0.17478,0.17478 0.0583,0.0583 0.1011,0.13794 0.17479,0.17479 0.0521,0.0261 0.12268,-0.026 0.17479,0 0.1474,0.0737 0.20218,0.27588 0.34958,0.34958 0.0521,0.026 0.12267,-0.0261 0.17479,0 0.0737,0.0369 0.11652,0.116524 0.17478,0.174794 0.23305,0.23305 0.46611,0.4661 0.69916,0.69915 0.0583,0.0583 0.11652,0.11652 0.17478,0.17479 0.0583,0.0583 0.1011,0.13794 0.17479,0.17478 0.0521,0.0261 0.12268,-0.026 0.17479,0 0.0737,0.0369 0.11653,0.11653 0.17479,0.17479 0.0583,0.0583 0.13794,0.10109 0.17479,0.17479 0.026,0.0521 -0.0261,0.12268 0,0.17479 0.0369,0.0737 0.13794,0.10109 0.17478,0.17479 0.0261,0.0521 -0.026,0.12267 0,0.17479 0.0369,0.0737 0.13794,0.10109 0.17479,0.17478 0.0261,0.0521 -0.026,0.12268 0,0.17479 0.0369,0.0737 0.13794,0.10109 0.17479,0.17479 0.0261,0.0521 -0.026,0.12268 0,0.17479 0.0369,0.0737 0.13794,0.10109 0.17479,0.17479 0.0521,0.10422 -0.0521,0.24535 0,0.34957 0.0369,0.0737 0.13794,0.10109 0.17479,0.17479 0.026,0.0521 -0.0261,0.12268 0,0.17479 0.0369,0.0737 0.13794,0.10109 0.17479,0.17479 0.0699,0.13983 -0.0699,0.38453 0,0.52436 0.0368,0.0737 0.13793,0.10109 0.17478,0.17479 0.0261,0.0521 -0.026,0.12268 0,0.17479 0.0369,0.0737 0.13794,0.10109 0.17479,0.17479 0.0521,0.10422 -0.0368,0.23903 0,0.34957 0.0412,0.1236 0.13359,0.22598 0.17479,0.34958 0.0184,0.0553 -0.0184,0.11951 0,0.17479 0.0412,0.12359 0.13359,0.22598 0.17479,0.34957 0.0368,0.11055 -0.0521,0.24536 0,0.34958 0.0368,0.0737 0.14873,0.0966 0.17479,0.17479 0.0368,0.11054 0,0.23305 0,0.34957 0,0.0583 -0.0261,0.12268 0,0.17479 0.0368,0.0737 0.13794,0.10109 0.17478,0.17479 0.0699,0.13983 -0.0699,0.38453 0,0.52436 0.0368,0.0737 0.13794,0.10109 0.17479,0.17479 0.0261,0.0521 -0.026,0.12268 0,0.17479 0.0368,0.0737 0.13794,0.10109 0.17479,0.17479 0.0516,0.10313 -0.0401,0.40414 0,0.52436 0.42202,1.26607 -0.0504,-0.27557 0.34958,0.52437 0.026,0.0521 -0.0261,0.12267 0,0.17479 0.0368,0.0737 0.13794,0.10109 0.17478,0.17478 0.0261,0.0521 -0.0184,0.11952 0,0.17479 0.0412,0.1236 0.1336,0.22598 0.17479,0.34958 0.0184,0.0553 -0.026,0.12267 0,0.17479 0.0368,0.0737 0.13794,0.10109 0.17479,0.17478 0.0521,0.10423 -0.0521,0.24536 0,0.34958 0.0368,0.0737 0.13794,0.10109 0.17479,0.17479 0.0699,0.13983 -0.0699,0.38453 0,0.52436 0.0368,0.0737 0.12908,0.10623 0.17479,0.17479 0.20084,0.30127 0.17479,0.26421 0.17479,0.52437 0,0.0583 -0.0261,0.12267 0,0.17478 0.0368,0.0737 0.13794,0.10109 0.17478,0.17479 0.0261,0.0521 -0.026,0.12268 0,0.17479 0.0368,0.0737 0.13794,0.10109 0.17479,0.17479 0.0521,0.10422 -0.0521,0.24535 0,0.34957 0.0737,0.1474 0.27588,0.20219 0.34958,0.34958 0.0521,0.10422 -0.0368,0.23903 0,0.34958 0.10659,0.31977 0.29937,0.47415 0.52436,0.69915 0.0583,0.0583 0.12909,0.10623 0.17479,0.17479 0.0723,0.1084 0.10252,0.24117 0.17479,0.34957 0.0914,0.13712 0.27588,0.20219 0.34958,0.34958 0.0521,0.10422 -0.0521,0.24535 0,0.34958 0.10487,0.20974 0.41949,0.31461 0.52436,0.52436 0.0261,0.0521 -0.0261,0.12268 0,0.17479 0.0467,0.0934 0.43234,0.43234 0.52436,0.52436 0.092,0.092 0.47769,0.43102 0.52437,0.52437 0.0521,0.10422 -0.0521,0.24535 0,0.34957 0.36371,0.72743 -0.0121,-0.18685 0.34957,0.17479 0.0412,0.0412 -0.026,0.12268 0,0.17479 0.0368,0.0737 0.13794,0.10109 0.17479,0.17479 0.0261,0.0521 -0.0412,0.13359 0,0.17479 0.0192,0.0192 0.63678,-0.0359 0.34958,0 -0.52352,0.0654 -1.04873,0.11652 -1.57309,0.17478"
     id="path825"
     inkscape:connector-curvature="0" />
</svg>
